  0
SECTION
  2
HEADER
  9
$ACADVER
  1
AC1009
  9
$DWGCODEPAGE
  3
ansi_1252
  9
$INSBASE
 10
0.0
 20
0.0
 30
0.0
  9
$EXTMIN
 10
3.271479663126645
 20
13.59772004175029
 30
0.0
  9
$EXTMAX
 10
446.9391252103904
 20
576.4019143108285
 30
0.0
  9
$LIMMIN
 10
0.0
 20
0.0
  9
$LIMMAX
 10
12.0
 20
9.0
  9
$ORTHOMODE
 70
     0
  9
$REGENMODE
 70
     1
  9
$FILLMODE
 70
     1
  9
$QTEXTMODE
 70
     0
  9
$MIRRTEXT
 70
     1
  9
$DRAGMODE
 70
     2
  9
$LTSCALE
 40
1.0
  9
$OSMODE
 70
    37
  9
$ATTMODE
 70
     1
  9
$TEXTSIZE
 40
0.2
  9
$TRACEWID
 40
0.05
  9
$TEXTSTYLE
  7
STANDARD
  9
$CLAYER
  8
0
  9
$CELTYPE
  6
BYLAYER
  9
$CECOLOR
 62
   256
  9
$DIMSCALE
 40
1.0
  9
$DIMASZ
 40
0.18
  9
$DIMEXO
 40
0.0625
  9
$DIMDLI
 40
0.38
  9
$DIMRND
 40
0.0
  9
$DIMDLE
 40
0.0
  9
$DIMEXE
 40
0.18
  9
$DIMTP
 40
0.0
  9
$DIMTM
 40
0.0
  9
$DIMTXT
 40
0.18
  9
$DIMCEN
 40
0.09
  9
$DIMTSZ
 40
0.0
  9
$DIMTOL
 70
     0
  9
$DIMLIM
 70
     0
  9
$DIMTIH
 70
     1
  9
$DIMTOH
 70
     1
  9
$DIMSE1
 70
     0
  9
$DIMSE2
 70
     0
  9
$DIMTAD
 70
     0
  9
$DIMZIN
 70
     0
  9
$DIMBLK
  1

  9
$DIMASO
 70
     1
  9
$DIMSHO
 70
     1
  9
$DIMPOST
  1

  9
$DIMAPOST
  1

  9
$DIMALT
 70
     0
  9
$DIMALTD
 70
     2
  9
$DIMALTF
 40
25.4
  9
$DIMLFAC
 40
1.0
  9
$DIMTOFL
 70
     0
  9
$DIMTVP
 40
0.0
  9
$DIMTIX
 70
     0
  9
$DIMSOXD
 70
     0
  9
$DIMSAH
 70
     0
  9
$DIMBLK1
  1

  9
$DIMBLK2
  1

  9
$DIMSTYLE
  2
STANDARD
  9
$DIMCLRD
 70
     0
  9
$DIMCLRE
 70
     0
  9
$DIMCLRT
 70
     0
  9
$DIMTFAC
 40
1.0
  9
$DIMGAP
 40
0.09
  9
$LUNITS
 70
     2
  9
$LUPREC
 70
     4
  9
$SKETCHINC
 40
0.1
  9
$FILLETRAD
 40
0.5
  9
$AUNITS
 70
     0
  9
$AUPREC
 70
     0
  9
$MENU
  1
.
  9
$ELEVATION
 40
0.0
  9
$PELEVATION
 40
0.0
  9
$THICKNESS
 40
0.0
  9
$LIMCHECK
 70
     0
  9
$CHAMFERA
 40
0.5
  9
$CHAMFERB
 40
0.5
  9
$SKPOLY
 70
     0
  9
$TDCREATE
 40
2454910.5
  9
$TDUPDATE
 40
2455481.825383923
  9
$TDINDWG
 40
0.0000000116
  9
$TDUSRTIMER
 40
0.0000000116
  9
$USRTIMER
 70
     1
  9
$ANGBASE
 50
0.0
  9
$ANGDIR
 70
     0
  9
$PDMODE
 70
     0
  9
$PDSIZE
 40
0.0
  9
$PLINEWID
 40
0.0
  9
$COORDS
 70
     1
  9
$SPLFRAME
 70
     0
  9
$SPLINETYPE
 70
     6
  9
$SPLINESEGS
 70
     8
  9
$ATTDIA
 70
     0
  9
$ATTREQ
 70
     1
  9
$HANDLING
 70
     1
  9
$HANDSEED
  5
2B7
  9
$SURFTAB1
 70
     6
  9
$SURFTAB2
 70
     6
  9
$SURFTYPE
 70
     6
  9
$SURFU
 70
     6
  9
$SURFV
 70
     6
  9
$UCSNAME
  2

  9
$UCSORG
 10
0.0
 20
0.0
 30
0.0
  9
$UCSXDIR
 10
1.0
 20
0.0
 30
0.0
  9
$UCSYDIR
 10
0.0
 20
1.0
 30
0.0
  9
$PUCSNAME
  2

  9
$PUCSORG
 10
0.0
 20
0.0
 30
0.0
  9
$PUCSXDIR
 10
1.0
 20
0.0
 30
0.0
  9
$PUCSYDIR
 10
0.0
 20
1.0
 30
0.0
  9
$USERI1
 70
     0
  9
$USERI2
 70
     0
  9
$USERI3
 70
     0
  9
$USERI4
 70
     0
  9
$USERI5
 70
     0
  9
$USERR1
 40
0.0
  9
$USERR2
 40
0.0
  9
$USERR3
 40
0.0
  9
$USERR4
 40
0.0
  9
$USERR5
 40
0.0
  9
$WORLDVIEW
 70
     1
  9
$SHADEDGE
 70
     3
  9
$SHADEDIF
 70
    70
  9
$TILEMODE
 70
     1
  9
$MAXACTVP
 70
    64
  9
$PLIMCHECK
 70
     0
  9
$PEXTMIN
 10
1.000000000000000E+20
 20
1.000000000000000E+20
 30
1.000000000000000E+20
  9
$PEXTMAX
 10
-1.000000000000000E+20
 20
-1.000000000000000E+20
 30
-1.000000000000000E+20
  9
$PLIMMIN
 10
0.0
 20
0.0
  9
$PLIMMAX
 10
12.0
 20
9.0
  9
$UNITMODE
 70
     0
  9
$VISRETAIN
 70
     1
  9
$PLINEGEN
 70
     0
  9
$PSLTSCALE
 70
     1
  0
ENDSEC
  0
SECTION
  2
TABLES
  0
TABLE
  2
VPORT
 70
     1
  0
VPORT
  2
*ACTIVE
 70
     0
 10
0.0
 20
0.0
 11
1.0
 21
1.0
 12
10.42990654205607
 22
4.5
 13
0.0
 23
0.0
 14
0.5
 24
0.5
 15
0.5
 25
0.5
 16
0.0
 26
0.0
 36
1.0
 17
0.0
 27
0.0
 37
0.0
 40
9.0
 41
1.972972972850329
 42
50.0
 43
0.0
 44
0.0
 50
0.0
 51
0.0
 71
     0
 72
   100
 73
     1
 74
     3
 75
     0
 76
     0
 77
     0
 78
     0
  0
ENDTAB
  0
TABLE
  2
LTYPE
 70
     2
  0
LTYPE
  2
CONTINUOUS
 70
     0
  3
Solid line
 72
    65
 73
     0
 40
0.0
  0
LTYPE
  2
CONTINUOUS2
 70
     0
  3
Solid Line
 72
    65
 73
     0
 40
0.0
  0
ENDTAB
  0
TABLE
  2
LAYER
 70
     3
  0
LAYER
  2
0
 70
     0
 62
     7
  6
CONTINUOUS
  0
LAYER
  2
INT
 70
     0
 62
   150
  6
CONTINUOUS
  0
LAYER
  2
EXT
 70
     0
 62
     1
  6
CONTINUOUS
  0
ENDTAB
  0
TABLE
  2
STYLE
 70
     1
  0
STYLE
  2
STANDARD
 70
     0
 40
0.0
 41
1.0
 50
0.0
 71
     0
 42
0.2
  3
txt
  4

  0
ENDTAB
  0
TABLE
  2
VIEW
 70
     0
  0
ENDTAB
  0
TABLE
  2
UCS
 70
     0
  0
ENDTAB
  0
TABLE
  2
APPID
 70
     1
  0
APPID
  2
ACAD
 70
     0
  0
ENDTAB
  0
TABLE
  2
DIMSTYLE
 70
     1
  0
DIMSTYLE
  2
STANDARD
 70
     0
  3

  4

  5

  6

  7

 40
1.0
 41
0.18
 42
0.0625
 43
0.38
 44
0.18
 45
0.0
 46
0.0
 47
0.0
 48
0.0
140
0.18
141
0.09
142
0.0
143
25.4
144
1.0
145
0.0
146
1.0
147
0.09
 71
     0
 72
     0
 73
     1
 74
     1
 75
     0
 76
     0
 77
     0
 78
     0
170
     0
171
     2
172
     0
173
     0
174
     0
175
     0
176
     0
177
     0
178
     0
  0
ENDTAB
  0
ENDSEC
  0
SECTION
  2
BLOCKS
  0
BLOCK
  8
0
  2
$MODEL_SPACE
 70
     0
 10
0.0
 20
0.0
 30
0.0
  3
$MODEL_SPACE
  1

  0
ENDBLK
  5
21
  8
0
  0
BLOCK
 67
     1
  8
0
  2
$PAPER_SPACE
 70
     0
 10
0.0
 20
0.0
 30
0.0
  3
$PAPER_SPACE
  1

  0
ENDBLK
  5
1D
 67
     1
  8
0
  0
ENDSEC
  0
SECTION
  2
ENTITIES
  0
POLYLINE
  5
3D
  8
INT
 66
     1
 10
0.0
 20
0.0
 30
0.0
 70
     1
  0
VERTEX
  5
69
  8
INT
 10
108.2679945527287
 20
177.3400301961111
 30
0.0
  0
VERTEX
  5
6A
  8
INT
 10
108.268094111715
 20
154.1786437992354
 30
0.0
  0
VERTEX
  5
6B
  8
INT
 10
141.3556301942261
 20
154.1789874747267
 30
0.0
  0
VERTEX
  5
6C
  8
INT
 10
141.3555454199722
 20
177.3402280791122
 30
0.0
  0
SEQEND
  5
6D
  8
INT
  0
POLYLINE
  5
3E
  8
INT
 66
     1
 10
0.0
 20
0.0
 30
0.0
 70
     1
  0
VERTEX
  5
6E
  8
INT
 10
71.87192291401041
 20
154.1785670497118
 30
0.0
  0
VERTEX
  5
6F
  8
INT
 10
98.34193374516805
 20
154.1788116035839
 30
0.0
  0
VERTEX
  5
70
  8
INT
 10
98.3416833712685
 20
177.3399159926052
 30
0.0
  0
VERTEX
  5
71
  8
INT
 10
65.25411814724109
 20
177.3398821984972
 30
0.0
  0
SEQEND
  5
72
  8
INT
  0
POLYLINE
  5
3F
  8
INT
 66
     1
 10
0.0
 20
0.0
 30
0.0
 70
     1
  0
VERTEX
  5
73
  8
INT
 10
151.2818700396141
 20
177.3401770989666
 30
0.0
  0
VERTEX
  5
74
  8
INT
 10
151.2817907249747
 20
154.1789221377974
 30
0.0
  0
VERTEX
  5
75
  8
INT
 10
173.8889770344984
 20
154.1790742430468
 30
0.0
  0
VERTEX
  5
76
  8
INT
 10
167.2711576208475
 20
177.3404408584245
 30
0.0
  0
SEQEND
  5
77
  8
INT
  0
POLYLINE
  5
40
  8
INT
 66
     1
 10
0.0
 20
0.0
 30
0.0
 70
     1
  0
VERTEX
  5
78
  8
INT
 10
137.4928171231005
 20
124.3999436654832
 30
0.0
  0
VERTEX
  5
79
  8
INT
 10
140.8011972274991
 20
111.165215499553
 30
0.0
  0
VERTEX
  5
7A
  8
INT
 10
150.7277046852721
 20
111.1651500850359
 30
0.0
  0
VERTEX
  5
7B
  8
INT
 10
147.4189478455233
 20
124.4002074249419
 30
0.0
  0
SEQEND
  5
7C
  8
INT
  0
POLYLINE
  5
41
  8
INT
 66
     1
 10
0.0
 20
0.0
 30
0.0
 70
     1
  0
VERTEX
  5
7D
  8
INT
 10
117.6400027001652
 20
124.4000321875931
 30
0.0
  0
VERTEX
  5
7E
  8
INT
 10
120.9491307521853
 20
111.1648247369138
 30
0.0
  0
VERTEX
  5
7F
  8
INT
 10
130.8752338916648
 20
111.1651023132183
 30
0.0
  0
VERTEX
  5
80
  8
INT
 10
127.5664925034586
 20
124.3999946456296
 30
0.0
  0
SEQEND
  5
81
  8
INT
  0
POLYLINE
  5
42
  8
INT
 66
     1
 10
0.0
 20
0.0
 30
0.0
 70
     1
  0
VERTEX
  5
82
  8
INT
 10
157.3451084643505
 20
124.4001410813321
 30
0.0
  0
VERTEX
  5
83
  8
INT
 10
160.6538163678712
 20
111.1652488623743
 30
0.0
  0
VERTEX
  5
84
  8
INT
 10
173.8889452896573
 20
111.16523485929
 30
0.0
  0
VERTEX
  5
85
  8
INT
 10
170.5800233543353
 20
124.4002777543336
 30
0.0
  0
SEQEND
  5
86
  8
INT
  0
POLYLINE
  5
43
  8
INT
 66
     1
 10
0.0
 20
0.0
 30
0.0
 70
     1
  0
VERTEX
  5
87
  8
INT
 10
140.432329327258
 20
327.8928422299476
 30
0.0
  0
VERTEX
  5
88
  8
INT
 10
128.8515400385127
 20
317.9666557269202
 30
0.0
  0
VERTEX
  5
89
  8
INT
 10
153.6672817977717
 20
269.8266959761762
 30
0.0
  0
VERTEX
  5
8A
  8
INT
 10
196.6811475011831
 20
269.8266219298299
 30
0.0
 42
0.4142039999999932
  0
VERTEX
  5
8B
  8
INT
 10
199.9899901069037
 20
273.1352672751103
 30
0.0
  0
VERTEX
  5
8C
  8
INT
 10
199.9900490491191
 20
288.1224135856559
 30
0.0
 42
0.3574980000000001
  0
VERTEX
  5
8D
  8
INT
 10
197.3300885167228
 20
291.3669100607791
 30
0.0
  0
VERTEX
  5
8E
  8
INT
 10
173.5967857177681
 20
296.1134132881104
 30
0.0
  0
VERTEX
  5
8F
  8
INT
 10
170.2110962303232
 20
311.348905716928
 30
0.0
 42
0.1622780000000008
  0
SEQEND
  5
90
  8
INT
  0
POLYLINE
  5
44
  8
INT
 66
     1
 10
0.0
 20
0.0
 30
0.0
 70
     1
  0
VERTEX
  5
91
  8
INT
 10
399.9728090472844
 20
112.972972412984
 30
0.0
  0
VERTEX
  5
92
  8
INT
 10
376.8114226504088
 20
112.9728728539977
 30
0.0
  0
VERTEX
  5
93
  8
INT
 10
376.8117663259001
 20
79.88533677148665
 30
0.0
  0
VERTEX
  5
94
  8
INT
 10
399.9730069302856
 20
79.88542154574053
 30
0.0
  0
SEQEND
  5
95
  8
INT
  0
POLYLINE
  5
45
  8
INT
 66
     1
 10
0.0
 20
0.0
 30
0.0
 70
     1
  0
VERTEX
  5
96
  8
INT
 10
376.8113459008852
 20
149.3690440517023
 30
0.0
  0
VERTEX
  5
97
  8
INT
 10
376.8115904547573
 20
122.8990332205447
 30
0.0
  0
VERTEX
  5
98
  8
INT
 10
399.9726948437786
 20
122.8992835944442
 30
0.0
  0
VERTEX
  5
99
  8
INT
 10
399.9726610496706
 20
155.9868488184716
 30
0.0
  0
SEQEND
  5
9A
  8
INT
  0
POLYLINE
  5
46
  8
INT
 66
     1
 10
0.0
 20
0.0
 30
0.0
 70
     1
  0
VERTEX
  5
9B
  8
INT
 10
399.9729559501399
 20
69.95909692609861
 30
0.0
  0
VERTEX
  5
9C
  8
INT
 10
376.8117009889708
 20
69.95917624073807
 30
0.0
  0
VERTEX
  5
9D
  8
INT
 10
376.8118530942201
 20
47.35198993121437
 30
0.0
  0
VERTEX
  5
9E
  8
INT
 10
399.9732197095979
 20
53.96980934486528
 30
0.0
  0
SEQEND
  5
9F
  8
INT
  0
POLYLINE
  5
47
  8
INT
 66
     1
 10
0.0
 20
0.0
 30
0.0
 70
     1
  0
VERTEX
  5
A0
  8
INT
 10
347.0327225166566
 20
83.74814984261221
 30
0.0
  0
VERTEX
  5
A1
  8
INT
 10
333.7979943507264
 20
80.43976973821366
 30
0.0
  0
VERTEX
  5
A2
  8
INT
 10
333.7979289362093
 20
70.51326228044066
 30
0.0
  0
VERTEX
  5
A3
  8
INT
 10
347.0329862761153
 20
73.82201912018941
 30
0.0
  0
SEQEND
  5
A4
  8
INT
  0
POLYLINE
  5
48
  8
INT
 66
     1
 10
0.0
 20
0.0
 30
0.0
 70
     1
  0
VERTEX
  5
A5
  8
INT
 10
347.0328110387665
 20
103.6009642655476
 30
0.0
  0
VERTEX
  5
A6
  8
INT
 10
333.7976035880872
 20
100.2918362135274
 30
0.0
  0
VERTEX
  5
A7
  8
INT
 10
333.7978811643916
 20
90.36573307404791
 30
0.0
  0
VERTEX
  5
A8
  8
INT
 10
347.032773496803
 20
93.67447446225412
 30
0.0
  0
SEQEND
  5
A9
  8
INT
  0
POLYLINE
  5
49
  8
INT
 66
     1
 10
0.0
 20
0.0
 30
0.0
 70
     1
  0
VERTEX
  5
AA
  8
INT
 10
347.0329199325054
 20
63.89585850136217
 30
0.0
  0
VERTEX
  5
AB
  8
INT
 10
333.7980277135476
 20
60.58715059784151
 30
0.0
  0
VERTEX
  5
AC
  8
INT
 10
333.7980137104634
 20
47.35202167605539
 30
0.0
  0
VERTEX
  5
AD
  8
INT
 10
347.0330566055069
 20
50.66094361137745
 30
0.0
  0
SEQEND
  5
AE
  8
INT
  0
POLYLINE
  5
4A
  8
INT
 66
     1
 10
0.0
 20
0.0
 30
0.0
 70
     1
  0
VERTEX
  5
AF
  8
INT
 10
229.2988454690932
 20
389.8671573017177
 30
0.0
 42
1.0
  0
VERTEX
  5
B0
  8
INT
 10
234.0970799710634
 20
389.7370120326339
 30
0.0
  0
VERTEX
  5
B1
  8
INT
 10
234.2431638572618
 20
395.1228762125154
 30
0.0
 42
0.2071327239233173
  0
VERTEX
  5
B2
  8
INT
 10
238.004295787803
 20
398.6853653639288
 30
0.0
  0
VERTEX
  5
B3
  8
INT
 10
243.3901599676845
 20
398.5392814777304
 30
0.0
 42
1.0
  0
VERTEX
  5
B4
  8
INT
 10
243.520305236768
 20
403.3375159797006
 30
0.0
  0
VERTEX
  5
B5
  8
INT
 10
238.1344410568866
 20
403.4835998658991
 30
0.0
 42
0.2071327239233173
  0
VERTEX
  5
B6
  8
INT
 10
234.5719519054732
 20
407.2447317964403
 30
0.0
  0
VERTEX
  5
B7
  8
INT
 10
234.7180357916716
 20
412.6305959763217
 30
0.0
 42
1.0
  0
VERTEX
  5
B8
  8
INT
 10
229.9198012897013
 20
412.7607412454054
 30
0.0
  0
VERTEX
  5
B9
  8
INT
 10
229.773717403503
 20
407.374877065524
 30
0.0
 42
0.2071327239233173
  0
VERTEX
  5
BA
  8
INT
 10
226.0125854729619
 20
403.8123879141106
 30
0.0
  0
VERTEX
  5
BB
  8
INT
 10
220.6267212930805
 20
403.9584718003089
 30
0.0
 42
1.0
  0
VERTEX
  5
BC
  8
INT
 10
220.4965760239967
 20
399.1602372983387
 30
0.0
  0
VERTEX
  5
BD
  8
INT
 10
225.8824402038781
 20
399.0141534121403
 30
0.0
 42
0.2071327239233173
  0
VERTEX
  5
BE
  8
INT
 10
229.4449293552916
 20
395.2530214815991
 30
0.0
  0
SEQEND
  5
BF
  8
INT
  0
POLYLINE
  5
4B
  8
INT
 66
     1
 10
0.0
 20
0.0
 30
0.0
 70
     1
  0
VERTEX
  5
C0
  8
INT
 10
285.7165496401838
 20
542.5552273939531
 30
0.0
  0
VERTEX
  5
C1
  8
INT
 10
318.804337192536
 20
542.5550674241113
 30
0.0
 42
0.6228739999999993
  0
VERTEX
  5
C2
  8
INT
 10
322.1129913166873
 20
550.8269369939801
 30
0.0
 42
0.1981569999999993
  0
VERTEX
  5
C3
  8
INT
 10
285.4324253792793
 20
562.3839597974654
 30
0.0
 42
0.389229000000005
  0
VERTEX
  5
C4
  8
INT
 10
282.4077713392562
 20
559.0874278632209
 30
0.0
  0
VERTEX
  5
C5
  8
INT
 10
282.4080337756897
 20
545.8638655309662
 30
0.0
 42
0.414214999999993
  0
SEQEND
  5
C6
  8
INT
  0
POLYLINE
  5
4C
  8
INT
 66
     1
 10
0.0
 20
0.0
 30
0.0
 70
     1
  0
VERTEX
  5
C7
  8
INT
 10
285.4123202945029
 20
496.2597303115451
 30
0.0
 42
0.201212999999999
  0
VERTEX
  5
C8
  8
INT
 10
322.1130248097376
 20
507.8132216439991
 30
0.0
 42
0.7288240000000085
  0
VERTEX
  5
C9
  8
INT
 10
318.8043605422312
 20
516.0851548328556
 30
0.0
  0
VERTEX
  5
CA
  8
INT
 10
285.7167701012638
 20
516.0850054144632
 30
0.0
 42
0.4142139999999985
  0
VERTEX
  5
CB
  8
INT
 10
282.4080074908648
 20
512.7762610448387
 30
0.0
  0
VERTEX
  5
CC
  8
INT
 10
282.4079323045358
 20
499.5544861820134
 30
0.0
 42
0.3874729999999917
  0
SEQEND
  5
CD
  8
INT
  0
POLYLINE
  5
4D
  8
INT
 66
     1
 10
0.0
 20
0.0
 30
0.0
 70
     1
  0
VERTEX
  5
CE
  8
INT
 10
303.3251694761702
 20
303.1424395525534
 30
0.0
  0
VERTEX
  5
CF
  8
INT
 10
298.5251703554304
 20
303.1416859871152
 30
0.0
  0
VERTEX
  5
D0
  8
INT
 10
298.5295678084793
 20
275.1111130508475
 30
0.0
  0
VERTEX
  5
D1
  8
INT
 10
303.3295669292191
 20
275.1118666162855
 30
0.0
  0
SEQEND
  5
D2
  8
INT
  0
POLYLINE
  5
4F
  8
EXT
 66
     1
 10
0.0
 20
0.0
 30
0.0
 70
     1
  0
VERTEX
  5
D3
  8
EXT
 10
36.52402104057396
 20
21.86997725880998
 30
0.0
 42
-0.4271369999999989
  0
VERTEX
  5
D4
  8
EXT
 10
46.04254773920034
 20
29.09886863525639
 30
0.0
 42
0.2256579999999817
  0
VERTEX
  5
D5
  8
EXT
 10
50.13219679245377
 20
30.30155125009774
 30
0.0
  0
VERTEX
  5
D6
  8
EXT
 10
77.82747476734878
 20
55.08159235595255
 30
0.0
 42
-0.2200220000000047
  0
VERTEX
  5
D7
  8
EXT
 10
81.81169346085449
 20
56.29983447047717
 30
0.0
  0
VERTEX
  5
D8
  8
EXT
 10
163.2880397758631
 20
43.47361604477421
 30
0.0
  0
VERTEX
  5
D9
  8
EXT
 10
156.6955000016976
 20
26.99157301086473
 30
0.0
  0
VERTEX
  5
DA
  8
EXT
 10
156.1622873423703
 20
25.60357910208019
 30
0.0
  0
VERTEX
  5
DB
  8
EXT
 10
165.5736290752795
 20
20.898128394998
 30
0.0
 42
0.1164309999999947
  0
VERTEX
  5
DC
  8
EXT
 10
167.7931610696093
 20
20.37411906180194
 30
0.0
  0
VERTEX
  5
DD
  8
EXT
 10
168.0943259749755
 20
20.37414580560473
 30
0.0
 42
0.1790320000000125
  0
VERTEX
  5
DE
  8
EXT
 10
171.3242041264265
 20
21.56894887892583
 30
0.0
  0
VERTEX
  5
DF
  8
EXT
 10
191.6676930787858
 20
39.00601718237963
 30
0.0
  0
VERTEX
  5
E0
  8
EXT
 10
312.8050063380617
 20
20.02941127855759
 30
0.0
  0
VERTEX
  5
E1
  8
EXT
 10
312.8050259616404
 20
45.85842782781822
 30
0.0
  0
VERTEX
  5
E2
  8
EXT
 10
299.5701094699996
 20
45.85844796308773
 30
0.0
  0
VERTEX
  5
E3
  8
EXT
 10
299.5701595582498
 20
50.65844714290904
 30
0.0
  0
VERTEX
  5
E4
  8
EXT
 10
312.8052572739817
 20
50.65842700736381
 30
0.0
  0
VERTEX
  5
E5
  8
EXT
 10
312.8050568503292
 20
98.79853657868009
 30
0.0
  0
VERTEX
  5
E6
  8
EXT
 10
299.5701408561252
 20
98.79846966336788
 30
0.0
  0
VERTEX
  5
E7
  8
EXT
 10
299.570205056575
 20
103.5984688436455
 30
0.0
  0
VERTEX
  5
E8
  8
EXT
 10
319.4224982022185
 20
103.5985692162054
 30
0.0
  0
VERTEX
  5
E9
  8
EXT
 10
319.4224795086559
 20
114.5148380771101
 30
0.0
 42
0.4142140000000073
  0
VERTEX
  5
EA
  8
EXT
 10
316.1138440724664
 20
117.8236515765095
 30
0.0
  0
VERTEX
  5
EB
  8
EXT
 10
312.8050942510572
 20
117.8238264315712
 30
0.0
 42
-0.4142039999999946
  0
VERTEX
  5
EC
  8
EXT
 10
309.4963766642045
 20
121.1325784619637
 30
0.0
  0
VERTEX
  5
ED
  8
EXT
 10
309.4963627465411
 20
132.242357615117
 30
0.0
 42
-0.4142139292921609
  0
VERTEX
  5
EE
  8
EXT
 10
312.527941175944
 20
135.2739398423016
 30
0.0
  0
VERTEX
  5
EF
  8
EXT
 10
341.6628607541459
 20
135.2739398423016
 30
0.0
  0
VERTEX
  5
F0
  8
EXT
 10
341.6628607541459
 20
144.2942061491364
 30
0.0
  0
VERTEX
  5
F1
  8
EXT
 10
326.7197665493667
 20
144.2942227740267
 30
0.0
  0
VERTEX
  5
F2
  8
EXT
 10
326.7197665493667
 20
149.0942219539116
 30
0.0
  0
VERTEX
  5
F3
  8
EXT
 10
341.6628607541459
 20
149.0942053290267
 30
0.0
  0
VERTEX
  5
F4
  8
EXT
 10
341.6628607541459
 20
161.8597086555156
 30
0.0
  0
VERTEX
  5
F5
  8
EXT
 10
339.2628611642
 20
161.8597086555156
 30
0.0
  0
VERTEX
  5
F6
  8
EXT
 10
339.2628611642
 20
190.2297529228499
 30
0.0
 42
0.0515858579650752
  0
VERTEX
  5
F7
  8
EXT
 10
330.2118589211431
 20
188.7645458270867
 30
0.0
  0
VERTEX
  5
F8
  8
EXT
 10
330.2118589211431
 20
186.2382304692489
 30
0.0
  0
VERTEX
  5
F9
  8
EXT
 10
332.2192515664786
 20
186.2382304692489
 30
0.0
 42
-0.9999999999999915
  0
VERTEX
  5
FA
  8
EXT
 10
335.5997038953352
 20
182.8441184994574
 30
0.0
  0
VERTEX
  5
FB
  8
EXT
 10
335.5997038953352
 20
179.8302388506294
 30
0.0
 42
-1.0
  0
VERTEX
  5
FC
  8
EXT
 10
332.2192515664786
 20
176.4361268808381
 30
0.0
  0
VERTEX
  5
FD
  8
EXT
 10
329.2013327780082
 20
176.4361268808381
 30
0.0
 42
-0.1571190000000013
  0
VERTEX
  5
FE
  8
EXT
 10
321.7566351026102
 20
156.5836010938118
 30
0.0
  0
VERTEX
  5
FF
  8
EXT
 10
307.1329400653447
 20
156.5836010938118
 30
0.0
 42
0.4142078637672569
  0
VERTEX
  5
100
  8
EXT
 10
306.1876509903554
 20
157.5288681484527
 30
0.0
  0
VERTEX
  5
101
  8
EXT
 10
297.6318654483027
 20
157.5288883546095
 30
0.0
 42
0.1989310000000089
  0
VERTEX
  5
102
  8
EXT
 10
295.2920974195313
 20
156.5596684875099
 30
0.0
  0
VERTEX
  5
103
  8
EXT
 10
290.6129348472298
 20
151.8804733536846
 30
0.0
 42
-0.1989149999999929
  0
VERTEX
  5
104
  8
EXT
 10
288.2732892461618
 20
150.9112339155526
 30
0.0
  0
VERTEX
  5
105
  8
EXT
 10
269.7913712488826
 20
150.9112888603298
 30
0.0
 42
0.2381260000000022
  0
VERTEX
  5
106
  8
EXT
 10
259.8650327961037
 20
144.2938629724694
 30
0.0
  0
VERTEX
  5
107
  8
EXT
 10
254.5409517843591
 20
136.3075743014599
 30
0.0
 42
-0.3169519999999924
  0
VERTEX
  5
108
  8
EXT
 10
250.9853598675816
 20
134.9329856447817
 30
0.0
  0
VERTEX
  5
109
  8
EXT
 10
230.1439567503706
 20
140.143432524284
 30
0.0
 42
0.4282150000000013
  0
VERTEX
  5
10A
  8
EXT
 10
226.0969129696878
 20
137.582452538006
 30
0.0
  0
VERTEX
  5
10B
  8
EXT
 10
223.5985165305801
 20
125.0900675422223
 30
0.0
 42
0.4732930000000044
  0
VERTEX
  5
10C
  8
EXT
 10
226.84282926689
 20
121.1325007976888
 30
0.0
  0
VERTEX
  5
10D
  8
EXT
 10
246.6300833258384
 20
121.1325375348125
 30
0.0
 42
-0.4142139999999945
  0
VERTEX
  5
10E
  8
EXT
 10
249.9389024528764
 20
117.8238307785711
 30
0.0
  0
VERTEX
  5
10F
  8
EXT
 10
249.9387126397301
 20
115.5168654272494
 30
0.0
 42
-0.1480759999999857
  0
VERTEX
  5
110
  8
EXT
 10
249.3830307525946
 20
113.6815004580827
 30
0.0
  0
VERTEX
  5
111
  8
EXT
 10
243.3212878741913
 20
104.5887680684395
 30
0.0
 42
-0.1622759999999985
  0
VERTEX
  5
112
  8
EXT
 10
230.0863863026135
 20
97.97121784387251
 30
0.0
  0
VERTEX
  5
113
  8
EXT
 10
89.63574717437132
 20
91.43890577979732
 30
0.0
 42
-0.2578710000000042
  0
VERTEX
  5
114
  8
EXT
 10
86.76594163624729
 20
92.85451988355518
 30
0.0
  0
VERTEX
  5
115
  8
EXT
 10
34.86977705654991
 20
167.4551212650117
 30
0.0
  0
VERTEX
  5
116
  8
EXT
 10
8.5015732185514
 20
167.4552329213295
 30
0.0
 42
0.487944000000012
  0
VERTEX
  5
117
  8
EXT
 10
5.291621970022335
 20
163.34383667816
 30
0.0
  0
VERTEX
  5
118
  8
EXT
 10
18.32592136613894
 20
111.2064224203058
 30
0.0
 42
-0.1455410000000011
  0
VERTEX
  5
119
  8
EXT
 10
16.67156994055628
 20
97.97128648435427
 30
0.0
  0
VERTEX
  5
11A
  8
EXT
 10
3.436605769925768
 20
71.5013515831373
 30
0.0
 42
0.215752
  0
VERTEX
  5
11B
  8
EXT
 10
5.090906709048177
 20
64.88385125323667
 30
0.0
  0
VERTEX
  5
11C
  8
EXT
 10
31.10690292158363
 20
43.45886840028705
 30
0.0
 42
-0.2569950000000076
  0
VERTEX
  5
11D
  8
EXT
 10
32.87662749322808
 20
39.01221286538813
 30
0.0
  0
VERTEX
  5
11E
  8
EXT
 10
32.30762995653151
 20
34.46073052361303
 30
0.0
 42
-0.3595710000000075
  0
VERTEX
  5
11F
  8
EXT
 10
27.70882910152512
 20
30.12392524093181
 30
0.0
 42
0.6563560000000007
  0
VERTEX
  5
120
  8
EXT
 10
22.5985229799408
 20
15.83177101367552
 30
0.0
 42
0.6563560000000013
  0
SEQEND
  5
121
  8
EXT
  0
POLYLINE
  5
50
  8
EXT
 66
     1
 10
0.0
 20
0.0
 30
0.0
 70
     1
  0
VERTEX
  5
122
  8
EXT
 10
49.35226289811336
 20
80.64215382661801
 30
0.0
 42
0.4142140000000124
  0
VERTEX
  5
123
  8
EXT
 10
46.98261900993032
 20
78.50851592463056
 30
0.0
 42
0.4142139999999849
  0
VERTEX
  5
124
  8
EXT
 10
49.11625584988958
 20
76.1388710801934
 30
0.0
 42
0.4142139999999911
  0
VERTEX
  5
125
  8
EXT
 10
51.48590074721361
 20
78.27250892929376
 30
0.0
 42
0.4142140000000138
  0
SEQEND
  5
126
  8
EXT
  0
POLYLINE
  5
51
  8
EXT
 66
     1
 10
0.0
 20
0.0
 30
0.0
 70
     1
  0
VERTEX
  5
127
  8
EXT
 10
52.97089818468063
 20
80.16352101986065
 30
0.0
  0
VERTEX
  5
128
  8
EXT
 10
71.06154445630362
 20
80.73388774634999
 30
0.0
 42
0.2837070000000009
  0
VERTEX
  5
129
  8
EXT
 10
56.92804912412352
 20
98.95084733093167
 30
0.0
  0
VERTEX
  5
12A
  8
EXT
 10
51.88018239659952
 20
81.56936664291335
 30
0.0
 42
-0.1088270000000002
  0
SEQEND
  5
12B
  8
EXT
  0
POLYLINE
  5
52
  8
EXT
 66
     1
 10
0.0
 20
0.0
 30
0.0
 70
     1
  0
VERTEX
  5
12C
  8
EXT
 10
30.9247914978628
 20
66.27914811560242
 30
0.0
 42
-0.2837070000000014
  0
VERTEX
  5
12D
  8
EXT
 10
30.19821370625484
 20
89.32443815528251
 30
0.0
  0
VERTEX
  5
12E
  8
EXT
 10
45.16910743550444
 20
79.15245907930536
 30
0.0
 42
0.1088270000000112
  0
VERTEX
  5
12F
  8
EXT
 10
45.22517973052643
 20
77.37399980528558
 30
0.0
  0
SEQEND
  5
130
  8
EXT
  0
POLYLINE
  5
53
  8
EXT
 66
     1
 10
0.0
 20
0.0
 30
0.0
 70
     1
  0
VERTEX
  5
131
  8
EXT
 10
32.05773110341875
 20
92.06123471408176
 30
0.0
  0
VERTEX
  5
132
  8
EXT
 10
47.02862477978172
 20
81.88925462896361
 30
0.0
 42
-0.1088270000000062
  0
VERTEX
  5
133
  8
EXT
 10
48.70271304277564
 20
82.49215603014795
 30
0.0
  0
VERTEX
  5
134
  8
EXT
 10
53.75057977029952
 20
99.8736367181665
 30
0.0
 42
0.2837069999999993
  0
SEQEND
  5
135
  8
EXT
  0
POLYLINE
  5
54
  8
EXT
 66
     1
 10
0.0
 20
0.0
 30
0.0
 70
     1
  0
VERTEX
  5
136
  8
EXT
 10
32.95301652100067
 20
63.66492630520735
 30
0.0
  0
VERTEX
  5
137
  8
EXT
 10
47.2534047536643
 20
74.75977799489074
 30
0.0
 42
0.1088270000000088
  0
VERTEX
  5
138
  8
EXT
 10
48.96214720016658
 20
74.26353069416609
 30
0.0
  0
VERTEX
  5
139
  8
EXT
 10
55.09491515379183
 20
57.23455594625131
 30
0.0
 42
-0.2837069999999975
  0
SEQEND
  5
13A
  8
EXT
  0
POLYLINE
  5
55
  8
EXT
 66
     1
 10
0.0
 20
0.0
 30
0.0
 70
     1
  0
VERTEX
  5
13B
  8
EXT
 10
58.20794342528941
 20
58.35567328913494
 30
0.0
 42
0.1964406590708567
  0
VERTEX
  5
13C
  8
EXT
 10
69.67103658716432
 20
70.37428802705415
 30
0.0
  0
VERTEX
  5
13D
  8
EXT
 10
92.1711679666473
 20
70.3743817027551
 30
0.0
  0
VERTEX
  5
13E
  8
EXT
 10
92.17114798261781
 20
75.1743808826056
 30
0.0
  0
VERTEX
  5
13F
  8
EXT
 10
70.95009897696418
 20
75.17429253215934
 30
0.0
 42
0.0257860158561712
  0
VERTEX
  5
140
  8
EXT
 10
71.16581200909249
 20
77.42677605438682
 30
0.0
  0
VERTEX
  5
141
  8
EXT
 10
53.07516478121514
 20
76.85641038992557
 30
0.0
 42
-0.1088269999999719
  0
VERTEX
  5
142
  8
EXT
 10
52.07517547166416
 20
75.38464803704973
 30
0.0
  0
SEQEND
  5
143
  8
EXT
  0
POLYLINE
  5
56
  8
EXT
 66
     1
 10
0.0
 20
0.0
 30
0.0
 70
     1
  0
VERTEX
  5
144
  8
EXT
 10
3.306544908460214
 20
239.1043910519392
 30
0.0
  0
VERTEX
  5
145
  8
EXT
 10
15.67407230481034
 20
237.1574627108211
 30
0.0
 42
0.0407345191174226
  0
VERTEX
  5
146
  8
EXT
 10
85.09378557358876
 20
231.9609444416936
 30
0.0
  0
VERTEX
  5
147
  8
EXT
 10
85.09370716633381
 20
252.0842118298236
 30
0.0
  0
VERTEX
  5
148
  8
EXT
 10
89.89370634626196
 20
252.0842118298236
 30
0.0
  0
VERTEX
  5
149
  8
EXT
 10
89.89378509349494
 20
231.8736889671212
 30
0.0
 42
0.0903699999999987
  0
VERTEX
  5
14A
  8
EXT
 10
193.4942893217381
 20
258.3793359368897
 30
0.0
 42
0.2284109999999992
  0
VERTEX
  5
14B
  8
EXT
 10
209.8923799191
 20
278.165586677105
 30
0.0
  0
VERTEX
  5
14C
  8
EXT
 10
209.9160913898239
 20
278.2614411575082
 30
0.0
 42
0.2484330000000005
  0
VERTEX
  5
14D
  8
EXT
 10
193.3724629955948
 20
308.0404226392853
 30
0.0
  0
VERTEX
  5
14E
  8
EXT
 10
189.745326706293
 20
310.4229385642922
 30
0.0
  0
VERTEX
  5
14F
  8
EXT
 10
179.0707831898634
 20
306.8648052701549
 30
0.0
  0
VERTEX
  5
150
  8
EXT
 10
176.8286190704027
 20
311.3489825028662
 30
0.0
  0
VERTEX
  5
151
  8
EXT
 10
186.7547445084565
 20
314.6577983196655
 30
0.0
  0
VERTEX
  5
152
  8
EXT
 10
185.1005133002708
 20
317.9665061961483
 30
0.0
 42
0.4485090000000086
  0
VERTEX
  5
153
  8
EXT
 10
176.8285165472697
 20
321.2753552541592
 30
0.0
 42
0.133063
  0
VERTEX
  5
154
  8
EXT
 10
127.1973175209957
 20
337.8190661933234
 30
0.0
  0
VERTEX
  5
155
  8
EXT
 10
123.8885025219468
 20
342.7821757628359
 30
0.0
  0
VERTEX
  5
156
  8
EXT
 10
113.7412853165308
 20
344.4365385062278
 30
0.0
  0
VERTEX
  5
157
  8
EXT
 10
117.5161188777763
 20
331.853725104128
 30
0.0
  0
VERTEX
  5
158
  8
EXT
 10
112.9185524423936
 20
330.4744589952115
 30
0.0
  0
VERTEX
  5
159
  8
EXT
 10
108.7299401360674
 20
344.4365387026023
 30
0.0
  0
VERTEX
  5
15A
  8
EXT
 10
88.90269289787379
 20
344.4365394795527
 30
0.0
  0
VERTEX
  5
15B
  8
EXT
 10
88.90269289787379
 20
331.2996996187961
 30
0.0
  0
VERTEX
  5
15C
  8
EXT
 10
84.10269371798194
 20
331.2996998068889
 30
0.0
  0
VERTEX
  5
15D
  8
EXT
 10
84.10269371798194
 20
344.4365396676462
 30
0.0
 42
-1.0
  0
VERTEX
  5
15E
  8
EXT
 10
84.10269371798194
 20
363.4622768927182
 30
0.0
 42
0.4177919912947434
  0
VERTEX
  5
15F
  8
EXT
 10
90.80093738195669
 20
370.0792905369246
 30
0.0
 42
0.4142159999999981
  0
VERTEX
  5
160
  8
EXT
 10
84.18336280988365
 20
376.6967751278833
 30
0.0
  0
VERTEX
  5
161
  8
EXT
 10
64.33090890059016
 20
376.6970132467582
 30
0.0
 42
0.4142170754640872
  0
VERTEX
  5
162
  8
EXT
 10
63.3856168778747
 20
375.7517259859744
 30
0.0
  0
VERTEX
  5
163
  8
EXT
 10
52.07062504684708
 20
375.7517259859744
 30
0.0
 42
-0.1571190000000016
  0
VERTEX
  5
164
  8
EXT
 10
44.62592737144908
 20
395.6042517730007
 30
0.0
  0
VERTEX
  5
165
  8
EXT
 10
41.60800858297866
 20
395.6042517730007
 30
0.0
 42
-1.0
  0
VERTEX
  5
166
  8
EXT
 10
38.22755625412211
 20
398.9983637427919
 30
0.0
  0
VERTEX
  5
167
  8
EXT
 10
38.22755625412211
 20
402.0122433916199
 30
0.0
 42
-0.9999999999999915
  0
VERTEX
  5
168
  8
EXT
 10
41.60800858297866
 20
405.4063553614114
 30
0.0
  0
VERTEX
  5
169
  8
EXT
 10
43.61540122831418
 20
405.4063553614114
 30
0.0
  0
VERTEX
  5
16A
  8
EXT
 10
43.61540122831418
 20
407.9326707192492
 30
0.0
 42
0.051585857965075
  0
VERTEX
  5
16B
  8
EXT
 10
34.56439898525727
 20
409.3978778150124
 30
0.0
  0
VERTEX
  5
16C
  8
EXT
 10
34.56439898525727
 20
381.0278335476781
 30
0.0
  0
VERTEX
  5
16D
  8
EXT
 10
32.16439939531134
 20
381.0278335476781
 30
0.0
  0
VERTEX
  5
16E
  8
EXT
 10
32.16439939531134
 20
368.2623302211892
 30
0.0
  0
VERTEX
  5
16F
  8
EXT
 10
47.10749360009073
 20
368.2623468460741
 30
0.0
  0
VERTEX
  5
170
  8
EXT
 10
47.10749360009073
 20
363.4623476661892
 30
0.0
  0
VERTEX
  5
171
  8
EXT
 10
32.16439939531134
 20
363.462331041299
 30
0.0
  0
VERTEX
  5
172
  8
EXT
 10
32.16439939531134
 20
354.4420647344642
 30
0.0
  0
VERTEX
  5
173
  8
EXT
 10
61.29931897351327
 20
354.4420647344642
 30
0.0
 42
-0.4142139292921609
  0
VERTEX
  5
174
  8
EXT
 10
64.33089740291635
 20
351.4104825072798
 30
0.0
  0
VERTEX
  5
175
  8
EXT
 10
64.33098647280205
 20
332.8560259403271
 30
0.0
  0
VERTEX
  5
176
  8
EXT
 10
57.71359380181472
 20
332.8559842207101
 30
0.0
 42
0.4142139999999979
  0
VERTEX
  5
177
  8
EXT
 10
54.40471287360737
 20
329.5473245194378
 30
0.0
  0
VERTEX
  5
178
  8
EXT
 10
54.40460509112788
 20
322.7666941083679
 30
0.0
  0
VERTEX
  5
179
  8
EXT
 10
70.94848189354002
 20
322.7666941083677
 30
0.0
  0
VERTEX
  5
17A
  8
EXT
 10
70.94859088374243
 20
317.9666614708426
 30
0.0
  0
VERTEX
  5
17B
  8
EXT
 10
54.40455398783123
 20
317.9666614708426
 30
0.0
  0
VERTEX
  5
17C
  8
EXT
 10
54.40465088332394
 20
311.3489141678212
 30
0.0
 42
0.4142060000000065
  0
VERTEX
  5
17D
  8
EXT
 10
57.71334103113725
 20
308.0401950917715
 30
0.0
  0
VERTEX
  5
17E
  8
EXT
 10
75.91175893925949
 20
308.0402301545286
 30
0.0
  0
VERTEX
  5
17F
  8
EXT
 10
84.18345129522753
 20
317.9666593914051
 30
0.0
  0
VERTEX
  5
180
  8
EXT
 10
110.6535100025122
 20
317.9664671502782
 30
0.0
 42
-0.1572259735253119
  0
VERTEX
  5
181
  8
EXT
 10
120.3959256664148
 20
269.8266110562222
 30
0.0
  0
VERTEX
  5
182
  8
EXT
 10
140.4323085371952
 20
269.8266219298299
 30
0.0
  0
VERTEX
  5
183
  8
EXT
 10
140.432207582586
 20
265.0266227498826
 30
0.0
  0
VERTEX
  5
184
  8
EXT
 10
3.306564602806079
 20
265.0265527199807
 30
0.0
  0
SEQEND
  5
185
  8
EXT
  0
POLYLINE
  5
57
  8
EXT
 66
     1
 10
0.0
 20
0.0
 30
0.0
 70
     1
  0
VERTEX
  5
186
  8
EXT
 10
358.9028295348935
 20
355.9218085889661
 30
0.0
 42
-0.1130519999999995
  0
VERTEX
  5
187
  8
EXT
 10
396.9534114169976
 20
365.8479933669958
 30
0.0
  0
VERTEX
  5
188
  8
EXT
 10
397.8622057551517
 20
365.8478697466032
 30
0.0
  0
VERTEX
  5
189
  8
EXT
 10
397.8622057551517
 20
345.9954116121416
 30
0.0
  0
VERTEX
  5
18A
  8
EXT
 10
402.6622049350436
 20
345.995456252704
 30
0.0
  0
VERTEX
  5
18B
  8
EXT
 10
402.6622049350436
 20
365.8479034876847
 30
0.0
  0
VERTEX
  5
18C
  8
EXT
 10
403.5709966048323
 20
365.8480081756442
 30
0.0
 42
-0.1134839999999991
  0
VERTEX
  5
18D
  8
EXT
 10
441.6215534315947
 20
355.9215574192448
 30
0.0
 42
-0.7242880000000008
  0
VERTEX
  5
18E
  8
EXT
 10
436.6585426693441
 20
337.7236238722948
 30
0.0
  0
VERTEX
  5
18F
  8
EXT
 10
434.84091900362
 20
337.7237851420181
 30
0.0
  0
VERTEX
  5
190
  8
EXT
 10
434.8409224748076
 20
347.6497548633607
 30
0.0
  0
VERTEX
  5
191
  8
EXT
 10
430.0409232949556
 20
347.6498695107167
 30
0.0
  0
VERTEX
  5
192
  8
EXT
 10
430.0408917968429
 20
257.5800308559316
 30
0.0
 42
-0.414212999999981
  0
VERTEX
  5
193
  8
EXT
 10
426.7320550144498
 20
254.2712977919683
 30
0.0
  0
VERTEX
  5
194
  8
EXT
 10
402.6622049350436
 20
254.2713340085447
 30
0.0
  0
VERTEX
  5
195
  8
EXT
 10
402.7029799762616
 20
281.4747328579176
 30
0.0
  0
VERTEX
  5
196
  8
EXT
 10
397.8213993848536
 20
281.4746874586382
 30
0.0
  0
VERTEX
  5
197
  8
EXT
 10
397.8622057551517
 20
254.2713419868026
 30
0.0
  0
VERTEX
  5
198
  8
EXT
 10
373.792047789971
 20
254.2713117762202
 30
0.0
 42
-0.4142049999999932
  0
VERTEX
  5
199
  8
EXT
 10
370.4833455038234
 20
257.5800877474553
 30
0.0
  0
VERTEX
  5
19A
  8
EXT
 10
370.4833472184408
 20
347.6497822956598
 30
0.0
  0
VERTEX
  5
19B
  8
EXT
 10
365.6833480385511
 20
347.6498969430158
 30
0.0
  0
VERTEX
  5
19C
  8
EXT
 10
365.6833478495919
 20
337.723772122621
 30
0.0
  0
VERTEX
  5
19D
  8
EXT
 10
363.8659045416986
 20
337.723588598728
 30
0.0
 42
-0.8079789999999957
  0
SEQEND
  5
19E
  8
EXT
  0
POLYLINE
  5
58
  8
EXT
 66
     1
 10
0.0
 20
0.0
 30
0.0
 70
     1
  0
VERTEX
  5
19F
  8
EXT
 10
313.6642328163588
 20
226.7650528558001
 30
0.0
  0
VERTEX
  5
1A0
  8
EXT
 10
313.5309420566566
 20
205.3867002066946
 30
0.0
 42
0.4142230000000103
  0
VERTEX
  5
1A1
  8
EXT
 10
316.8190645337035
 20
202.0573710737741
 30
0.0
  0
VERTEX
  5
1A2
  8
EXT
 10
429.3144651579786
 20
201.3578874830989
 30
0.0
 42
0.4142130000000021
  0
VERTEX
  5
1A3
  8
EXT
 10
432.6438209726103
 20
204.6459959272762
 30
0.0
  0
VERTEX
  5
1A4
  8
EXT
 10
432.7767452257367
 20
226.0233347150785
 30
0.0
 42
0.3685094739553922
  0
VERTEX
  5
1A5
  8
EXT
 10
430.2423955503095
 20
229.0327180327308
 30
0.0
  0
VERTEX
  5
1A6
  8
EXT
 10
375.6934361901736
 20
238.101372779428
 30
0.0
  0
VERTEX
  5
1A7
  8
EXT
 10
375.5903389538506
 20
221.5449881277761
 30
0.0
  0
VERTEX
  5
1A8
  8
EXT
 10
370.790432318502
 20
221.5747945992699
 30
0.0
  0
VERTEX
  5
1A9
  8
EXT
 10
370.8935300699648
 20
238.1312619772218
 30
0.0
  0
VERTEX
  5
1AA
  8
EXT
 10
316.2358635908116
 20
229.7426410391778
 30
0.0
 42
0.3685094739553797
  0
SEQEND
  5
1AB
  8
EXT
  0
POLYLINE
  5
59
  8
EXT
 66
     1
 10
0.0
 20
0.0
 30
0.0
 70
     1
  0
VERTEX
  5
1AC
  8
EXT
 10
39.19233757536903
 20
463.2853418298811
 30
0.0
 42
0.1233132048198534
  0
VERTEX
  5
1AD
  8
EXT
 10
32.56527686238381
 20
463.1536839347046
 30
0.0
 42
0.5168104109770052
  0
VERTEX
  5
1AE
  8
EXT
 10
24.90126196859665
 20
442.2573163241357
 30
0.0
  0
VERTEX
  5
1AF
  8
EXT
 10
34.38694710931573
 20
451.743032607509
 30
0.0
  0
VERTEX
  5
1B0
  8
EXT
 10
37.78100179878727
 20
448.3488633572005
 30
0.0
  0
VERTEX
  5
1B1
  8
EXT
 10
28.25217543192453
 20
438.8200057060455
 30
0.0
 42
0.1976427095948626
  0
VERTEX
  5
1B2
  8
EXT
 10
38.43752858542545
 20
436.8204530316821
 30
0.0
  0
VERTEX
  5
1B3
  8
EXT
 10
54.0085427364974
 20
439.9186116301882
 30
0.0
 42
-0.4461620348207221
  0
VERTEX
  5
1B4
  8
EXT
 10
57.66937892447837
 20
436.7250476557401
 30
0.0
 42
0.3582158581152596
  0
VERTEX
  5
1B5
  8
EXT
 10
107.5937148073818
 20
387.2395917669003
 30
0.0
 42
-0.4461620348207226
  0
VERTEX
  5
1B6
  8
EXT
 10
110.2988532580145
 20
383.628301108671
 30
0.0
  0
VERTEX
  5
1B7
  8
EXT
 10
107.2006946595083
 20
368.0572869575993
 30
0.0
 42
0.197642709594862
  0
VERTEX
  5
1B8
  8
EXT
 10
109.2002473338718
 20
357.8719338040983
 30
0.0
  0
VERTEX
  5
1B9
  8
EXT
 10
118.7291049850268
 20
367.4007601709611
 30
0.0
  0
VERTEX
  5
1BA
  8
EXT
 10
122.1232742353353
 20
364.0067054814894
 30
0.0
  0
VERTEX
  5
1BB
  8
EXT
 10
112.6375579519619
 20
354.5210203407705
 30
0.0
 42
0.5168104109770054
  0
VERTEX
  5
1BC
  8
EXT
 10
133.5339255625308
 20
362.1850352345575
 30
0.0
 42
0.1233132048198578
  0
VERTEX
  5
1BD
  8
EXT
 10
133.6655834577073
 20
368.8120959475428
 30
0.0
  0
VERTEX
  5
1BE
  8
EXT
 10
127.5823235309066
 20
395.3271811927054
 30
0.0
 42
0.1408901346620995
  0
VERTEX
  5
1BF
  8
EXT
 10
126.7711612184432
 20
396.7929211211246
 30
0.0
  0
VERTEX
  5
1C0
  8
EXT
 10
121.4240614255173
 20
402.1401381681116
 30
0.0
  0
VERTEX
  5
1C1
  8
EXT
 10
112.1340659543912
 20
392.8518840715592
 30
0.0
  0
VERTEX
  5
1C2
  8
EXT
 10
108.7398986264005
 20
396.2460064659817
 30
0.0
  0
VERTEX
  5
1C3
  8
EXT
 10
118.0288787903364
 20
405.5353233980292
 30
0.0
  0
VERTEX
  5
1C4
  8
EXT
 10
98.66914974643603
 20
424.8947961488184
 30
0.0
  0
VERTEX
  5
1C5
  8
EXT
 10
86.52180164375861
 20
412.7474480461411
 30
0.0
  0
VERTEX
  5
1C6
  8
EXT
 10
83.12766720740086
 20
416.1415375493661
 30
0.0
  0
VERTEX
  5
1C7
  8
EXT
 10
95.27498932701667
 20
428.2888596689819
 30
0.0
  0
VERTEX
  5
1C8
  8
EXT
 10
75.91495089361025
 20
447.6488699999286
 30
0.0
  0
VERTEX
  5
1C9
  8
EXT
 10
66.62588239675812
 20
438.3594651706601
 30
0.0
  0
VERTEX
  5
1CA
  8
EXT
 10
63.23178078421223
 20
441.7535218505078
 30
0.0
  0
VERTEX
  5
1CB
  8
EXT
 10
72.51974110206855
 20
451.0440280854339
 30
0.0
  0
VERTEX
  5
1CC
  8
EXT
 10
67.17316274895089
 20
456.3909195906168
 30
0.0
 42
0.1408901346620964
  0
VERTEX
  5
1CD
  8
EXT
 10
65.70742282053163
 20
457.2020819030804
 30
0.0
  0
SEQEND
  5
1CE
  8
EXT
  0
POLYLINE
  5
5A
  8
EXT
 66
     1
 10
0.0
 20
0.0
 30
0.0
 70
     1
  0
VERTEX
  5
1CF
  8
EXT
 10
344.0883457070477
 20
406.2703832127628
 30
0.0
 42
0.4142139999999973
  0
VERTEX
  5
1D0
  8
EXT
 10
339.5766496357923
 20
400.8936605945653
 30
0.0
  0
VERTEX
  5
1D1
  8
EXT
 10
342.6045548026676
 20
366.2839566973109
 30
0.0
 42
-0.4142149999999872
  0
VERTEX
  5
1D2
  8
EXT
 10
339.5967500113056
 20
362.699411288699
 30
0.0
  0
VERTEX
  5
1D3
  8
EXT
 10
318.9145859182121
 20
360.8898555286623
 30
0.0
  0
VERTEX
  5
1D4
  8
EXT
 10
319.691533037583
 20
352.0081499295843
 30
0.0
  0
VERTEX
  5
1D5
  8
EXT
 10
314.9098187718477
 20
351.5895798995051
 30
0.0
  0
VERTEX
  5
1D6
  8
EXT
 10
314.1328517976258
 20
360.4715124547972
 30
0.0
  0
VERTEX
  5
1D7
  8
EXT
 10
293.450629053537
 20
358.6620703363973
 30
0.0
 42
-0.414214
  0
VERTEX
  5
1D8
  8
EXT
 10
289.8660856659775
 20
361.669922622488
 30
0.0
  0
VERTEX
  5
1D9
  8
EXT
 10
286.8379733412428
 20
396.2796447092131
 30
0.0
 42
0.9999889999999987
  0
VERTEX
  5
1DA
  8
EXT
 10
276.9497102728162
 20
395.4144099938857
 30
0.0
  0
VERTEX
  5
1DB
  8
EXT
 10
278.9682190647841
 20
372.3413070729034
 30
0.0
 42
0.9999990000000004
  0
VERTEX
  5
1DC
  8
EXT
 10
351.4838408645366
 20
378.6856711257734
 30
0.0
  0
VERTEX
  5
1DD
  8
EXT
 10
349.4650915673466
 20
401.7585982152068
 30
0.0
 42
0.4142140000000005
  0
SEQEND
  5
1DE
  8
EXT
  0
POLYLINE
  5
5B
  8
EXT
 66
     1
 10
0.0
 20
0.0
 30
0.0
 70
     1
  0
VERTEX
  5
1DF
  8
EXT
 10
64.35587135866642
 20
16.82413907979133
 30
0.0
  0
VERTEX
  5
1E0
  8
EXT
 10
64.35635676154281
 20
13.60037919776665
 30
0.0
  0
VERTEX
  5
1E1
  8
EXT
 10
91.73513729814546
 20
13.6051401756669
 30
0.0
  0
VERTEX
  5
1E2
  8
EXT
 10
91.73445737835638
 20
29.78656170946573
 30
0.0
  0
VERTEX
  5
1E3
  8
EXT
 10
96.533989493265
 20
29.78656170946573
 30
0.0
  0
VERTEX
  5
1E4
  8
EXT
 10
96.53398949326488
 20
13.60612989600376
 30
0.0
  0
VERTEX
  5
1E5
  8
EXT
 10
123.9139179542038
 20
13.6110614696257
 30
0.0
  0
VERTEX
  5
1E6
  8
EXT
 10
123.9133588818608
 20
16.8339014144235
 30
0.0
 42
-0.4142184523631992
  0
VERTEX
  5
1E7
  8
EXT
 10
123.9122096389285
 20
20.22804152263114
 30
0.0
 42
-0.4142184523631877
  0
VERTEX
  5
1E8
  8
EXT
 10
127.3063497658502
 20
20.22913409889526
 30
0.0
  0
VERTEX
  5
1E9
  8
EXT
 10
128.8759186222061
 20
20.22938017042588
 30
0.0
  0
VERTEX
  5
1EA
  8
EXT
 10
128.8748120960795
 20
26.84710266080169
 30
0.0
 42
0.4102136578797322
  0
VERTEX
  5
1EB
  8
EXT
 10
59.39089504150013
 20
26.83461154714651
 30
0.0
  0
VERTEX
  5
1EC
  8
EXT
 10
59.39204805182965
 20
20.21697697254505
 30
0.0
  0
VERTEX
  5
1ED
  8
EXT
 10
60.9607267592752
 20
20.21721810568509
 30
0.0
 42
-0.414214484089241
  0
VERTEX
  5
1EE
  8
EXT
 10
64.35484391082518
 20
20.21825623459135
 30
0.0
 42
-0.414214484089246
  0
SEQEND
  5
1EF
  8
EXT
  0
POLYLINE
  5
5C
  8
EXT
 66
     1
 10
0.0
 20
0.0
 30
0.0
 70
     1
  0
VERTEX
  5
1F0
  8
EXT
 10
272.9636555936047
 20
177.637725303683
 30
0.0
 42
0.4142183777928421
  0
VERTEX
  5
1F1
  8
EXT
 10
272.9648600345617
 20
174.2435856466778
 30
0.0
 42
0.4142183777928486
  0
VERTEX
  5
1F2
  8
EXT
 10
276.3589996713061
 20
174.2448458901534
 30
0.0
  0
VERTEX
  5
1F3
  8
EXT
 10
277.9274065297271
 20
174.2451435112278
 30
0.0
  0
VERTEX
  5
1F4
  8
EXT
 10
277.9286191610988
 20
167.6277504523746
 30
0.0
 42
-0.4047466920070146
  0
VERTEX
  5
1F5
  8
EXT
 10
208.4448910749086
 20
167.6153038018696
 30
0.0
  0
VERTEX
  5
1F6
  8
EXT
 10
208.4437006751118
 20
174.2327261659809
 30
0.0
  0
VERTEX
  5
1F7
  8
EXT
 10
210.0128425529637
 20
174.2332475567378
 30
0.0
 42
0.414263699882146
  0
VERTEX
  5
1F8
  8
EXT
 10
213.4069740468319
 20
174.23380894051
 30
0.0
 42
0.4142636998821507
  0
VERTEX
  5
1F9
  8
EXT
 10
213.4061024807415
 20
177.6282112831466
 30
0.0
  0
VERTEX
  5
1FA
  8
EXT
 10
213.4055507747189
 20
180.8512237299083
 30
0.0
  0
VERTEX
  5
1FB
  8
EXT
 10
240.7854640777655
 20
180.8559848909747
 30
0.0
  0
VERTEX
  5
1FC
  8
EXT
 10
240.7854640777653
 20
164.6755587743071
 30
0.0
  0
VERTEX
  5
1FD
  8
EXT
 10
245.584996192674
 20
164.6755587743071
 30
0.0
  0
VERTEX
  5
1FE
  8
EXT
 10
245.5843162800436
 20
180.8568099398542
 30
0.0
  0
VERTEX
  5
1FF
  8
EXT
 10
272.9630968094876
 20
180.8617412860062
 30
0.0
  0
SEQEND
  5
200
  8
EXT
  0
POLYLINE
  5
5D
  8
EXT
 66
     1
 10
0.0
 20
0.0
 30
0.0
 70
     1
  0
VERTEX
  5
201
  8
EXT
 10
20.75402102318663
 20
315.8975198129884
 30
0.0
 42
0.9462123091762217
  0
VERTEX
  5
202
  8
EXT
 10
26.92633844267952
 20
272.8848210767507
 30
0.0
 42
0.9462130459936188
  0
VERTEX
  5
203
  8
EXT
 10
25.9936635186981
 20
316.2955461336587
 30
0.0
  0
VERTEX
  5
204
  8
EXT
 10
25.58165281014514
 20
316.2595653398063
 30
0.0
  0
VERTEX
  5
205
  8
EXT
 10
26.69971053287848
 20
303.0114418993718
 30
0.0
  0
VERTEX
  5
206
  8
EXT
 10
21.91798114164554
 20
302.5930447678359
 30
0.0
  0
SEQEND
  5
207
  8
EXT
  0
POLYLINE
  5
5E
  8
EXT
 66
     1
 10
0.0
 20
0.0
 30
0.0
 70
     1
  0
VERTEX
  5
208
  8
EXT
 10
429.4565838503304
 20
415.0929830432579
 30
0.0
 42
-0.9462123091762217
  0
VERTEX
  5
209
  8
EXT
 10
423.2842664308376
 20
372.0802843070202
 30
0.0
 42
-0.9462130459936188
  0
VERTEX
  5
20A
  8
EXT
 10
424.216941354819
 20
415.4910093639282
 30
0.0
  0
VERTEX
  5
20B
  8
EXT
 10
424.6289520633719
 20
415.4550285700758
 30
0.0
  0
VERTEX
  5
20C
  8
EXT
 10
423.5108943406387
 20
402.2069051296413
 30
0.0
  0
VERTEX
  5
20D
  8
EXT
 10
428.2926237318716
 20
401.7885079981054
 30
0.0
  0
SEQEND
  5
20E
  8
EXT
  0
POLYLINE
  5
5F
  8
EXT
 66
     1
 10
0.0
 20
0.0
 30
0.0
 70
     1
  0
VERTEX
  5
20F
  8
EXT
 10
48.08698552910132
 20
523.1003232587568
 30
0.0
  0
VERTEX
  5
210
  8
EXT
 10
51.34009950620842
 20
526.3534372358638
 30
0.0
 42
-1.0
  0
VERTEX
  5
211
  8
EXT
 10
56.14009868610028
 20
526.3534372358638
 30
0.0
  0
VERTEX
  5
212
  8
EXT
 10
57.80287824821193
 20
524.6906576737524
 30
0.0
  0
VERTEX
  5
213
  8
EXT
 10
64.52853584229378
 20
531.4163152678341
 30
0.0
  0
VERTEX
  5
214
  8
EXT
 10
48.58099492487651
 20
547.363856185251
 30
0.0
  0
VERTEX
  5
215
  8
EXT
 10
51.9751068946679
 20
550.7579681550426
 30
0.0
  0
VERTEX
  5
216
  8
EXT
 10
67.92264781208495
 20
534.8104272376254
 30
0.0
  0
VERTEX
  5
217
  8
EXT
 10
74.64830540616657
 20
541.5360848317068
 30
0.0
  0
VERTEX
  5
218
  8
EXT
 10
72.9855258440548
 20
543.1988643938187
 30
0.0
 42
-1.0
  0
VERTEX
  5
219
  8
EXT
 10
72.98552584405503
 20
547.9988635737104
 30
0.0
  0
VERTEX
  5
21A
  8
EXT
 10
76.23863982116157
 20
551.2519775508179
 30
0.0
  0
VERTEX
  5
21B
  8
EXT
 10
70.94284904446101
 20
556.5477683275185
 30
0.0
 42
-0.157118999999992
  0
VERTEX
  5
21C
  8
EXT
 10
51.64079722661697
 20
565.3214277250477
 30
0.0
  0
VERTEX
  5
21D
  8
EXT
 10
50.51057759079816
 20
564.1912080892291
 30
0.0
 42
-1.0
  0
VERTEX
  5
21E
  8
EXT
 10
47.11646562100677
 20
560.7970961194378
 30
0.0
  0
VERTEX
  5
21F
  8
EXT
 10
45.41940963611113
 20
562.4941521043336
 30
0.0
  0
VERTEX
  5
220
  8
EXT
 10
42.82916629074403
 20
559.9039087589663
 30
0.0
  0
VERTEX
  5
221
  8
EXT
 10
39.9950879483274
 20
562.7379871013827
 30
0.0
 42
-0.4142135623730547
  0
VERTEX
  5
222
  8
EXT
 10
37.59508835838147
 20
565.1379866913289
 30
0.0
 42
-0.41421356237309
  0
VERTEX
  5
223
  8
EXT
 10
39.99508794832752
 20
567.5379862812749
 30
0.0
  0
VERTEX
  5
224
  8
EXT
 10
43.99511342098163
 20
571.5380117539289
 30
0.0
  0
VERTEX
  5
225
  8
EXT
 10
42.20873870003929
 20
573.324386474872
 30
0.0
 42
0.1307806675410593
  0
VERTEX
  5
226
  8
EXT
 10
26.01457660504701
 20
557.1302243798798
 30
0.0
  0
VERTEX
  5
227
  8
EXT
 10
27.80095132598992
 20
555.3438496589374
 30
0.0
  0
VERTEX
  5
228
  8
EXT
 10
31.80097679864404
 20
559.3438751315914
 30
0.0
 42
-0.9999999999999958
  0
VERTEX
  5
229
  8
EXT
 10
36.60097597853589
 20
559.3438751315916
 30
0.0
  0
VERTEX
  5
22A
  8
EXT
 10
39.43505432095252
 20
556.5097967891747
 30
0.0
  0
VERTEX
  5
22B
  8
EXT
 10
36.84481097558542
 20
553.9195534438079
 30
0.0
  0
VERTEX
  5
22C
  8
EXT
 10
38.54186696048118
 20
552.2224974589121
 30
0.0
 42
-1.0
  0
VERTEX
  5
22D
  8
EXT
 10
35.14775499068978
 20
548.8283854891208
 30
0.0
  0
VERTEX
  5
22E
  8
EXT
 10
34.01753535487121
 20
547.698165853302
 30
0.0
 42
-0.1571189999999917
  0
VERTEX
  5
22F
  8
EXT
 10
42.79119475240076
 20
528.3961140354579
 30
0.0
  0
SEQEND
  5
230
  8
EXT
  0
POLYLINE
  5
60
  8
EXT
 66
     1
 10
0.0
 20
0.0
 30
0.0
 70
     1
  0
VERTEX
  5
231
  8
EXT
 10
14.05213903104963
 20
201.3368134741354
 30
0.0
 42
0.9121128585534554
  0
VERTEX
  5
232
  8
EXT
 10
16.45213862099556
 20
175.2842249515541
 30
0.0
 42
0.9121128585534557
  0
VERTEX
  5
233
  8
EXT
 10
18.85213821094149
 20
201.3368134741354
 30
0.0
  0
VERTEX
  5
234
  8
EXT
 10
18.85213821094149
 20
182.3579079535
 30
0.0
 42
-0.999999999999994
  0
VERTEX
  5
235
  8
EXT
 10
14.05213903104963
 20
182.3579079534999
 30
0.0
  0
SEQEND
  5
236
  8
EXT
  0
POLYLINE
  5
61
  8
EXT
 66
     1
 10
0.0
 20
0.0
 30
0.0
 70
     1
  0
VERTEX
  5
237
  8
EXT
 10
196.0914578540063
 20
213.8737262728381
 30
0.0
  0
VERTEX
  5
238
  8
EXT
 10
176.6980200473542
 20
216.9266917110734
 30
0.0
  0
VERTEX
  5
239
  8
EXT
 10
164.3304926510044
 20
218.8736200521915
 30
0.0
 42
0.0407834691502998
  0
VERTEX
  5
23A
  8
EXT
 10
96.79655948626149
 20
223.9223378332327
 30
0.0
  0
VERTEX
  5
23B
  8
EXT
 10
96.79659064408425
 20
211.8835599551323
 30
0.0
  0
VERTEX
  5
23C
  8
EXT
 10
91.9965914641561
 20
211.8835599551323
 30
0.0
  0
VERTEX
  5
23D
  8
EXT
 10
91.99656008694878
 20
223.9786429866129
 30
0.0
 42
0.0361170457615552
  0
VERTEX
  5
23E
  8
EXT
 10
51.1505363320429
 20
217.997192112625
 30
0.0
 42
0.436012264611673
  0
VERTEX
  5
23F
  8
EXT
 10
43.65312308114247
 20
205.2265288060895
 30
0.0
  0
VERTEX
  5
240
  8
EXT
 10
44.32610106497587
 20
202.983262644309
 30
0.0
  0
VERTEX
  5
241
  8
EXT
 10
56.61542701993463
 20
202.9833268384269
 30
0.0
  0
VERTEX
  5
242
  8
EXT
 10
56.61540135166011
 20
198.1833269336189
 30
0.0
  0
VERTEX
  5
243
  8
EXT
 10
45.76609550805533
 20
198.1832678674924
 30
0.0
  0
VERTEX
  5
244
  8
EXT
 10
61.94539657543322
 20
144.2521148764603
 30
0.0
  0
VERTEX
  5
245
  8
EXT
 10
97.78760409243611
 20
144.252324705209
 30
0.0
 42
0.3339710000000006
  0
VERTEX
  5
246
  8
EXT
 10
104.4050606215744
 20
134.326209237395
 30
0.0
  0
VERTEX
  5
247
  8
EXT
 10
110.6732408931863
 20
121.7898394001203
 30
0.0
 42
-0.116437999999991
  0
VERTEX
  5
248
  8
EXT
 10
111.0225715641232
 20
120.3101554497544
 30
0.0
  0
VERTEX
  5
249
  8
EXT
 10
111.0227411835881
 20
107.8561233602054
 30
0.0
 42
0.4142220000000041
  0
VERTEX
  5
24A
  8
EXT
 10
114.3316601787106
 20
104.5473952951671
 30
0.0
  0
VERTEX
  5
24B
  8
EXT
 10
196.387654399438
 20
104.547861423396
 30
0.0
 42
0.1097309999999892
  0
VERTEX
  5
24C
  8
EXT
 10
197.788536131733
 20
104.8589974632439
 30
0.0
 42
0.3385060000000007
  0
VERTEX
  5
24D
  8
EXT
 10
203.6677924863421
 20
116.1284180706057
 30
0.0
 42
0.3542949999999994
  0
VERTEX
  5
24E
  8
EXT
 10
205.3220381213923
 20
129.363543460828
 30
0.0
 42
0.414214
  0
VERTEX
  5
24F
  8
EXT
 10
203.6676541966645
 20
144.2528196514364
 30
0.0
  0
VERTEX
  5
250
  8
EXT
 10
202.3815135926119
 20
145.2433450114706
 30
0.0
  0
VERTEX
  5
251
  8
EXT
 10
187.123868024922
 20
145.2432548926749
 30
0.0
  0
VERTEX
  5
252
  8
EXT
 10
187.1237199735899
 20
150.0432818019659
 30
0.0
  0
VERTEX
  5
253
  8
EXT
 10
200.3589794995836
 20
150.0432822691184
 30
0.0
  0
VERTEX
  5
254
  8
EXT
 10
200.3583665466564
 20
208.8826149104172
 30
0.0
 42
0.3691830816068391
  0
SEQEND
  5
255
  8
EXT
  0
POLYLINE
  5
62
  8
EXT
 66
     1
 10
0.0
 20
0.0
 30
0.0
 70
     1
  0
VERTEX
  5
256
  8
EXT
 10
436.5065051240114
 20
25.14950911170644
 30
0.0
  0
VERTEX
  5
257
  8
EXT
 10
439.5594705622467
 20
44.5429469183585
 30
0.0
  0
VERTEX
  5
258
  8
EXT
 10
441.5063989033648
 20
56.9104743147084
 30
0.0
 42
0.0407834691502998
  0
VERTEX
  5
259
  8
EXT
 10
446.5551166844061
 20
124.4444074794512
 30
0.0
  0
VERTEX
  5
25A
  8
EXT
 10
434.5163388063057
 20
124.4443763216285
 30
0.0
  0
VERTEX
  5
25B
  8
EXT
 10
434.5163388063057
 20
129.2443755015566
 30
0.0
  0
VERTEX
  5
25C
  8
EXT
 10
446.6114218377862
 20
129.244406878764
 30
0.0
 42
0.0361170457615552
  0
VERTEX
  5
25D
  8
EXT
 10
440.6299709637984
 20
170.0904306336698
 30
0.0
 42
0.436012264611673
  0
VERTEX
  5
25E
  8
EXT
 10
427.859307657263
 20
177.5878438845702
 30
0.0
  0
VERTEX
  5
25F
  8
EXT
 10
425.6160414954824
 20
176.9148659007369
 30
0.0
  0
VERTEX
  5
260
  8
EXT
 10
425.6161056896003
 20
164.6255399457781
 30
0.0
  0
VERTEX
  5
261
  8
EXT
 10
420.8161057847923
 20
164.6255656140526
 30
0.0
  0
VERTEX
  5
262
  8
EXT
 10
420.8160467186658
 20
175.4748714576574
 30
0.0
  0
VERTEX
  5
263
  8
EXT
 10
366.8848937276337
 20
159.2955703902795
 30
0.0
  0
VERTEX
  5
264
  8
EXT
 10
366.8851035563824
 20
123.4533628732766
 30
0.0
 42
0.3339710000000006
  0
VERTEX
  5
265
  8
EXT
 10
356.9589880885683
 20
116.8359063441383
 30
0.0
  0
VERTEX
  5
266
  8
EXT
 10
344.4226182512937
 20
110.5677260725265
 30
0.0
 42
-0.116437999999991
  0
VERTEX
  5
267
  8
EXT
 10
342.9429343009278
 20
110.2183954015895
 30
0.0
  0
VERTEX
  5
268
  8
EXT
 10
330.4889022113788
 20
110.2182257821246
 30
0.0
 42
0.4142220000000041
  0
VERTEX
  5
269
  8
EXT
 10
327.1801741463404
 20
106.9093067870021
 30
0.0
  0
VERTEX
  5
26A
  8
EXT
 10
327.1806402745693
 20
24.85331256627475
 30
0.0
 42
0.1097309999999892
  0
VERTEX
  5
26B
  8
EXT
 10
327.4917763144172
 20
23.45243083397969
 30
0.0
 42
0.3385060000000007
  0
VERTEX
  5
26C
  8
EXT
 10
338.761196921779
 20
17.57317447937062
 30
0.0
 42
0.3542949999999994
  0
VERTEX
  5
26D
  8
EXT
 10
351.9963223120013
 20
15.91892884432046
 30
0.0
 42
0.414214
  0
VERTEX
  5
26E
  8
EXT
 10
366.8855985026098
 20
17.57331276904821
 30
0.0
  0
VERTEX
  5
26F
  8
EXT
 10
367.876123862644
 20
18.85945337310088
 30
0.0
  0
VERTEX
  5
270
  8
EXT
 10
367.8760337438483
 20
34.11709894079079
 30
0.0
  0
VERTEX
  5
271
  8
EXT
 10
372.6760606531392
 20
34.11724699212282
 30
0.0
  0
VERTEX
  5
272
  8
EXT
 10
372.6760611202917
 20
20.88198746612913
 30
0.0
  0
VERTEX
  5
273
  8
EXT
 10
431.5153937615905
 20
20.88260041905638
 30
0.0
 42
0.3691830816068391
  0
SEQEND
  5
274
  8
EXT
  0
POLYLINE
  5
63
  8
EXT
 66
     1
 10
0.0
 20
0.0
 30
0.0
 70
     1
  0
VERTEX
  5
275
  8
EXT
 10
401.8363344884136
 20
504.5411321461299
 30
0.0
  0
VERTEX
  5
276
  8
EXT
 10
242.7596447538176
 20
418.3625216125504
 30
0.0
 42
0.2734219432394097
  0
VERTEX
  5
277
  8
EXT
 10
222.2007439863286
 20
418.9201618475731
 30
0.0
  0
VERTEX
  5
278
  8
EXT
 10
68.02953307147122
 20
513.5953108905508
 30
0.0
 42
0.4142140000000006
  0
VERTEX
  5
279
  8
EXT
 10
54.37647870314202
 20
510.3310362157992
 30
0.0
 42
0.4142140000000075
  0
VERTEX
  5
27A
  8
EXT
 10
57.64075337789353
 20
496.6779818474698
 30
0.0
  0
VERTEX
  5
27B
  8
EXT
 10
211.8119646020845
 20
402.0028315799678
 30
0.0
 42
0.2734219369087645
  0
VERTEX
  5
27C
  8
EXT
 10
221.6084848741721
 20
383.9194818599673
 30
0.0
  0
VERTEX
  5
27D
  8
EXT
 10
216.703005105429
 20
203.0657218835121
 30
0.0
 42
0.4142139999999903
  0
VERTEX
  5
27E
  8
EXT
 10
226.3564780667636
 20
192.873967707115
 30
0.0
 42
0.4142139999999856
  0
VERTEX
  5
27F
  8
EXT
 10
236.5482321782448
 20
202.5274396600103
 30
0.0
  0
VERTEX
  5
280
  8
EXT
 10
241.4537119470682
 20
383.3811996394121
 30
0.0
 42
0.2734219354341425
  0
VERTEX
  5
281
  8
EXT
 10
252.2160916398639
 20
400.9069100660298
 30
0.0
  0
VERTEX
  5
282
  8
EXT
 10
411.2927818027358
 20
487.0855198711082
 30
0.0
 42
0.414214000000005
  0
VERTEX
  5
283
  8
EXT
 10
415.292364283086
 20
500.5415496657804
 30
0.0
 42
0.4142139999999928
  0
SEQEND
  5
284
  8
EXT
  0
POLYLINE
  5
64
  8
EXT
 66
     1
 10
0.0
 20
0.0
 30
0.0
 70
     1
  0
VERTEX
  5
285
  8
EXT
 10
122.0316953112787
 20
526.9201545500339
 30
0.0
  0
VERTEX
  5
286
  8
EXT
 10
122.0314376234197
 20
502.8500887911563
 30
0.0
 42
0.4142119999999961
  0
VERTEX
  5
287
  8
EXT
 10
125.340318183812
 20
499.5413639705326
 30
0.0
  0
VERTEX
  5
288
  8
EXT
 10
272.4817722365838
 20
499.541237602167
 30
0.0
  0
VERTEX
  5
289
  8
EXT
 10
272.4816633691041
 20
494.7412384223687
 30
0.0
  0
VERTEX
  5
28A
  8
EXT
 10
259.2467396484343
 20
494.7412500279278
 30
0.0
  0
VERTEX
  5
28B
  8
EXT
 10
259.2467995255265
 20
492.3727929686152
 30
0.0
 42
0.3975919999999992
  0
VERTEX
  5
28C
  8
EXT
 10
268.6068186814782
 20
482.462727968216
 30
0.0
  0
VERTEX
  5
28D
  8
EXT
 10
270.074293733676
 20
482.3787848536195
 30
0.0
 42
0.1572300000000006
  0
VERTEX
  5
28E
  8
EXT
 10
321.3193293439936
 20
495.7275786577466
 30
0.0
  0
VERTEX
  5
28F
  8
EXT
 10
322.1129905781733
 20
496.2326855625013
 30
0.0
 42
0.2432717673771282
  0
VERTEX
  5
290
  8
EXT
 10
342.0665220114425
 20
526.9201545500339
 30
0.0
  0
VERTEX
  5
291
  8
EXT
 10
278.7326005953391
 20
526.9201545500339
 30
0.0
  0
VERTEX
  5
292
  8
EXT
 10
278.732564738265
 20
531.7201537299259
 30
0.0
  0
VERTEX
  5
293
  8
EXT
 10
342.0730802617799
 20
531.7201537299259
 30
0.0
 42
0.2396075135578321
  0
VERTEX
  5
294
  8
EXT
 10
322.1130464973417
 20
562.4076893357008
 30
0.0
  0
VERTEX
  5
295
  8
EXT
 10
321.3192498133828
 20
562.9126764295022
 30
0.0
 42
0.1572290000000003
  0
VERTEX
  5
296
  8
EXT
 10
270.0744229371666
 20
576.2614041870906
 30
0.0
  0
VERTEX
  5
297
  8
EXT
 10
268.6067816203504
 20
576.1774718042288
 30
0.0
 42
0.3975860000000022
  0
VERTEX
  5
298
  8
EXT
 10
259.2467386455949
 20
566.2675901733046
 30
0.0
  0
VERTEX
  5
299
  8
EXT
 10
259.246643060301
 20
563.8989718832936
 30
0.0
  0
VERTEX
  5
29A
  8
EXT
 10
272.4817413415505
 20
563.8989774288705
 30
0.0
  0
VERTEX
  5
29B
  8
EXT
 10
272.4816314153234
 20
559.0989782489321
 30
0.0
  0
VERTEX
  5
29C
  8
EXT
 10
125.340224930273
 20
559.0989178661468
 30
0.0
 42
0.4142230000000033
  0
VERTEX
  5
29D
  8
EXT
 10
122.0314063737949
 20
555.7901601322187
 30
0.0
  0
VERTEX
  5
29E
  8
EXT
 10
122.0316283062241
 20
531.7201537299259
 30
0.0
  0
VERTEX
  5
29F
  8
EXT
 10
136.6439104194972
 20
531.7201537299259
 30
0.0
  0
VERTEX
  5
2A0
  8
EXT
 10
136.6439741330029
 20
526.9201545500339
 30
0.0
  0
SEQEND
  5
2A1
  8
EXT
  0
POLYLINE
  5
65
  8
EXT
 66
     1
 10
0.0
 20
0.0
 30
0.0
 70
     1
  0
VERTEX
  5
2A2
  8
EXT
 10
347.2497989268811
 20
292.4396899755036
 30
0.0
 42
0.0457561667208016
  0
VERTEX
  5
2A3
  8
EXT
 10
345.5937568764937
 20
305.6765729026781
 30
0.0
 42
0.7893549999999946
  0
VERTEX
  5
2A4
  8
EXT
 10
348.50989286392
 20
324.8328445625928
 30
0.0
 42
0.1415360000000004
  0
VERTEX
  5
2A5
  8
EXT
 10
253.3359390964782
 20
324.82066180227
 30
0.0
 42
0.7893609999999994
  0
VERTEX
  5
2A6
  8
EXT
 10
256.2572147415632
 20
305.665551129745
 30
0.0
 42
0.0458569999999948
  0
VERTEX
  5
2A7
  8
EXT
 10
254.6045651092841
 20
292.4298449350013
 30
0.0
  0
VERTEX
  5
2A8
  8
EXT
 10
254.6048219680446
 20
291.5314473275831
 30
0.0
  0
VERTEX
  5
2A9
  8
EXT
 10
288.9327565742652
 20
291.5317646182936
 30
0.0
  0
VERTEX
  5
2AA
  8
EXT
 10
288.9335101397122
 20
286.7317654384017
 30
0.0
  0
VERTEX
  5
2AB
  8
EXT
 10
254.6053918338895
 20
286.7314481476911
 30
0.0
  0
VERTEX
  5
2AC
  8
EXT
 10
254.6055142491922
 20
285.8129117604277
 30
0.0
 42
0.0457520000000031
  0
VERTEX
  5
2AD
  8
EXT
 10
256.2615482525662
 20
272.5779173798405
 30
0.0
 42
0.7893640000000053
  0
VERTEX
  5
2AE
  8
EXT
 10
253.3453307261425
 20
253.4220339871376
 30
0.0
 42
0.1415359999999996
  0
VERTEX
  5
2AF
  8
EXT
 10
348.5190215285479
 20
253.43425149694
 30
0.0
 42
0.7893629999999997
  0
VERTEX
  5
2B0
  8
EXT
 10
345.5978552269777
 20
272.5894044159592
 30
0.0
 42
0.0458569999999973
  0
VERTEX
  5
2B1
  8
EXT
 10
347.2503901113789
 20
285.8242260990648
 30
0.0
  0
VERTEX
  5
2B2
  8
EXT
 10
347.2505280065125
 20
286.7314481476911
 30
0.0
  0
VERTEX
  5
2B3
  8
EXT
 10
312.9219792436205
 20
286.7311308569804
 30
0.0
  0
VERTEX
  5
2B4
  8
EXT
 10
312.9212256781733
 20
291.5311300368723
 30
0.0
  0
VERTEX
  5
2B5
  8
EXT
 10
347.2497915840489
 20
291.531447327583
 30
0.0
  0
SEQEND
  5
2B6
  8
EXT
  0
ENDSEC
  0
EOF
