  0
SECTION
  2
HEADER
  9
$ACADVER
  1
AC1021
  9
$ACADMAINTVER
 70
    25
  9
$DWGCODEPAGE
  3
ANSI_1250
  9
$INSBASE
 10
0.0
 20
0.0
 30
0.0
  9
$EXTMIN
 10
-122.8828
 20
-46.1632
 30
0.0
  9
$EXTMAX
 10
122.8751
 20
46.1792
 30
0.0
  9
$LIMMIN
 10
0.0
 20
0.0
  9
$LIMMAX
 10
12.0
 20
9.0
  9
$ORTHOMODE
 70
     0
  9
$REGENMODE
 70
     1
  9
$FILLMODE
 70
     1
  9
$QTEXTMODE
 70
     0
  9
$MIRRTEXT
 70
     1
  9
$LTSCALE
 40
1.0
  9
$ATTMODE
 70
     1
  9
$TEXTSIZE
 40
0.2
  9
$TRACEWID
 40
0.05
  9
$TEXTSTYLE
  7
Standard
  9
$CLAYER
  8
0
  9
$CELTYPE
  6
ByLayer
  9
$CECOLOR
 62
   256
  9
$CELTSCALE
 40
1.0
  9
$DISPSILH
 70
     0
  9
$DIMSCALE
 40
1.0
  9
$DIMASZ
 40
0.18
  9
$DIMEXO
 40
0.0625
  9
$DIMDLI
 40
0.38
  9
$DIMRND
 40
0.0
  9
$DIMDLE
 40
0.0
  9
$DIMEXE
 40
0.18
  9
$DIMTP
 40
0.0
  9
$DIMTM
 40
0.0
  9
$DIMTXT
 40
0.18
  9
$DIMCEN
 40
0.09
  9
$DIMTSZ
 40
0.0
  9
$DIMTOL
 70
     0
  9
$DIMLIM
 70
     0
  9
$DIMTIH
 70
     1
  9
$DIMTOH
 70
     1
  9
$DIMSE1
 70
     0
  9
$DIMSE2
 70
     0
  9
$DIMTAD
 70
     0
  9
$DIMZIN
 70
     0
  9
$DIMBLK
  1

  9
$DIMASO
 70
     1
  9
$DIMSHO
 70
     1
  9
$DIMPOST
  1

  9
$DIMAPOST
  1

  9
$DIMALT
 70
     0
  9
$DIMALTD
 70
     2
  9
$DIMALTF
 40
25.4
  9
$DIMLFAC
 40
1.0
  9
$DIMTOFL
 70
     0
  9
$DIMTVP
 40
0.0
  9
$DIMTIX
 70
     0
  9
$DIMSOXD
 70
     0
  9
$DIMSAH
 70
     0
  9
$DIMBLK1
  1

  9
$DIMBLK2
  1

  9
$DIMSTYLE
  2
Standard
  9
$DIMCLRD
 70
     0
  9
$DIMCLRE
 70
     0
  9
$DIMCLRT
 70
     0
  9
$DIMTFAC
 40
1.0
  9
$DIMGAP
 40
0.09
  9
$DIMJUST
 70
     0
  9
$DIMSD1
 70
     0
  9
$DIMSD2
 70
     0
  9
$DIMTOLJ
 70
     1
  9
$DIMTZIN
 70
     0
  9
$DIMALTZ
 70
     0
  9
$DIMALTTZ
 70
     0
  9
$DIMUPT
 70
     0
  9
$DIMDEC
 70
     4
  9
$DIMTDEC
 70
     4
  9
$DIMALTU
 70
     2
  9
$DIMALTTD
 70
     2
  9
$DIMTXSTY
  7
Standard
  9
$DIMAUNIT
 70
     0
  9
$DIMADEC
 70
     0
  9
$DIMALTRND
 40
0.0
  9
$DIMAZIN
 70
     0
  9
$DIMDSEP
 70
    46
  9
$DIMATFIT
 70
     3
  9
$DIMFRAC
 70
     0
  9
$DIMLDRBLK
  1

  9
$DIMLUNIT
 70
     2
  9
$DIMLWD
 70
    -2
  9
$DIMLWE
 70
    -2
  9
$DIMTMOVE
 70
     0
  9
$DIMFXL
 40
1.0
  9
$DIMFXLON
 70
     0
  9
$DIMJOGANG
 40
0.7853981633974483
  9
$DIMTFILL
 70
     0
  9
$DIMTFILLCLR
 70
     0
  9
$DIMARCSYM
 70
     0
  9
$DIMLTYPE
  6

  9
$DIMLTEX1
  6

  9
$DIMLTEX2
  6

  9
$LUNITS
 70
     2
  9
$LUPREC
 70
     4
  9
$SKETCHINC
 40
0.1
  9
$FILLETRAD
 40
0.5
  9
$AUNITS
 70
     0
  9
$AUPREC
 70
     0
  9
$MENU
  1
.
  9
$ELEVATION
 40
0.0
  9
$PELEVATION
 40
0.0
  9
$THICKNESS
 40
0.0
  9
$LIMCHECK
 70
     0
  9
$CHAMFERA
 40
0.5
  9
$CHAMFERB
 40
0.5
  9
$CHAMFERC
 40
1.0
  9
$CHAMFERD
 40
0.0
  9
$SKPOLY
 70
     0
  9
$TDCREATE
 40
2457429.848388843
  9
$TDUCREATE
 40
2457429.806722176
  9
$TDUPDATE
 40
2457429.848388854
  9
$TDUUPDATE
 40
2457429.806722187
  9
$TDINDWG
 40
0.0000000116
  9
$TDUSRTIMER
 40
0.0000000116
  9
$USRTIMER
 70
     1
  9
$ANGBASE
 50
0.0
  9
$ANGDIR
 70
     0
  9
$PDMODE
 70
     0
  9
$PDSIZE
 40
0.0
  9
$PLINEWID
 40
0.0
  9
$SPLFRAME
 70
     0
  9
$SPLINETYPE
 70
     6
  9
$SPLINESEGS
 70
     8
  9
$HANDSEED
  5
91
  9
$SURFTAB1
 70
     6
  9
$SURFTAB2
 70
     6
  9
$SURFTYPE
 70
     6
  9
$SURFU
 70
     6
  9
$SURFV
 70
     6
  9
$UCSBASE
  2

  9
$UCSNAME
  2

  9
$UCSORG
 10
0.0
 20
0.0
 30
0.0
  9
$UCSXDIR
 10
1.0
 20
0.0
 30
0.0
  9
$UCSYDIR
 10
0.0
 20
1.0
 30
0.0
  9
$UCSORTHOREF
  2

  9
$UCSORTHOVIEW
 70
     0
  9
$UCSORGTOP
 10
0.0
 20
0.0
 30
0.0
  9
$UCSORGBOTTOM
 10
0.0
 20
0.0
 30
0.0
  9
$UCSORGLEFT
 10
0.0
 20
0.0
 30
0.0
  9
$UCSORGRIGHT
 10
0.0
 20
0.0
 30
0.0
  9
$UCSORGFRONT
 10
0.0
 20
0.0
 30
0.0
  9
$UCSORGBACK
 10
0.0
 20
0.0
 30
0.0
  9
$PUCSBASE
  2

  9
$PUCSNAME
  2

  9
$PUCSORG
 10
0.0
 20
0.0
 30
0.0
  9
$PUCSXDIR
 10
1.0
 20
0.0
 30
0.0
  9
$PUCSYDIR
 10
0.0
 20
1.0
 30
0.0
  9
$PUCSORTHOREF
  2

  9
$PUCSORTHOVIEW
 70
     0
  9
$PUCSORGTOP
 10
0.0
 20
0.0
 30
0.0
  9
$PUCSORGBOTTOM
 10
0.0
 20
0.0
 30
0.0
  9
$PUCSORGLEFT
 10
0.0
 20
0.0
 30
0.0
  9
$PUCSORGRIGHT
 10
0.0
 20
0.0
 30
0.0
  9
$PUCSORGFRONT
 10
0.0
 20
0.0
 30
0.0
  9
$PUCSORGBACK
 10
0.0
 20
0.0
 30
0.0
  9
$USERI1
 70
     0
  9
$USERI2
 70
     0
  9
$USERI3
 70
     0
  9
$USERI4
 70
     0
  9
$USERI5
 70
     0
  9
$USERR1
 40
0.0
  9
$USERR2
 40
0.0
  9
$USERR3
 40
0.0
  9
$USERR4
 40
0.0
  9
$USERR5
 40
0.0
  9
$WORLDVIEW
 70
     1
  9
$SHADEDGE
 70
     3
  9
$SHADEDIF
 70
    70
  9
$TILEMODE
 70
     1
  9
$MAXACTVP
 70
    64
  9
$PINSBASE
 10
0.0
 20
0.0
 30
0.0
  9
$PLIMCHECK
 70
     0
  9
$PEXTMIN
 10
1.000000000000000E+20
 20
1.000000000000000E+20
 30
1.000000000000000E+20
  9
$PEXTMAX
 10
-1.000000000000000E+20
 20
-1.000000000000000E+20
 30
-1.000000000000000E+20
  9
$PLIMMIN
 10
0.0
 20
0.0
  9
$PLIMMAX
 10
12.0
 20
9.0
  9
$UNITMODE
 70
     0
  9
$VISRETAIN
 70
     1
  9
$PLINEGEN
 70
     0
  9
$PSLTSCALE
 70
     1
  9
$TREEDEPTH
 70
  3020
  9
$CMLSTYLE
  2
Standard
  9
$CMLJUST
 70
     0
  9
$CMLSCALE
 40
1.0
  9
$PROXYGRAPHICS
 70
     1
  9
$MEASUREMENT
 70
     0
  9
$CELWEIGHT
370
    -1
  9
$ENDCAPS
280
     0
  9
$JOINSTYLE
280
     0
  9
$LWDISPLAY
290
     0
  9
$INSUNITS
 70
     4
  9
$HYPERLINKBASE
  1

  9
$STYLESHEET
  1

  9
$XEDIT
290
     1
  9
$CEPSNTYPE
380
     0
  9
$PSTYLEMODE
290
     1
  9
$FINGERPRINTGUID
  2
{15CFE663-A023-4C28-A758-320DB023469E}
  9
$VERSIONGUID
  2
{FAEB1C32-E019-11D5-929B-00C0DF256EC4}
  9
$EXTNAMES
290
     1
  9
$PSVPSCALE
 40
0.0
  9
$OLESTARTUP
290
     0
  9
$SORTENTS
280
   127
  9
$INDEXCTL
280
     0
  9
$HIDETEXT
280
     1
  9
$XCLIPFRAME
290
     0
  9
$HALOGAP
280
     0
  9
$OBSCOLOR
 70
   257
  9
$OBSLTYPE
280
     0
  9
$INTERSECTIONDISPLAY
280
     0
  9
$INTERSECTIONCOLOR
 70
   257
  9
$DIMASSOC
280
     2
  9
$PROJECTNAME
  1

  9
$CAMERADISPLAY
290
     0
  9
$LENSLENGTH
 40
50.0
  9
$CAMERAHEIGHT
 40
0.0
  9
$STEPSPERSEC
 40
2.0
  9
$STEPSIZE
 40
6.0
  9
$3DDWFPREC
 40
2.0
  9
$PSOLWIDTH
 40
0.25
  9
$PSOLHEIGHT
 40
4.0
  9
$LOFTANG1
 40
1.570796326794897
  9
$LOFTANG2
 40
1.570796326794897
  9
$LOFTMAG1
 40
0.0
  9
$LOFTMAG2
 40
0.0
  9
$LOFTPARAM
 70
     7
  9
$LOFTNORMALS
280
     1
  9
$LATITUDE
 40
37.795
  9
$LONGITUDE
 40
-122.394
  9
$NORTHDIRECTION
 40
0.0
  9
$TIMEZONE
 70
 -8000
  9
$LIGHTGLYPHDISPLAY
280
     1
  9
$TILEMODELIGHTSYNCH
280
     1
  9
$SOLIDHIST
280
     1
  9
$SHOWHIST
280
     1
  9
$DWFFRAME
280
     2
  9
$DGNFRAME
280
     2
  9
$REALWORLDSCALE
290
     1
  9
$INTERFERECOLOR
 62
   256
  9
$CSHADOW
280
     0
  9
$SHADOWPLANELOCATION
 40
0.0
  0
ENDSEC
  0
SECTION
  2
CLASSES
  0
CLASS
  1
ACDBDICTIONARYWDFLT
  2
AcDbDictionaryWithDefault
  3
ObjectDBX Classes
 90
        0
 91
        4
280
     0
281
     0
  0
CLASS
  1
VISUALSTYLE
  2
AcDbVisualStyle
  3
ObjectDBX Classes
 90
     4095
 91
        4
280
     0
281
     0
  0
CLASS
  1
MATERIAL
  2
AcDbMaterial
  3
ObjectDBX Classes
 90
     1153
 91
        4
280
     0
281
     0
  0
ENDSEC
  0
SECTION
  2
TABLES
  0
TABLE
  2
VPORT
  5
8
330
0
100
AcDbSymbolTable
 70
     1
  0
VPORT
  5
29
330
8
100
AcDbSymbolTableRecord
100
AcDbViewportTableRecord
  2
*Active
 70
     0
 10
0.0
 20
0.0
 11
1.0
 21
1.0
 12
10.42990654205607
 22
4.5
 13
0.0
 23
0.0
 14
0.5
 24
0.5
 15
0.5
 25
0.5
 16
0.0
 26
0.0
 36
1.0
 17
0.0
 27
0.0
 37
0.0
 40
9.0
 41
1.972972972850329
 42
50.0
 43
0.0
 44
0.0
 50
0.0
 51
0.0
 71
     0
 72
   100
 73
     1
 74
     3
 75
     0
 76
     0
 77
     0
 78
     0
281
     0
 65
     1
110
0.0
120
0.0
130
0.0
111
1.0
121
0.0
131
0.0
112
0.0
122
1.0
132
0.0
 79
     0
146
0.0
 60
     3
 61
     5
292
     1
282
     1
141
0.0
142
0.0
 63
   250
  0
ENDTAB
  0
TABLE
  2
LTYPE
  5
5
330
0
100
AcDbSymbolTable
 70
     1
  0
LTYPE
  5
14
330
5
100
AcDbSymbolTableRecord
100
AcDbLinetypeTableRecord
  2
ByBlock
 70
     0
  3

 72
    65
 73
     0
 40
0.0
  0
LTYPE
  5
15
330
5
100
AcDbSymbolTableRecord
100
AcDbLinetypeTableRecord
  2
ByLayer
 70
     0
  3

 72
    65
 73
     0
 40
0.0
  0
LTYPE
  5
16
330
5
100
AcDbSymbolTableRecord
100
AcDbLinetypeTableRecord
  2
Continuous
 70
     0
  3
Solid line
 72
    65
 73
     0
 40
0.0
  0
ENDTAB
  0
TABLE
  2
LAYER
  5
2
330
0
100
AcDbSymbolTable
 70
     2
  0
LAYER
  5
10
330
2
100
AcDbSymbolTableRecord
100
AcDbLayerTableRecord
  2
0
 70
     0
 62
     7
  6
Continuous
370
    -3
390
F
347
3E
  0
LAYER
  5
40
330
2
100
AcDbSymbolTableRecord
100
AcDbLayerTableRecord
  2
Vrstva 1
 70
     0
 62
     7
  6
Continuous
370
    -3
390
F
347
3E
  0
ENDTAB
  0
TABLE
  2
STYLE
  5
3
330
0
100
AcDbSymbolTable
 70
     1
  0
STYLE
  5
11
330
3
100
AcDbSymbolTableRecord
100
AcDbTextStyleTableRecord
  2
Standard
 70
     0
 40
0.0
 41
1.0
 50
0.0
 71
     0
 42
0.2
  3
txt
  4

  0
ENDTAB
  0
TABLE
  2
VIEW
  5
6
330
0
100
AcDbSymbolTable
 70
     0
  0
ENDTAB
  0
TABLE
  2
UCS
  5
7
330
0
100
AcDbSymbolTable
 70
     0
  0
ENDTAB
  0
TABLE
  2
APPID
  5
9
330
0
100
AcDbSymbolTable
 70
     2
  0
APPID
  5
12
330
9
100
AcDbSymbolTableRecord
100
AcDbRegAppTableRecord
  2
ACAD
 70
     0
  0
APPID
  5
3F
330
9
100
AcDbSymbolTableRecord
100
AcDbRegAppTableRecord
  2
ODA
 70
     0
  0
ENDTAB
  0
TABLE
  2
DIMSTYLE
  5
A
330
0
100
AcDbSymbolTable
 70
     1
100
AcDbDimStyleTable
  0
DIMSTYLE
105
27
330
A
100
AcDbSymbolTableRecord
100
AcDbDimStyleTableRecord
  2
Standard
 70
     0
178
     0
340
11
  0
ENDTAB
  0
TABLE
  2
BLOCK_RECORD
  5
1
330
0
100
AcDbSymbolTable
 70
     1
  0
BLOCK_RECORD
  5
1F
330
1
100
AcDbSymbolTableRecord
100
AcDbBlockTableRecord
  2
*Model_Space
340
22
 70
     0
280
     1
281
     0
  0
BLOCK_RECORD
  5
1B
330
1
100
AcDbSymbolTableRecord
100
AcDbBlockTableRecord
  2
*Paper_Space
340
1E
 70
     0
280
     1
281
     0
  0
BLOCK_RECORD
  5
23
330
1
100
AcDbSymbolTableRecord
100
AcDbBlockTableRecord
  2
*Paper_Space0
340
26
 70
     0
280
     1
281
     0
  0
ENDTAB
  0
ENDSEC
  0
SECTION
  2
BLOCKS
  0
BLOCK
  5
20
330
1F
100
AcDbEntity
  8
0
100
AcDbBlockBegin
  2
*Model_Space
 70
     0
 10
0.0
 20
0.0
 30
0.0
  3
*Model_Space
  1

  0
ENDBLK
  5
21
330
1F
100
AcDbEntity
  8
0
100
AcDbBlockEnd
  0
BLOCK
  5
1C
330
1B
100
AcDbEntity
 67
     1
  8
0
100
AcDbBlockBegin
  2
*Paper_Space
 70
     0
 10
0.0
 20
0.0
 30
0.0
  3
*Paper_Space
  1

  0
ENDBLK
  5
1D
330
1B
100
AcDbEntity
 67
     1
  8
0
100
AcDbBlockEnd
  0
BLOCK
  5
24
330
23
100
AcDbEntity
  8
0
100
AcDbBlockBegin
  2
*Paper_Space0
 70
     0
 10
0.0
 20
0.0
 30
0.0
  3
*Paper_Space0
  1

  0
ENDBLK
  5
25
330
23
100
AcDbEntity
  8
0
100
AcDbBlockEnd
  0
ENDSEC
  0
SECTION
  2
ENTITIES
  0
SPLINE
  5
41
330
1F
100
AcDbEntity
  8
Vrstva 1
 62
   242
370
     9
100
AcDbSpline
210
0.0
220
0.0
230
1.0
 70
    11
 71
     3
 72
   404
 73
   400
 74
     0
 42
0.0000000001
 43
0.0000000001
 40
0.0
 40
0.0
 40
0.0
 40
0.0
 40
0.0099009900990099
 40
0.0099009900990099
 40
0.0099009900990099
 40
0.0099009900990099
 40
0.0198019801980198
 40
0.0198019801980198
 40
0.0198019801980198
 40
0.0198019801980198
 40
0.0297029702970297
 40
0.0297029702970297
 40
0.0297029702970297
 40
0.0297029702970297
 40
0.0396039603960396
 40
0.0396039603960396
 40
0.0396039603960396
 40
0.0396039603960396
 40
0.0495049504950495
 40
0.0495049504950495
 40
0.0495049504950495
 40
0.0495049504950495
 40
0.0594059405940594
 40
0.0594059405940594
 40
0.0594059405940594
 40
0.0594059405940594
 40
0.0693069306930693
 40
0.0693069306930693
 40
0.0693069306930693
 40
0.0693069306930693
 40
0.0792079207920792
 40
0.0792079207920792
 40
0.0792079207920792
 40
0.0792079207920792
 40
0.0891089108910891
 40
0.0891089108910891
 40
0.0891089108910891
 40
0.0891089108910891
 40
0.099009900990099
 40
0.099009900990099
 40
0.099009900990099
 40
0.099009900990099
 40
0.1089108910891089
 40
0.1089108910891089
 40
0.1089108910891089
 40
0.1089108910891089
 40
0.1188118811881188
 40
0.1188118811881188
 40
0.1188118811881188
 40
0.1188118811881188
 40
0.1287128712871287
 40
0.1287128712871287
 40
0.1287128712871287
 40
0.1287128712871287
 40
0.1386138613861386
 40
0.1386138613861386
 40
0.1386138613861386
 40
0.1386138613861386
 40
0.1485148514851485
 40
0.1485148514851485
 40
0.1485148514851485
 40
0.1485148514851485
 40
0.1584158415841584
 40
0.1584158415841584
 40
0.1584158415841584
 40
0.1584158415841584
 40
0.1683168316831683
 40
0.1683168316831683
 40
0.1683168316831683
 40
0.1683168316831683
 40
0.1782178217821782
 40
0.1782178217821782
 40
0.1782178217821782
 40
0.1782178217821782
 40
0.1881188118811881
 40
0.1881188118811881
 40
0.1881188118811881
 40
0.1881188118811881
 40
0.198019801980198
 40
0.198019801980198
 40
0.198019801980198
 40
0.198019801980198
 40
0.2079207920792079
 40
0.2079207920792079
 40
0.2079207920792079
 40
0.2079207920792079
 40
0.2178217821782178
 40
0.2178217821782178
 40
0.2178217821782178
 40
0.2178217821782178
 40
0.2277227722772277
 40
0.2277227722772277
 40
0.2277227722772277
 40
0.2277227722772277
 40
0.2376237623762376
 40
0.2376237623762376
 40
0.2376237623762376
 40
0.2376237623762376
 40
0.2475247524752475
 40
0.2475247524752475
 40
0.2475247524752475
 40
0.2475247524752475
 40
0.2574257425742574
 40
0.2574257425742574
 40
0.2574257425742574
 40
0.2574257425742574
 40
0.2673267326732673
 40
0.2673267326732673
 40
0.2673267326732673
 40
0.2673267326732673
 40
0.2772277227722773
 40
0.2772277227722773
 40
0.2772277227722773
 40
0.2772277227722773
 40
0.2871287128712871
 40
0.2871287128712871
 40
0.2871287128712871
 40
0.2871287128712871
 40
0.297029702970297
 40
0.297029702970297
 40
0.297029702970297
 40
0.297029702970297
 40
0.3069306930693069
 40
0.3069306930693069
 40
0.3069306930693069
 40
0.3069306930693069
 40
0.3168316831683168
 40
0.3168316831683168
 40
0.3168316831683168
 40
0.3168316831683168
 40
0.3267326732673267
 40
0.3267326732673267
 40
0.3267326732673267
 40
0.3267326732673267
 40
0.3366336633663367
 40
0.3366336633663367
 40
0.3366336633663367
 40
0.3366336633663367
 40
0.3465346534653465
 40
0.3465346534653465
 40
0.3465346534653465
 40
0.3465346534653465
 40
0.3564356435643564
 40
0.3564356435643564
 40
0.3564356435643564
 40
0.3564356435643564
 40
0.3663366336633663
 40
0.3663366336633663
 40
0.3663366336633663
 40
0.3663366336633663
 40
0.3762376237623762
 40
0.3762376237623762
 40
0.3762376237623762
 40
0.3762376237623762
 40
0.3861386138613861
 40
0.3861386138613861
 40
0.3861386138613861
 40
0.3861386138613861
 40
0.3960396039603961
 40
0.3960396039603961
 40
0.3960396039603961
 40
0.3960396039603961
 40
0.405940594059406
 40
0.405940594059406
 40
0.405940594059406
 40
0.405940594059406
 40
0.4158415841584158
 40
0.4158415841584158
 40
0.4158415841584158
 40
0.4158415841584158
 40
0.4257425742574257
 40
0.4257425742574257
 40
0.4257425742574257
 40
0.4257425742574257
 40
0.4356435643564356
 40
0.4356435643564356
 40
0.4356435643564356
 40
0.4356435643564356
 40
0.4455445544554456
 40
0.4455445544554456
 40
0.4455445544554456
 40
0.4455445544554456
 40
0.4554455445544555
 40
0.4554455445544555
 40
0.4554455445544555
 40
0.4554455445544555
 40
0.4653465346534654
 40
0.4653465346534654
 40
0.4653465346534654
 40
0.4653465346534654
 40
0.4752475247524752
 40
0.4752475247524752
 40
0.4752475247524752
 40
0.4752475247524752
 40
0.4851485148514851
 40
0.4851485148514851
 40
0.4851485148514851
 40
0.4851485148514851
 40
0.495049504950495
 40
0.495049504950495
 40
0.495049504950495
 40
0.495049504950495
 40
0.504950495049505
 40
0.504950495049505
 40
0.504950495049505
 40
0.504950495049505
 40
0.5148514851485149
 40
0.5148514851485149
 40
0.5148514851485149
 40
0.5148514851485149
 40
0.5247524752475248
 40
0.5247524752475248
 40
0.5247524752475248
 40
0.5247524752475248
 40
0.5346534653465347
 40
0.5346534653465347
 40
0.5346534653465347
 40
0.5346534653465347
 40
0.5445544554455446
 40
0.5445544554455446
 40
0.5445544554455446
 40
0.5445544554455446
 40
0.5544554455445545
 40
0.5544554455445545
 40
0.5544554455445545
 40
0.5544554455445545
 40
0.5643564356435643
 40
0.5643564356435643
 40
0.5643564356435643
 40
0.5643564356435643
 40
0.5742574257425742
 40
0.5742574257425742
 40
0.5742574257425742
 40
0.5742574257425742
 40
0.5841584158415841
 40
0.5841584158415841
 40
0.5841584158415841
 40
0.5841584158415841
 40
0.594059405940594
 40
0.594059405940594
 40
0.594059405940594
 40
0.594059405940594
 40
0.6039603960396039
 40
0.6039603960396039
 40
0.6039603960396039
 40
0.6039603960396039
 40
0.6138613861386139
 40
0.6138613861386139
 40
0.6138613861386139
 40
0.6138613861386139
 40
0.6237623762376238
 40
0.6237623762376238
 40
0.6237623762376238
 40
0.6237623762376238
 40
0.6336633663366337
 40
0.6336633663366337
 40
0.6336633663366337
 40
0.6336633663366337
 40
0.6435643564356436
 40
0.6435643564356436
 40
0.6435643564356436
 40
0.6435643564356436
 40
0.6534653465346535
 40
0.6534653465346535
 40
0.6534653465346535
 40
0.6534653465346535
 40
0.6633663366336634
 40
0.6633663366336634
 40
0.6633663366336634
 40
0.6633663366336634
 40
0.6732673267326733
 40
0.6732673267326733
 40
0.6732673267326733
 40
0.6732673267326733
 40
0.6831683168316832
 40
0.6831683168316832
 40
0.6831683168316832
 40
0.6831683168316832
 40
0.693069306930693
 40
0.693069306930693
 40
0.693069306930693
 40
0.693069306930693
 40
0.7029702970297029
 40
0.7029702970297029
 40
0.7029702970297029
 40
0.7029702970297029
 40
0.7128712871287128
 40
0.7128712871287128
 40
0.7128712871287128
 40
0.7128712871287128
 40
0.7227722772277227
 40
0.7227722772277227
 40
0.7227722772277227
 40
0.7227722772277227
 40
0.7326732673267327
 40
0.7326732673267327
 40
0.7326732673267327
 40
0.7326732673267327
 40
0.7425742574257426
 40
0.7425742574257426
 40
0.7425742574257426
 40
0.7425742574257426
 40
0.7524752475247525
 40
0.7524752475247525
 40
0.7524752475247525
 40
0.7524752475247525
 40
0.7623762376237624
 40
0.7623762376237624
 40
0.7623762376237624
 40
0.7623762376237624
 40
0.7722772277227723
 40
0.7722772277227723
 40
0.7722772277227723
 40
0.7722772277227723
 40
0.7821782178217822
 40
0.7821782178217822
 40
0.7821782178217822
 40
0.7821782178217822
 40
0.7920792079207921
 40
0.7920792079207921
 40
0.7920792079207921
 40
0.7920792079207921
 40
0.801980198019802
 40
0.801980198019802
 40
0.801980198019802
 40
0.801980198019802
 40
0.8118811881188119
 40
0.8118811881188119
 40
0.8118811881188119
 40
0.8118811881188119
 40
0.8217821782178217
 40
0.8217821782178217
 40
0.8217821782178217
 40
0.8217821782178217
 40
0.8316831683168316
 40
0.8316831683168316
 40
0.8316831683168316
 40
0.8316831683168316
 40
0.8415841584158416
 40
0.8415841584158416
 40
0.8415841584158416
 40
0.8415841584158416
 40
0.8514851485148515
 40
0.8514851485148515
 40
0.8514851485148515
 40
0.8514851485148515
 40
0.8613861386138614
 40
0.8613861386138614
 40
0.8613861386138614
 40
0.8613861386138614
 40
0.8712871287128713
 40
0.8712871287128713
 40
0.8712871287128713
 40
0.8712871287128713
 40
0.8811881188118812
 40
0.8811881188118812
 40
0.8811881188118812
 40
0.8811881188118812
 40
0.8910891089108911
 40
0.8910891089108911
 40
0.8910891089108911
 40
0.8910891089108911
 40
0.900990099009901
 40
0.900990099009901
 40
0.900990099009901
 40
0.900990099009901
 40
0.9108910891089109
 40
0.9108910891089109
 40
0.9108910891089109
 40
0.9108910891089109
 40
0.9207920792079208
 40
0.9207920792079208
 40
0.9207920792079208
 40
0.9207920792079208
 40
0.9306930693069307
 40
0.9306930693069307
 40
0.9306930693069307
 40
0.9306930693069307
 40
0.9405940594059405
 40
0.9405940594059405
 40
0.9405940594059405
 40
0.9405940594059405
 40
0.9504950495049505
 40
0.9504950495049505
 40
0.9504950495049505
 40
0.9504950495049505
 40
0.9603960396039604
 40
0.9603960396039604
 40
0.9603960396039604
 40
0.9603960396039604
 40
0.9702970297029703
 40
0.9702970297029703
 40
0.9702970297029703
 40
0.9702970297029703
 40
0.9801980198019802
 40
0.9801980198019802
 40
0.9801980198019802
 40
0.9801980198019802
 40
1.0
 40
1.0
 40
1.0
 40
1.0
 10
-38.3511
 20
16.8553
 30
0.0
 10
-38.1437
 20
18.5625
 30
0.0
 10
-39.1885
 20
20.173
 30
0.0
 10
-40.8319
 20
20.6795
 30
0.0
 10
-40.8319
 20
20.6795
 30
0.0
 10
-40.9371
 20
20.7119
 30
0.0
 10
-41.0405
 20
20.7488
 30
0.0
 10
-41.1425
 20
20.7904
 30
0.0
 10
-41.1425
 20
20.7904
 30
0.0
 10
-41.3136
 20
20.8603
 30
0.0
 10
-41.4806
 20
20.9432
 30
0.0
 10
-41.64
 20
21.0379
 30
0.0
 10
-41.64
 20
21.0379
 30
0.0
 10
-41.805
 20
21.1361
 30
0.0
 10
-41.9616
 20
21.247
 30
0.0
 10
-42.1065
 20
21.3723
 30
0.0
 10
-42.1065
 20
21.3723
 30
0.0
 10
-42.2515
 20
21.4977
 30
0.0
 10
-42.3846
 20
21.6375
 30
0.0
 10
-42.498
 20
21.7921
 30
0.0
 10
-42.498
 20
21.7921
 30
0.0
 10
-42.5812
 20
21.9053
 30
0.0
 10
-42.6643
 20
22.0185
 30
0.0
 10
-42.7475
 20
22.1317
 30
0.0
 10
-42.7475
 20
22.1317
 30
0.0
 10
-43.0057
 20
22.4834
 30
0.0
 10
-43.1953
 20
22.8806
 30
0.0
 10
-43.3457
 20
23.2913
 30
0.0
 10
-43.3457
 20
23.2913
 30
0.0
 10
-43.5166
 20
23.7582
 30
0.0
 10
-43.6369
 20
24.2427
 30
0.0
 10
-43.6519
 20
24.7395
 30
0.0
 10
-43.6519
 20
24.7395
 30
0.0
 10
-43.6637
 20
25.125
 30
0.0
 10
-43.612
 20
25.5178
 30
0.0
 10
-43.4528
 20
25.8669
 30
0.0
 10
-43.4528
 20
25.8669
 30
0.0
 10
-43.3226
 20
26.1519
 30
0.0
 10
-43.1206
 20
26.4078
 30
0.0
 10
-42.8673
 20
26.5938
 30
0.0
 10
-42.8673
 20
26.5938
 30
0.0
 10
-42.6787
 20
26.7322
 30
0.0
 10
-42.4903
 20
26.8707
 30
0.0
 10
-42.3018
 20
27.0091
 30
0.0
 10
-42.3018
 20
27.0091
 30
0.0
 10
-41.9959
 20
27.2336
 30
0.0
 10
-41.6157
 20
27.3467
 30
0.0
 10
-41.2364
 20
27.3549
 30
0.0
 10
-41.2364
 20
27.3549
 30
0.0
 10
-40.9011
 20
27.3624
 30
0.0
 10
-40.5667
 20
27.288
 30
0.0
 10
-40.2518
 20
27.1717
 30
0.0
 10
-40.2518
 20
27.1717
 30
0.0
 10
-40.0003
 20
27.0791
 30
0.0
 10
-39.7614
 20
26.9594
 30
0.0
 10
-39.5328
 20
26.8196
 30
0.0
 10
-39.5328
 20
26.8196
 30
0.0
 10
-39.1481
 20
26.5844
 30
0.0
 10
-38.793
 20
26.2915
 30
0.0
 10
-38.5263
 20
25.9283
 30
0.0
 10
-38.5263
 20
25.9283
 30
0.0
 10
-38.3045
 20
25.6262
 30
0.0
 10
-38.0826
 20
25.3243
 30
0.0
 10
-37.8609
 20
25.0223
 30
0.0
 10
-37.8609
 20
25.0223
 30
0.0
 10
-37.7012
 20
24.8049
 30
0.0
 10
-37.5849
 20
24.5583
 30
0.0
 10
-37.5035
 20
24.3006
 30
0.0
 10
-37.5035
 20
24.3006
 30
0.0
 10
-37.2339
 20
23.4478
 30
0.0
 10
-36.132
 20
23.2239
 30
0.0
 10
-35.5509
 20
23.9038
 30
0.0
 10
-35.5509
 20
23.9038
 30
0.0
 10
-34.9699
 20
24.5835
 30
0.0
 10
-35.3627
 20
25.6372
 30
0.0
 10
-36.2469
 20
25.7706
 30
0.0
 10
-36.2469
 20
25.7706
 30
0.0
 10
-36.5595
 20
25.8179
 30
0.0
 10
-36.8652
 20
25.9162
 30
0.0
 10
-37.1473
 20
26.0572
 30
0.0
 10
-37.1473
 20
26.0572
 30
0.0
 10
-37.623
 20
26.2947
 30
0.0
 10
-38.0316
 20
26.6531
 30
0.0
 10
-38.3755
 20
27.0608
 30
0.0
 10
-38.3755
 20
27.0608
 30
0.0
 10
-38.7014
 20
27.4475
 30
0.0
 10
-38.9691
 20
27.8784
 30
0.0
 10
-39.1811
 20
28.3369
 30
0.0
 10
-39.1811
 20
28.3369
 30
0.0
 10
-39.3807
 20
28.7682
 30
0.0
 10
-39.5311
 20
29.2236
 30
0.0
 10
-39.6031
 20
29.6929
 30
0.0
 10
-39.6031
 20
29.6929
 30
0.0
 10
-39.6385
 20
29.924
 30
0.0
 10
-39.6742
 20
30.1552
 30
0.0
 10
-39.7097
 20
30.3864
 30
0.0
 10
-39.7097
 20
30.3864
 30
0.0
 10
-39.7693
 20
30.7748
 30
0.0
 10
-39.7556
 20
31.1727
 30
0.0
 10
-39.6861
 20
31.5598
 30
0.0
 10
-39.6861
 20
31.5598
 30
0.0
 10
-39.6165
 20
31.947
 30
0.0
 10
-39.4912
 20
32.3237
 30
0.0
 10
-39.3058
 20
32.6704
 30
0.0
 10
-39.3058
 20
32.6704
 30
0.0
 10
-39.1005
 20
33.0548
 30
0.0
 10
-38.8217
 20
33.4024
 30
0.0
 10
-38.4771
 20
33.669
 30
0.0
 10
-38.4771
 20
33.669
 30
0.0
 10
-38.1326
 20
33.9357
 30
0.0
 10
-37.7224
 20
34.1212
 30
0.0
 10
-37.2918
 20
34.1873
 30
0.0
 10
-37.2918
 20
34.1873
 30
0.0
 10
-37.1994
 20
34.2015
 30
0.0
 10
-37.107
 20
34.2158
 30
0.0
 10
-37.0148
 20
34.2299
 30
0.0
 10
-37.0148
 20
34.2299
 30
0.0
 10
-36.4316
 20
34.3195
 30
0.0
 10
-35.8224
 20
34.2075
 30
0.0
 10
-35.2944
 20
33.9463
 30
0.0
 10
-35.2944
 20
33.9463
 30
0.0
 10
-34.8175
 20
33.7101
 30
0.0
 10
-34.4068
 20
33.352
 30
0.0
 10
-34.0629
 20
32.9434
 30
0.0
 10
-34.0629
 20
32.9434
 30
0.0
 10
-33.737
 20
32.5564
 30
0.0
 10
-33.4709
 20
32.1245
 30
0.0
 10
-33.2602
 20
31.6652
 30
0.0
 10
-33.2602
 20
31.6652
 30
0.0
 10
-33.062
 20
31.2326
 30
0.0
 10
-32.913
 20
30.776
 30
0.0
 10
-32.8407
 20
30.3059
 30
0.0
 10
-32.8407
 20
30.3059
 30
0.0
 10
-32.8052
 20
30.0745
 30
0.0
 10
-32.7695
 20
29.843
 30
0.0
 10
-32.734
 20
29.6116
 30
0.0
 10
-32.734
 20
29.6116
 30
0.0
 10
-32.7011
 20
29.3972
 30
0.0
 10
-32.6905
 20
29.1799
 30
0.0
 10
-32.6995
 20
28.9633
 30
0.0
 10
-32.6995
 20
28.9633
 30
0.0
 10
-32.7404
 20
27.976
 30
0.0
 10
-31.6961
 20
27.3157
 30
0.0
 10
-30.8218
 20
27.7759
 30
0.0
 10
-30.8218
 20
27.7759
 30
0.0
 10
-29.9475
 20
28.2361
 30
0.0
 10
-29.9006
 20
29.4707
 30
0.0
 10
-30.7375
 20
29.996
 30
0.0
 10
-30.7375
 20
29.996
 30
0.0
 10
-31.1667
 20
30.2653
 30
0.0
 10
-31.5355
 20
30.6229
 30
0.0
 10
-31.8534
 20
31.0188
 30
0.0
 10
-31.8534
 20
31.0188
 30
0.0
 10
-32.1777
 20
31.4229
 30
0.0
 10
-32.4489
 20
31.8668
 30
0.0
 10
-32.6553
 20
32.3421
 30
0.0
 10
-32.6553
 20
32.3421
 30
0.0
 10
-32.855
 20
32.802
 30
0.0
 10
-32.9937
 20
33.2912
 30
0.0
 10
-33.0224
 20
33.7911
 30
0.0
 10
-33.0224
 20
33.7911
 30
0.0
 10
-33.0383
 20
34.0715
 30
0.0
 10
-33.0544
 20
34.352
 30
0.0
 10
-33.0704
 20
34.6324
 30
0.0
 10
-33.0704
 20
34.6324
 30
0.0
 10
-33.1016
 20
35.1764
 30
0.0
 10
-33.0562
 20
35.7241
 30
0.0
 10
-32.957
 20
36.2603
 30
0.0
 10
-32.957
 20
36.2603
 30
0.0
 10
-32.8583
 20
36.7931
 30
0.0
 10
-32.706
 20
37.3148
 30
0.0
 10
-32.4816
 20
37.8089
 30
0.0
 10
-32.4816
 20
37.8089
 30
0.0
 10
-32.2297
 20
38.3639
 30
0.0
 10
-31.8867
 20
38.8841
 30
0.0
 10
-31.4278
 20
39.2812
 30
0.0
 10
-31.4278
 20
39.2812
 30
0.0
 10
-30.911
 20
39.7281
 30
0.0
 10
-30.2471
 20
40.0187
 30
0.0
 10
-29.5634
 20
40.0578
 30
0.0
 10
-29.5634
 20
40.0578
 30
0.0
 10
-29.4698
 20
40.0631
 30
0.0
 10
-29.3762
 20
40.0685
 30
0.0
 10
-29.2827
 20
40.0738
 30
0.0
 10
-29.2827
 20
40.0738
 30
0.0
 10
-28.5667
 20
40.1148
 30
0.0
 10
-27.8396
 20
39.896
 30
0.0
 10
-27.25
 20
39.4921
 30
0.0
 10
-27.25
 20
39.4921
 30
0.0
 10
-26.7235
 20
39.1314
 30
0.0
 10
-26.3066
 20
38.6231
 30
0.0
 10
-25.9833
 20
38.0686
 30
0.0
 10
-25.9833
 20
38.0686
 30
0.0
 10
-25.6816
 20
37.5513
 30
0.0
 10
-25.4615
 20
36.994
 30
0.0
 10
-25.3
 20
36.4188
 30
0.0
 10
-25.3
 20
36.4188
 30
0.0
 10
-25.1526
 20
35.8942
 30
0.0
 10
-25.0538
 20
35.3547
 30
0.0
 10
-25.0228
 20
34.8109
 30
0.0
 10
-25.0228
 20
34.8109
 30
0.0
 10
-25.0201
 20
34.7643
 30
0.0
 10
-25.0174
 20
34.7176
 30
0.0
 10
-25.0147
 20
34.6711
 30
0.0
 10
-25.0147
 20
34.6711
 30
0.0
 10
-24.9847
 20
34.1436
 30
0.0
 10
-25.0458
 20
33.6132
 30
0.0
 10
-25.1649
 20
33.0982
 30
0.0
 10
-25.1649
 20
33.0982
 30
0.0
 10
-25.2219
 20
32.8525
 30
0.0
 10
-25.2922
 20
32.6103
 30
0.0
 10
-25.3763
 20
32.373
 30
0.0
 10
-25.3763
 20
32.373
 30
0.0
 10
-25.741
 20
31.3461
 30
0.0
 10
-24.8644
 20
30.3067
 30
0.0
 10
-23.7907
 20
30.4932
 30
0.0
 10
-23.7907
 20
30.4932
 30
0.0
 10
-22.717
 20
30.6794
 30
0.0
 10
-22.2419
 20
31.9536
 30
0.0
 10
-22.9314
 20
32.7974
 30
0.0
 10
-22.9314
 20
32.7974
 30
0.0
 10
-23.0944
 20
32.9971
 30
0.0
 10
-23.2427
 20
33.2094
 30
0.0
 10
-23.3783
 20
33.4289
 30
0.0
 10
-23.3783
 20
33.4289
 30
0.0
 10
-23.6772
 20
33.9128
 30
0.0
 10
-23.9143
 20
34.432
 30
0.0
 10
-24.0837
 20
34.9749
 30
0.0
 10
-24.0837
 20
34.9749
 30
0.0
 10
-24.2439
 20
35.4886
 30
0.0
 10
-24.3432
 20
36.024
 30
0.0
 10
-24.3318
 20
36.5612
 30
0.0
 10
-24.3318
 20
36.5612
 30
0.0
 10
-24.3197
 20
37.1229
 30
0.0
 10
-24.3077
 20
37.6846
 30
0.0
 10
-24.2956
 20
38.2462
 30
0.0
 10
-24.2956
 20
38.2462
 30
0.0
 10
-24.2821
 20
38.8767
 30
0.0
 10
-24.1206
 20
39.4971
 30
0.0
 10
-23.8813
 20
40.0817
 30
0.0
 10
-23.8813
 20
40.0817
 30
0.0
 10
-23.6325
 20
40.6897
 30
0.0
 10
-23.2995
 20
41.259
 30
0.0
 10
-22.8999
 20
41.7795
 30
0.0
 10
-22.8999
 20
41.7795
 30
0.0
 10
-22.4884
 20
42.3155
 30
0.0
 10
-22.0062
 20
42.7997
 30
0.0
 10
-21.4352
 20
43.1615
 30
0.0
 10
-21.4352
 20
43.1615
 30
0.0
 10
-20.8211
 20
43.5504
 30
0.0
 10
-20.1043
 20
43.7977
 30
0.0
 10
-19.3785
 20
43.7821
 30
0.0
 10
-19.3785
 20
43.7821
 30
0.0
 10
-18.5684
 20
43.7648
 30
0.0
 10
-17.7533
 20
43.5416
 30
0.0
 10
-17.0736
 20
43.1086
 30
0.0
 10
-17.0736
 20
43.1086
 30
0.0
 10
-16.3446
 20
42.6445
 30
0.0
 10
-15.7713
 20
41.9389
 30
0.0
 10
-15.3932
 20
41.156
 30
0.0
 10
-15.3932
 20
41.156
 30
0.0
 10
-15.1174
 20
40.5846
 30
0.0
 10
-14.9458
 20
39.9719
 30
0.0
 10
-14.8361
 20
39.3467
 30
0.0
 10
-14.8361
 20
39.3467
 30
0.0
 10
-14.7522
 20
38.8674
 30
0.0
 10
-14.7046
 20
38.3808
 30
0.0
 10
-14.7059
 20
37.895
 30
0.0
 10
-14.7059
 20
37.895
 30
0.0
 10
-14.7083
 20
36.9461
 30
0.0
 10
-14.8969
 20
36.0
 30
0.0
 10
-15.2389
 20
35.1149
 30
0.0
 10
-15.2389
 20
35.1149
 30
0.0
 10
-15.4546
 20
34.5563
 30
0.0
 10
-15.7315
 20
34.0218
 30
0.0
 10
-16.0736
 20
33.5285
 30
0.0
 10
-16.0736
 20
33.5285
 30
0.0
 10
-16.748
 20
32.5559
 30
0.0
 10
-16.1417
 20
31.2154
 30
0.0
 10
-14.966
 20
31.0795
 30
0.0
 10
-14.966
 20
31.0795
 30
0.0
 10
-13.7902
 20
30.9438
 30
0.0
 10
-12.8943
 20
32.1107
 30
0.0
 10
-13.3291
 20
33.2114
 30
0.0
 10
-13.3291
 20
33.2114
 30
0.0
 10
-13.8168
 20
34.4461
 30
0.0
 10
-14.0228
 20
35.787
 30
0.0
 10
-13.9341
 20
37.1073
 30
0.0
 10
-13.9341
 20
37.1073
 30
0.0
 10
-13.8687
 20
38.0857
 30
0.0
 10
-13.6412
 20
39.0529
 30
0.0
 10
-13.3233
 20
39.984
 30
0.0
 10
-13.3233
 20
39.984
 30
0.0
 10
-12.9803
 20
40.989
 30
0.0
 10
-12.532
 20
41.9519
 30
0.0
 10
-11.94
 20
42.8333
 30
0.0
 10
-11.94
 20
42.8333
 30
0.0
 10
-11.33
 20
43.7412
 30
0.0
 10
-10.5674
 20
44.5628
 30
0.0
 10
-9.6357
 20
45.1269
 30
0.0
 10
-9.6357
 20
45.1269
 30
0.0
 10
-8.638
 20
45.7308
 30
0.0
 10
-7.4466
 20
46.0397
 30
0.0
 10
-6.2813
 20
45.9438
 30
0.0
 10
-6.2813
 20
45.9438
 30
0.0
 10
-6.2345
 20
45.94
 30
0.0
 10
-6.1877
 20
45.9361
 30
0.0
 10
-6.1408
 20
45.9323
 30
0.0
 10
-6.1408
 20
45.9323
 30
0.0
 10
-5.2133
 20
45.8559
 30
0.0
 10
-4.312
 20
45.4796
 30
0.0
 10
-3.594
 20
44.8922
 30
0.0
 10
-3.594
 20
44.8922
 30
0.0
 10
-2.9392
 20
44.3562
 30
0.0
 10
-2.4367
 20
43.6447
 30
0.0
 10
-2.0682
 20
42.8782
 30
0.0
 10
-2.0682
 20
42.8782
 30
0.0
 10
-1.7182
 20
42.1498
 30
0.0
 10
-1.4892
 20
41.3718
 30
0.0
 10
-1.3546
 20
40.5761
 30
0.0
 10
-1.3546
 20
40.5761
 30
0.0
 10
-1.2287
 20
39.8314
 30
0.0
 10
-1.1857
 20
39.0711
 30
0.0
 10
-1.2476
 20
38.3185
 30
0.0
 10
-1.2476
 20
38.3185
 30
0.0
 10
-1.2823
 20
37.8987
 30
0.0
 10
-1.3167
 20
37.4788
 30
0.0
 10
-1.3513
 20
37.0588
 30
0.0
 10
-1.3513
 20
37.0588
 30
0.0
 10
-1.4007
 20
36.4578
 30
0.0
 10
-1.5468
 20
35.8678
 30
0.0
 10
-1.7483
 20
35.2991
 30
0.0
 10
-1.7483
 20
35.2991
 30
0.0
 10
-1.9498
 20
34.7304
 30
0.0
 10
-2.2067
 20
34.1833
 30
0.0
 10
-2.501
 20
33.6566
 30
0.0
 10
-2.501
 20
33.6566
 30
0.0
 10
-3.01
 20
32.7458
 30
0.0
 10
-3.6311
 20
31.8966
 30
0.0
 10
-4.3719
 20
31.1623
 30
0.0
 10
-4.3719
 20
31.1623
 30
0.0
 10
-4.5739
 20
30.9622
 30
0.0
 10
-4.7845
 20
30.7706
 30
0.0
 10
-5.005
 20
30.5912
 30
0.0
 10
-5.005
 20
30.5912
 30
0.0
 10
-5.142
 20
30.4796
 30
0.0
 10
-5.2827
 20
30.3728
 30
0.0
 10
-5.4277
 20
30.2723
 30
0.0
 10
-5.4277
 20
30.2723
 30
0.0
 10
-7.382
 20
28.9169
 30
0.0
 10
-8.5477
 20
26.6895
 30
0.0
 10
-8.5477
 20
24.3112
 30
0.0
 10
-8.5477
 20
24.3112
 30
0.0
 10
-8.5477
 20
23.7186
 30
0.0
 10
-8.5477
 20
23.126
 30
0.0
 10
-8.5477
 20
22.5334
 30
0.0
 10
-8.5477
 20
22.5334
 30
0.0
 10
-8.5477
 20
14.9726
 30
0.0
 10
-19.784
 20
13.8839
 30
0.0
 10
-19.784
 20
3.712
 30
0.0
 10
-19.784
 20
3.712
 30
0.0
 10
-19.784
 20
3.5248
 30
0.0
 10
-19.784
 20
3.3376
 30
0.0
 10
-19.784
 20
3.1505
 30
0.0
 10
-19.784
 20
3.1505
 30
0.0
 10
-19.6579
 20
-0.721
 30
0.0
 10
-16.8724
 20
-2.9657
 30
0.0
 10
-14.6473
 20
-5.7985
 30
0.0
 10
-14.6473
 20
-5.7985
 30
0.0
 10
-12.4223
 20
-8.6312
 30
0.0
 10
-10.7577
 20
-12.052
 30
0.0
 10
-11.1301
 20
-15.4205
 30
0.0
 10
-11.1301
 20
-15.4205
 30
0.0
 10
-11.599
 20
-20.2414
 30
0.0
 10
-15.6056
 20
-23.9464
 30
0.0
 10
-20.4485
 20
-24.0373
 30
0.0
 10
-20.4485
 20
-24.0373
 30
0.0
 10
-25.2919
 20
-24.1283
 30
0.0
 10
-29.4348
 20
-20.5757
 30
0.0
 10
-30.0837
 20
-15.7753
 30
0.0
 10
-30.0837
 20
-15.7753
 30
0.0
 10
-30.3299
 20
-14.5332
 30
0.0
 10
-30.4029
 20
-13.2515
 30
0.0
 10
-30.3137
 20
-12.016
 30
0.0
 10
-30.3137
 20
-12.016
 30
0.0
 10
-30.3158
 20
-9.8388
 30
0.0
 10
-30.987
 20
-7.9663
 30
0.0
 10
-31.4123
 20
-6.2319
 30
0.0
 10
-31.4123
 20
-6.2319
 30
0.0
 10
-33.0439
 20
0.4235
 30
0.0
 10
-38.4636
 20
5.4934
 30
0.0
 10
-38.4636
 20
14.1054
 30
0.0
 10
-38.4636
 20
14.1054
 30
0.0
 10
-38.4636
 20
14.3863
 30
0.0
 10
-38.4636
 20
14.6671
 30
0.0
 10
-38.4636
 20
14.9481
 30
0.0
 10
-38.4636
 20
14.9481
 30
0.0
 10
-38.4636
 20
15.6101
 30
0.0
 10
-38.4251
 20
16.2455
 30
0.0
 10
-38.3511
 20
16.8553
 30
0.0
  0
SPLINE
  5
42
330
1F
100
AcDbEntity
  8
Vrstva 1
 62
   242
370
     9
100
AcDbSpline
210
0.0
220
0.0
230
1.0
 70
    11
 71
     3
 72
    20
 73
    16
 74
     0
 42
0.0000000001
 43
0.0000000001
 40
0.0
 40
0.0
 40
0.0
 40
0.0
 40
0.2
 40
0.2
 40
0.2
 40
0.2
 40
0.4
 40
0.4
 40
0.4
 40
0.4
 40
0.6
 40
0.6
 40
0.6
 40
0.6
 40
1.0
 40
1.0
 40
1.0
 40
1.0
 10
-22.1304
 20
-11.7517
 30
0.0
 10
-22.1304
 20
-11.7517
 30
0.0
 10
-22.1304
 20
-17.3517
 30
0.0
 10
-22.1304
 20
-17.3517
 30
0.0
 10
-22.1304
 20
-17.3517
 30
0.0
 10
-22.1304
 20
-17.3517
 30
0.0
 10
-18.5304
 20
-17.3517
 30
0.0
 10
-18.5304
 20
-17.3517
 30
0.0
 10
-18.5304
 20
-17.3517
 30
0.0
 10
-18.5304
 20
-17.3517
 30
0.0
 10
-18.5304
 20
-11.7517
 30
0.0
 10
-18.5304
 20
-11.7517
 30
0.0
 10
-18.5304
 20
-11.7517
 30
0.0
 10
-18.5304
 20
-11.7517
 30
0.0
 10
-22.1304
 20
-11.7517
 30
0.0
 10
-22.1304
 20
-11.7517
 30
0.0
  0
SPLINE
  5
43
330
1F
100
AcDbEntity
  8
Vrstva 1
 62
   242
370
     9
100
AcDbSpline
210
0.0
220
0.0
230
1.0
 70
    11
 71
     3
 72
   100
 73
    96
 74
     0
 42
0.0000000001
 43
0.0000000001
 40
0.0
 40
0.0
 40
0.0
 40
0.0
 40
0.04
 40
0.04
 40
0.04
 40
0.04
 40
0.08
 40
0.08
 40
0.08
 40
0.08
 40
0.12
 40
0.12
 40
0.12
 40
0.12
 40
0.16
 40
0.16
 40
0.16
 40
0.16
 40
0.2
 40
0.2
 40
0.2
 40
0.2
 40
0.24
 40
0.24
 40
0.24
 40
0.24
 40
0.28
 40
0.28
 40
0.28
 40
0.28
 40
0.32
 40
0.32
 40
0.32
 40
0.32
 40
0.36
 40
0.36
 40
0.36
 40
0.36
 40
0.4
 40
0.4
 40
0.4
 40
0.4
 40
0.44
 40
0.44
 40
0.44
 40
0.44
 40
0.48
 40
0.48
 40
0.48
 40
0.48
 40
0.52
 40
0.52
 40
0.52
 40
0.52
 40
0.56
 40
0.56
 40
0.56
 40
0.56
 40
0.6
 40
0.6
 40
0.6
 40
0.6
 40
0.64
 40
0.64
 40
0.64
 40
0.64
 40
0.68
 40
0.68
 40
0.68
 40
0.68
 40
0.72
 40
0.72
 40
0.72
 40
0.72
 40
0.76
 40
0.76
 40
0.76
 40
0.76
 40
0.8
 40
0.8
 40
0.8
 40
0.8
 40
0.84
 40
0.84
 40
0.84
 40
0.84
 40
0.88
 40
0.88
 40
0.88
 40
0.88
 40
0.92
 40
0.92
 40
0.92
 40
0.92
 40
1.0
 40
1.0
 40
1.0
 40
1.0
 10
-43.6587
 20
-15.7152
 30
0.0
 10
-42.0473
 20
-16.6576
 30
0.0
 10
-39.9767
 20
-16.109
 30
0.0
 10
-39.0433
 20
-14.4923
 30
0.0
 10
-39.0433
 20
-14.4923
 30
0.0
 10
-38.11
 20
-12.8756
 30
0.0
 10
-38.6701
 20
-10.8082
 30
0.0
 10
-40.292
 20
-9.8839
 30
0.0
 10
-40.292
 20
-9.8839
 30
0.0
 10
-38.4253
 20
-9.8944
 30
0.0
 10
-36.9064
 20
-8.384
 30
0.0
 10
-36.9064
 20
-6.5172
 30
0.0
 10
-36.9064
 20
-6.5172
 30
0.0
 10
-36.9064
 20
-4.6505
 30
0.0
 10
-38.4253
 20
-3.1401
 30
0.0
 10
-40.292
 20
-3.1506
 30
0.0
 10
-40.292
 20
-3.1506
 30
0.0
 10
-38.6701
 20
-2.2262
 30
0.0
 10
-38.11
 20
-0.1588
 30
0.0
 10
-39.0433
 20
1.4579
 30
0.0
 10
-39.0433
 20
1.4579
 30
0.0
 10
-39.9767
 20
3.0746
 30
0.0
 10
-42.0473
 20
3.6232
 30
0.0
 10
-43.6587
 20
2.6807
 30
0.0
 10
-43.6587
 20
2.6807
 30
0.0
 10
-42.7163
 20
4.2921
 30
0.0
 10
-43.2649
 20
6.3627
 30
0.0
 10
-44.8815
 20
7.2961
 30
0.0
 10
-44.8815
 20
7.2961
 30
0.0
 10
-46.4982
 20
8.2295
 30
0.0
 10
-48.5657
 20
7.6693
 30
0.0
 10
-49.4899
 20
6.0474
 30
0.0
 10
-49.4899
 20
6.0474
 30
0.0
 10
-49.4795
 20
7.9141
 30
0.0
 10
-50.9898
 20
9.433
 30
0.0
 10
-52.8566
 20
9.433
 30
0.0
 10
-52.8566
 20
9.433
 30
0.0
 10
-54.7234
 20
9.433
 30
0.0
 10
-56.2338
 20
7.9141
 30
0.0
 10
-56.2233
 20
6.0474
 30
0.0
 10
-56.2233
 20
6.0474
 30
0.0
 10
-57.1476
 20
7.6693
 30
0.0
 10
-59.2151
 20
8.2295
 30
0.0
 10
-60.8317
 20
7.2961
 30
0.0
 10
-60.8317
 20
7.2961
 30
0.0
 10
-62.4484
 20
6.3627
 30
0.0
 10
-62.997
 20
4.2921
 30
0.0
 10
-62.0546
 20
2.6807
 30
0.0
 10
-62.0546
 20
2.6807
 30
0.0
 10
-63.666
 20
3.6232
 30
0.0
 10
-65.7366
 20
3.0746
 30
0.0
 10
-66.6699
 20
1.4579
 30
0.0
 10
-66.6699
 20
1.4579
 30
0.0
 10
-67.6033
 20
-0.1588
 30
0.0
 10
-67.0431
 20
-2.2262
 30
0.0
 10
-65.4212
 20
-3.1506
 30
0.0
 10
-65.4212
 20
-3.1506
 30
0.0
 10
-67.288
 20
-3.1401
 30
0.0
 10
-68.8068
 20
-4.6505
 30
0.0
 10
-68.8068
 20
-6.5172
 30
0.0
 10
-68.8068
 20
-6.5172
 30
0.0
 10
-68.8068
 20
-8.384
 30
0.0
 10
-67.288
 20
-9.8944
 30
0.0
 10
-65.4212
 20
-9.8839
 30
0.0
 10
-65.4212
 20
-9.8839
 30
0.0
 10
-67.0431
 20
-10.8082
 30
0.0
 10
-67.6033
 20
-12.8756
 30
0.0
 10
-66.6699
 20
-14.4923
 30
0.0
 10
-66.6699
 20
-14.4923
 30
0.0
 10
-65.7366
 20
-16.109
 30
0.0
 10
-63.666
 20
-16.6576
 30
0.0
 10
-62.0546
 20
-15.7152
 30
0.0
 10
-62.0546
 20
-15.7152
 30
0.0
 10
-62.997
 20
-17.3266
 30
0.0
 10
-62.4484
 20
-19.3971
 30
0.0
 10
-60.8317
 20
-20.3305
 30
0.0
 10
-60.8317
 20
-20.3305
 30
0.0
 10
-59.2151
 20
-21.2639
 30
0.0
 10
-57.1476
 20
-20.7037
 30
0.0
 10
-56.2233
 20
-19.0818
 30
0.0
 10
-56.2233
 20
-19.0818
 30
0.0
 10
-56.2338
 20
-20.9486
 30
0.0
 10
-54.7234
 20
-22.4674
 30
0.0
 10
-52.8566
 20
-22.4674
 30
0.0
 10
-52.8566
 20
-22.4674
 30
0.0
 10
-50.9898
 20
-22.4674
 30
0.0
 10
-49.4795
 20
-20.9486
 30
0.0
 10
-49.4899
 20
-19.0818
 30
0.0
 10
-49.4899
 20
-19.0818
 30
0.0
 10
-48.5657
 20
-20.7037
 30
0.0
 10
-46.4982
 20
-21.2639
 30
0.0
 10
-44.8815
 20
-20.3305
 30
0.0
 10
-44.8815
 20
-20.3305
 30
0.0
 10
-43.2649
 20
-19.3971
 30
0.0
 10
-42.7163
 20
-17.3266
 30
0.0
 10
-43.6587
 20
-15.7152
 30
0.0
  0
SPLINE
  5
44
330
1F
100
AcDbEntity
  8
Vrstva 1
 62
   242
370
     9
100
AcDbSpline
210
0.0
220
0.0
230
1.0
 70
    11
 71
     3
 72
    20
 73
    16
 74
     0
 42
0.0000000001
 43
0.0000000001
 40
0.0
 40
0.0
 40
0.0
 40
0.0
 40
0.2
 40
0.2
 40
0.2
 40
0.2
 40
0.4
 40
0.4
 40
0.4
 40
0.4
 40
0.6
 40
0.6
 40
0.6
 40
0.6
 40
1.0
 40
1.0
 40
1.0
 40
1.0
 10
-47.2932
 20
-10.9422
 30
0.0
 10
-47.2932
 20
-10.9422
 30
0.0
 10
-48.7038
 20
-9.0006
 30
0.0
 10
-48.7038
 20
-9.0006
 30
0.0
 10
-48.7038
 20
-9.0006
 30
0.0
 10
-48.7038
 20
-9.0006
 30
0.0
 10
-51.7781
 20
-11.2341
 30
0.0
 10
-51.7781
 20
-11.2341
 30
0.0
 10
-51.7781
 20
-11.2341
 30
0.0
 10
-51.7781
 20
-11.2341
 30
0.0
 10
-50.3674
 20
-13.1758
 30
0.0
 10
-50.3674
 20
-13.1758
 30
0.0
 10
-50.3674
 20
-13.1758
 30
0.0
 10
-50.3674
 20
-13.1758
 30
0.0
 10
-47.2932
 20
-10.9422
 30
0.0
 10
-47.2932
 20
-10.9422
 30
0.0
  0
SPLINE
  5
45
330
1F
100
AcDbEntity
  8
Vrstva 1
 62
   242
370
     9
100
AcDbSpline
210
0.0
220
0.0
230
1.0
 70
    11
 71
     3
 72
    20
 73
    16
 74
     0
 42
0.0000000001
 43
0.0000000001
 40
0.0
 40
0.0
 40
0.0
 40
0.0
 40
0.2
 40
0.2
 40
0.2
 40
0.2
 40
0.4
 40
0.4
 40
0.4
 40
0.4
 40
0.6
 40
0.6
 40
0.6
 40
0.6
 40
1.0
 40
1.0
 40
1.0
 40
1.0
 10
-55.3458
 20
-13.1758
 30
0.0
 10
-55.3458
 20
-13.1758
 30
0.0
 10
-53.9351
 20
-11.2341
 30
0.0
 10
-53.9351
 20
-11.2341
 30
0.0
 10
-53.9351
 20
-11.2341
 30
0.0
 10
-53.9351
 20
-11.2341
 30
0.0
 10
-57.0094
 20
-9.0006
 30
0.0
 10
-57.0094
 20
-9.0006
 30
0.0
 10
-57.0094
 20
-9.0006
 30
0.0
 10
-57.0094
 20
-9.0006
 30
0.0
 10
-58.4201
 20
-10.9422
 30
0.0
 10
-58.4201
 20
-10.9422
 30
0.0
 10
-58.4201
 20
-10.9422
 30
0.0
 10
-58.4201
 20
-10.9422
 30
0.0
 10
-55.3458
 20
-13.1758
 30
0.0
 10
-55.3458
 20
-13.1758
 30
0.0
  0
SPLINE
  5
46
330
1F
100
AcDbEntity
  8
Vrstva 1
 62
   242
370
     9
100
AcDbSpline
210
0.0
220
0.0
230
1.0
 70
    11
 71
     3
 72
    20
 73
    16
 74
     0
 42
0.0000000001
 43
0.0000000001
 40
0.0
 40
0.0
 40
0.0
 40
0.0
 40
0.2
 40
0.2
 40
0.2
 40
0.2
 40
0.4
 40
0.4
 40
0.4
 40
0.4
 40
0.6
 40
0.6
 40
0.6
 40
0.6
 40
1.0
 40
1.0
 40
1.0
 40
1.0
 10
-59.9585
 20
-6.2074
 30
0.0
 10
-59.9585
 20
-6.2074
 30
0.0
 10
-57.676
 20
-6.9491
 30
0.0
 10
-57.676
 20
-6.9491
 30
0.0
 10
-57.676
 20
-6.9491
 30
0.0
 10
-57.676
 20
-6.9491
 30
0.0
 10
-56.5017
 20
-3.3351
 30
0.0
 10
-56.5017
 20
-3.3351
 30
0.0
 10
-56.5017
 20
-3.3351
 30
0.0
 10
-56.5017
 20
-3.3351
 30
0.0
 10
-58.7842
 20
-2.5934
 30
0.0
 10
-58.7842
 20
-2.5934
 30
0.0
 10
-58.7842
 20
-2.5934
 30
0.0
 10
-58.7842
 20
-2.5934
 30
0.0
 10
-59.9585
 20
-6.2074
 30
0.0
 10
-59.9585
 20
-6.2074
 30
0.0
  0
SPLINE
  5
47
330
1F
100
AcDbEntity
  8
Vrstva 1
 62
   242
370
     9
100
AcDbSpline
210
0.0
220
0.0
230
1.0
 70
    11
 71
     3
 72
    20
 73
    16
 74
     0
 42
0.0000000001
 43
0.0000000001
 40
0.0
 40
0.0
 40
0.0
 40
0.0
 40
0.2
 40
0.2
 40
0.2
 40
0.2
 40
0.4
 40
0.4
 40
0.4
 40
0.4
 40
0.6
 40
0.6
 40
0.6
 40
0.6
 40
1.0
 40
1.0
 40
1.0
 40
1.0
 10
-48.6771
 20
4.522
 30
0.0
 10
-48.6771
 20
4.522
 30
0.0
 10
-49.8771
 20
2.4435
 30
0.0
 10
-49.8771
 20
2.4435
 30
0.0
 10
-49.8771
 20
2.4435
 30
0.0
 10
-49.8771
 20
2.4435
 30
0.0
 10
-46.5862
 20
0.5435
 30
0.0
 10
-46.5862
 20
0.5435
 30
0.0
 10
-46.5862
 20
0.5435
 30
0.0
 10
-46.5862
 20
0.5435
 30
0.0
 10
-45.3862
 20
2.622
 30
0.0
 10
-45.3862
 20
2.622
 30
0.0
 10
-45.3862
 20
2.622
 30
0.0
 10
-45.3862
 20
2.622
 30
0.0
 10
-48.6771
 20
4.522
 30
0.0
 10
-48.6771
 20
4.522
 30
0.0
  0
SPLINE
  5
48
330
1F
100
AcDbEntity
  8
Vrstva 1
 62
   242
370
     9
100
AcDbSpline
210
0.0
220
0.0
230
1.0
 70
    11
 71
     3
 72
    20
 73
    16
 74
     0
 42
0.0000000001
 43
0.0000000001
 40
0.0
 40
0.0
 40
0.0
 40
0.0
 40
0.2
 40
0.2
 40
0.2
 40
0.2
 40
0.4
 40
0.4
 40
0.4
 40
0.4
 40
0.6
 40
0.6
 40
0.6
 40
0.6
 40
1.0
 40
1.0
 40
1.0
 40
1.0
 10
-43.7174
 20
0.9532
 30
0.0
 10
-43.7174
 20
0.9532
 30
0.0
 10
-45.7959
 20
-0.2468
 30
0.0
 10
-45.7959
 20
-0.2468
 30
0.0
 10
-45.7959
 20
-0.2468
 30
0.0
 10
-45.7959
 20
-0.2468
 30
0.0
 10
-43.8959
 20
-3.5377
 30
0.0
 10
-43.8959
 20
-3.5377
 30
0.0
 10
-43.8959
 20
-3.5377
 30
0.0
 10
-43.8959
 20
-3.5377
 30
0.0
 10
-41.8174
 20
-2.3377
 30
0.0
 10
-41.8174
 20
-2.3377
 30
0.0
 10
-41.8174
 20
-2.3377
 30
0.0
 10
-41.8174
 20
-2.3377
 30
0.0
 10
-43.7174
 20
0.9532
 30
0.0
 10
-43.7174
 20
0.9532
 30
0.0
  0
SPLINE
  5
49
330
1F
100
AcDbEntity
  8
Vrstva 1
 62
   242
370
     9
100
AcDbSpline
210
0.0
220
0.0
230
1.0
 70
    11
 71
     3
 72
    20
 73
    16
 74
     0
 42
0.0000000001
 43
0.0000000001
 40
0.0
 40
0.0
 40
0.0
 40
0.0
 40
0.2
 40
0.2
 40
0.2
 40
0.2
 40
0.4
 40
0.4
 40
0.4
 40
0.4
 40
0.6
 40
0.6
 40
0.6
 40
0.6
 40
1.0
 40
1.0
 40
1.0
 40
1.0
 10
-41.2066
 20
-4.6172
 30
0.0
 10
-41.2066
 20
-4.6172
 30
0.0
 10
-43.6066
 20
-4.6172
 30
0.0
 10
-43.6066
 20
-4.6172
 30
0.0
 10
-43.6066
 20
-4.6172
 30
0.0
 10
-43.6066
 20
-4.6172
 30
0.0
 10
-43.6066
 20
-8.4172
 30
0.0
 10
-43.6066
 20
-8.4172
 30
0.0
 10
-43.6066
 20
-8.4172
 30
0.0
 10
-43.6066
 20
-8.4172
 30
0.0
 10
-41.2066
 20
-8.4172
 30
0.0
 10
-41.2066
 20
-8.4172
 30
0.0
 10
-41.2066
 20
-8.4172
 30
0.0
 10
-41.2066
 20
-8.4172
 30
0.0
 10
-41.2066
 20
-4.6172
 30
0.0
 10
-41.2066
 20
-4.6172
 30
0.0
  0
SPLINE
  5
4A
330
1F
100
AcDbEntity
  8
Vrstva 1
 62
   242
370
     9
100
AcDbSpline
210
0.0
220
0.0
230
1.0
 70
    11
 71
     3
 72
    20
 73
    16
 74
     0
 42
0.0000000001
 43
0.0000000001
 40
0.0
 40
0.0
 40
0.0
 40
0.0
 40
0.2
 40
0.2
 40
0.2
 40
0.2
 40
0.4
 40
0.4
 40
0.4
 40
0.4
 40
0.6
 40
0.6
 40
0.6
 40
0.6
 40
1.0
 40
1.0
 40
1.0
 40
1.0
 10
-41.8174
 20
-10.6968
 30
0.0
 10
-41.8174
 20
-10.6968
 30
0.0
 10
-43.8959
 20
-9.4968
 30
0.0
 10
-43.8959
 20
-9.4968
 30
0.0
 10
-43.8959
 20
-9.4968
 30
0.0
 10
-43.8959
 20
-9.4968
 30
0.0
 10
-45.7959
 20
-12.7877
 30
0.0
 10
-45.7959
 20
-12.7877
 30
0.0
 10
-45.7959
 20
-12.7877
 30
0.0
 10
-45.7959
 20
-12.7877
 30
0.0
 10
-43.7174
 20
-13.9877
 30
0.0
 10
-43.7174
 20
-13.9877
 30
0.0
 10
-43.7174
 20
-13.9877
 30
0.0
 10
-43.7174
 20
-13.9877
 30
0.0
 10
-41.8174
 20
-10.6968
 30
0.0
 10
-41.8174
 20
-10.6968
 30
0.0
  0
SPLINE
  5
4B
330
1F
100
AcDbEntity
  8
Vrstva 1
 62
   242
370
     9
100
AcDbSpline
210
0.0
220
0.0
230
1.0
 70
    11
 71
     3
 72
    20
 73
    16
 74
     0
 42
0.0000000001
 43
0.0000000001
 40
0.0
 40
0.0
 40
0.0
 40
0.0
 40
0.2
 40
0.2
 40
0.2
 40
0.2
 40
0.4
 40
0.4
 40
0.4
 40
0.4
 40
0.6
 40
0.6
 40
0.6
 40
0.6
 40
1.0
 40
1.0
 40
1.0
 40
1.0
 10
-45.3862
 20
-15.6564
 30
0.0
 10
-45.3862
 20
-15.6564
 30
0.0
 10
-46.5862
 20
-13.578
 30
0.0
 10
-46.5862
 20
-13.578
 30
0.0
 10
-46.5862
 20
-13.578
 30
0.0
 10
-46.5862
 20
-13.578
 30
0.0
 10
-49.8771
 20
-15.4779
 30
0.0
 10
-49.8771
 20
-15.4779
 30
0.0
 10
-49.8771
 20
-15.4779
 30
0.0
 10
-49.8771
 20
-15.4779
 30
0.0
 10
-48.6771
 20
-17.5564
 30
0.0
 10
-48.6771
 20
-17.5564
 30
0.0
 10
-48.6771
 20
-17.5564
 30
0.0
 10
-48.6771
 20
-17.5564
 30
0.0
 10
-45.3862
 20
-15.6564
 30
0.0
 10
-45.3862
 20
-15.6564
 30
0.0
  0
SPLINE
  5
4C
330
1F
100
AcDbEntity
  8
Vrstva 1
 62
   242
370
     9
100
AcDbSpline
210
0.0
220
0.0
230
1.0
 70
    11
 71
     3
 72
    20
 73
    16
 74
     0
 42
0.0000000001
 43
0.0000000001
 40
0.0
 40
0.0
 40
0.0
 40
0.0
 40
0.2
 40
0.2
 40
0.2
 40
0.2
 40
0.4
 40
0.4
 40
0.4
 40
0.4
 40
0.6
 40
0.6
 40
0.6
 40
0.6
 40
1.0
 40
1.0
 40
1.0
 40
1.0
 10
-50.9566
 20
-18.1672
 30
0.0
 10
-50.9566
 20
-18.1672
 30
0.0
 10
-50.9566
 20
-15.7672
 30
0.0
 10
-50.9566
 20
-15.7672
 30
0.0
 10
-50.9566
 20
-15.7672
 30
0.0
 10
-50.9566
 20
-15.7672
 30
0.0
 10
-54.7566
 20
-15.7672
 30
0.0
 10
-54.7566
 20
-15.7672
 30
0.0
 10
-54.7566
 20
-15.7672
 30
0.0
 10
-54.7566
 20
-15.7672
 30
0.0
 10
-54.7566
 20
-18.1672
 30
0.0
 10
-54.7566
 20
-18.1672
 30
0.0
 10
-54.7566
 20
-18.1672
 30
0.0
 10
-54.7566
 20
-18.1672
 30
0.0
 10
-50.9566
 20
-18.1672
 30
0.0
 10
-50.9566
 20
-18.1672
 30
0.0
  0
SPLINE
  5
4D
330
1F
100
AcDbEntity
  8
Vrstva 1
 62
   242
370
     9
100
AcDbSpline
210
0.0
220
0.0
230
1.0
 70
    11
 71
     3
 72
    20
 73
    16
 74
     0
 42
0.0000000001
 43
0.0000000001
 40
0.0
 40
0.0
 40
0.0
 40
0.0
 40
0.2
 40
0.2
 40
0.2
 40
0.2
 40
0.4
 40
0.4
 40
0.4
 40
0.4
 40
0.6
 40
0.6
 40
0.6
 40
0.6
 40
1.0
 40
1.0
 40
1.0
 40
1.0
 10
-57.0362
 20
-17.5564
 30
0.0
 10
-57.0362
 20
-17.5564
 30
0.0
 10
-55.8362
 20
-15.4779
 30
0.0
 10
-55.8362
 20
-15.4779
 30
0.0
 10
-55.8362
 20
-15.4779
 30
0.0
 10
-55.8362
 20
-15.4779
 30
0.0
 10
-59.1271
 20
-13.578
 30
0.0
 10
-59.1271
 20
-13.578
 30
0.0
 10
-59.1271
 20
-13.578
 30
0.0
 10
-59.1271
 20
-13.578
 30
0.0
 10
-60.3271
 20
-15.6564
 30
0.0
 10
-60.3271
 20
-15.6564
 30
0.0
 10
-60.3271
 20
-15.6564
 30
0.0
 10
-60.3271
 20
-15.6564
 30
0.0
 10
-57.0362
 20
-17.5564
 30
0.0
 10
-57.0362
 20
-17.5564
 30
0.0
  0
SPLINE
  5
4E
330
1F
100
AcDbEntity
  8
Vrstva 1
 62
   242
370
     9
100
AcDbSpline
210
0.0
220
0.0
230
1.0
 70
    11
 71
     3
 72
    20
 73
    16
 74
     0
 42
0.0000000001
 43
0.0000000001
 40
0.0
 40
0.0
 40
0.0
 40
0.0
 40
0.2
 40
0.2
 40
0.2
 40
0.2
 40
0.4
 40
0.4
 40
0.4
 40
0.4
 40
0.6
 40
0.6
 40
0.6
 40
0.6
 40
1.0
 40
1.0
 40
1.0
 40
1.0
 10
-61.9958
 20
-13.9877
 30
0.0
 10
-61.9958
 20
-13.9877
 30
0.0
 10
-59.9174
 20
-12.7877
 30
0.0
 10
-59.9174
 20
-12.7877
 30
0.0
 10
-59.9174
 20
-12.7877
 30
0.0
 10
-59.9174
 20
-12.7877
 30
0.0
 10
-61.8174
 20
-9.4968
 30
0.0
 10
-61.8174
 20
-9.4968
 30
0.0
 10
-61.8174
 20
-9.4968
 30
0.0
 10
-61.8174
 20
-9.4968
 30
0.0
 10
-63.8958
 20
-10.6968
 30
0.0
 10
-63.8958
 20
-10.6968
 30
0.0
 10
-63.8958
 20
-10.6968
 30
0.0
 10
-63.8958
 20
-10.6968
 30
0.0
 10
-61.9958
 20
-13.9877
 30
0.0
 10
-61.9958
 20
-13.9877
 30
0.0
  0
SPLINE
  5
4F
330
1F
100
AcDbEntity
  8
Vrstva 1
 62
   242
370
     9
100
AcDbSpline
210
0.0
220
0.0
230
1.0
 70
    11
 71
     3
 72
    20
 73
    16
 74
     0
 42
0.0000000001
 43
0.0000000001
 40
0.0
 40
0.0
 40
0.0
 40
0.0
 40
0.2
 40
0.2
 40
0.2
 40
0.2
 40
0.4
 40
0.4
 40
0.4
 40
0.4
 40
0.6
 40
0.6
 40
0.6
 40
0.6
 40
1.0
 40
1.0
 40
1.0
 40
1.0
 10
-64.5066
 20
-8.4172
 30
0.0
 10
-64.5066
 20
-8.4172
 30
0.0
 10
-62.1066
 20
-8.4172
 30
0.0
 10
-62.1066
 20
-8.4172
 30
0.0
 10
-62.1066
 20
-8.4172
 30
0.0
 10
-62.1066
 20
-8.4172
 30
0.0
 10
-62.1066
 20
-4.6172
 30
0.0
 10
-62.1066
 20
-4.6172
 30
0.0
 10
-62.1066
 20
-4.6172
 30
0.0
 10
-62.1066
 20
-4.6172
 30
0.0
 10
-64.5066
 20
-4.6172
 30
0.0
 10
-64.5066
 20
-4.6172
 30
0.0
 10
-64.5066
 20
-4.6172
 30
0.0
 10
-64.5066
 20
-4.6172
 30
0.0
 10
-64.5066
 20
-8.4172
 30
0.0
 10
-64.5066
 20
-8.4172
 30
0.0
  0
SPLINE
  5
50
330
1F
100
AcDbEntity
  8
Vrstva 1
 62
   242
370
     9
100
AcDbSpline
210
0.0
220
0.0
230
1.0
 70
    11
 71
     3
 72
    20
 73
    16
 74
     0
 42
0.0000000001
 43
0.0000000001
 40
0.0
 40
0.0
 40
0.0
 40
0.0
 40
0.2
 40
0.2
 40
0.2
 40
0.2
 40
0.4
 40
0.4
 40
0.4
 40
0.4
 40
0.6
 40
0.6
 40
0.6
 40
0.6
 40
1.0
 40
1.0
 40
1.0
 40
1.0
 10
-63.8958
 20
-2.3377
 30
0.0
 10
-63.8958
 20
-2.3377
 30
0.0
 10
-61.8174
 20
-3.5377
 30
0.0
 10
-61.8174
 20
-3.5377
 30
0.0
 10
-61.8174
 20
-3.5377
 30
0.0
 10
-61.8174
 20
-3.5377
 30
0.0
 10
-59.9174
 20
-0.2468
 30
0.0
 10
-59.9174
 20
-0.2468
 30
0.0
 10
-59.9174
 20
-0.2468
 30
0.0
 10
-59.9174
 20
-0.2468
 30
0.0
 10
-61.9958
 20
0.9532
 30
0.0
 10
-61.9958
 20
0.9532
 30
0.0
 10
-61.9958
 20
0.9532
 30
0.0
 10
-61.9958
 20
0.9532
 30
0.0
 10
-63.8958
 20
-2.3377
 30
0.0
 10
-63.8958
 20
-2.3377
 30
0.0
  0
SPLINE
  5
51
330
1F
100
AcDbEntity
  8
Vrstva 1
 62
   242
370
     9
100
AcDbSpline
210
0.0
220
0.0
230
1.0
 70
    11
 71
     3
 72
    20
 73
    16
 74
     0
 42
0.0000000001
 43
0.0000000001
 40
0.0
 40
0.0
 40
0.0
 40
0.0
 40
0.2
 40
0.2
 40
0.2
 40
0.2
 40
0.4
 40
0.4
 40
0.4
 40
0.4
 40
0.6
 40
0.6
 40
0.6
 40
0.6
 40
1.0
 40
1.0
 40
1.0
 40
1.0
 10
-60.3271
 20
2.622
 30
0.0
 10
-60.3271
 20
2.622
 30
0.0
 10
-59.1271
 20
0.5435
 30
0.0
 10
-59.1271
 20
0.5435
 30
0.0
 10
-59.1271
 20
0.5435
 30
0.0
 10
-59.1271
 20
0.5435
 30
0.0
 10
-55.8362
 20
2.4435
 30
0.0
 10
-55.8362
 20
2.4435
 30
0.0
 10
-55.8362
 20
2.4435
 30
0.0
 10
-55.8362
 20
2.4435
 30
0.0
 10
-57.0362
 20
4.522
 30
0.0
 10
-57.0362
 20
4.522
 30
0.0
 10
-57.0362
 20
4.522
 30
0.0
 10
-57.0362
 20
4.522
 30
0.0
 10
-60.3271
 20
2.622
 30
0.0
 10
-60.3271
 20
2.622
 30
0.0
  0
SPLINE
  5
52
330
1F
100
AcDbEntity
  8
Vrstva 1
 62
   242
370
     9
100
AcDbSpline
210
0.0
220
0.0
230
1.0
 70
    11
 71
     3
 72
    20
 73
    16
 74
     0
 42
0.0000000001
 43
0.0000000001
 40
0.0
 40
0.0
 40
0.0
 40
0.0
 40
0.2
 40
0.2
 40
0.2
 40
0.2
 40
0.4
 40
0.4
 40
0.4
 40
0.4
 40
0.6
 40
0.6
 40
0.6
 40
0.6
 40
1.0
 40
1.0
 40
1.0
 40
1.0
 10
-54.7566
 20
0.3328
 30
0.0
 10
-54.7566
 20
0.3328
 30
0.0
 10
-54.7566
 20
-2.0672
 30
0.0
 10
-54.7566
 20
-2.0672
 30
0.0
 10
-54.7566
 20
-2.0672
 30
0.0
 10
-54.7566
 20
-2.0672
 30
0.0
 10
-50.9566
 20
-2.0672
 30
0.0
 10
-50.9566
 20
-2.0672
 30
0.0
 10
-50.9566
 20
-2.0672
 30
0.0
 10
-50.9566
 20
-2.0672
 30
0.0
 10
-50.9566
 20
0.3328
 30
0.0
 10
-50.9566
 20
0.3328
 30
0.0
 10
-50.9566
 20
0.3328
 30
0.0
 10
-50.9566
 20
0.3328
 30
0.0
 10
-54.7566
 20
0.3328
 30
0.0
 10
-54.7566
 20
0.3328
 30
0.0
  0
SPLINE
  5
53
330
1F
100
AcDbEntity
  8
Vrstva 1
 62
   242
370
     9
100
AcDbSpline
210
0.0
220
0.0
230
1.0
 70
    11
 71
     3
 72
    20
 73
    16
 74
     0
 42
0.0000000001
 43
0.0000000001
 40
0.0
 40
0.0
 40
0.0
 40
0.0
 40
0.2
 40
0.2
 40
0.2
 40
0.2
 40
0.4
 40
0.4
 40
0.4
 40
0.4
 40
0.6
 40
0.6
 40
0.6
 40
0.6
 40
1.0
 40
1.0
 40
1.0
 40
1.0
 10
-54.7566
 20
5.1328
 30
0.0
 10
-54.7566
 20
5.1328
 30
0.0
 10
-54.7566
 20
2.7328
 30
0.0
 10
-54.7566
 20
2.7328
 30
0.0
 10
-54.7566
 20
2.7328
 30
0.0
 10
-54.7566
 20
2.7328
 30
0.0
 10
-50.9566
 20
2.7328
 30
0.0
 10
-50.9566
 20
2.7328
 30
0.0
 10
-50.9566
 20
2.7328
 30
0.0
 10
-50.9566
 20
2.7328
 30
0.0
 10
-50.9566
 20
5.1328
 30
0.0
 10
-50.9566
 20
5.1328
 30
0.0
 10
-50.9566
 20
5.1328
 30
0.0
 10
-50.9566
 20
5.1328
 30
0.0
 10
-54.7566
 20
5.1328
 30
0.0
 10
-54.7566
 20
5.1328
 30
0.0
  0
SPLINE
  5
54
330
1F
100
AcDbEntity
  8
Vrstva 1
 62
   242
370
     9
100
AcDbSpline
210
0.0
220
0.0
230
1.0
 70
    11
 71
     3
 72
    20
 73
    16
 74
     0
 42
0.0000000001
 43
0.0000000001
 40
0.0
 40
0.0
 40
0.0
 40
0.0
 40
0.2
 40
0.2
 40
0.2
 40
0.2
 40
0.4
 40
0.4
 40
0.4
 40
0.4
 40
0.6
 40
0.6
 40
0.6
 40
0.6
 40
1.0
 40
1.0
 40
1.0
 40
1.0
 10
-54.7566
 20
-4.6172
 30
0.0
 10
-54.7566
 20
-4.6172
 30
0.0
 10
-54.7566
 20
-8.4172
 30
0.0
 10
-54.7566
 20
-8.4172
 30
0.0
 10
-54.7566
 20
-8.4172
 30
0.0
 10
-54.7566
 20
-8.4172
 30
0.0
 10
-50.9566
 20
-8.4172
 30
0.0
 10
-50.9566
 20
-8.4172
 30
0.0
 10
-50.9566
 20
-8.4172
 30
0.0
 10
-50.9566
 20
-8.4172
 30
0.0
 10
-50.9566
 20
-4.6172
 30
0.0
 10
-50.9566
 20
-4.6172
 30
0.0
 10
-50.9566
 20
-4.6172
 30
0.0
 10
-50.9566
 20
-4.6172
 30
0.0
 10
-54.7566
 20
-4.6172
 30
0.0
 10
-54.7566
 20
-4.6172
 30
0.0
  0
SPLINE
  5
55
330
1F
100
AcDbEntity
  8
Vrstva 1
 62
   242
370
     9
100
AcDbSpline
210
0.0
220
0.0
230
1.0
 70
    11
 71
     3
 72
    20
 73
    16
 74
     0
 42
0.0000000001
 43
0.0000000001
 40
0.0
 40
0.0
 40
0.0
 40
0.0
 40
0.2
 40
0.2
 40
0.2
 40
0.2
 40
0.4
 40
0.4
 40
0.4
 40
0.4
 40
0.6
 40
0.6
 40
0.6
 40
0.6
 40
1.0
 40
1.0
 40
1.0
 40
1.0
 10
-46.929
 20
-2.5934
 30
0.0
 10
-46.929
 20
-2.5934
 30
0.0
 10
-49.2116
 20
-3.3351
 30
0.0
 10
-49.2116
 20
-3.3351
 30
0.0
 10
-49.2116
 20
-3.3351
 30
0.0
 10
-49.2116
 20
-3.3351
 30
0.0
 10
-48.0373
 20
-6.9491
 30
0.0
 10
-48.0373
 20
-6.9491
 30
0.0
 10
-48.0373
 20
-6.9491
 30
0.0
 10
-48.0373
 20
-6.9491
 30
0.0
 10
-45.7548
 20
-6.2074
 30
0.0
 10
-45.7548
 20
-6.2074
 30
0.0
 10
-45.7548
 20
-6.2074
 30
0.0
 10
-45.7548
 20
-6.2074
 30
0.0
 10
-46.929
 20
-2.5934
 30
0.0
 10
-46.929
 20
-2.5934
 30
0.0
  0
SPLINE
  5
56
330
1F
100
AcDbEntity
  8
Vrstva 1
 62
   242
370
     9
100
AcDbSpline
210
0.0
220
0.0
230
1.0
 70
    11
 71
     3
 72
    52
 73
    48
 74
     0
 42
0.0000000001
 43
0.0000000001
 40
0.0
 40
0.0
 40
0.0
 40
0.0
 40
0.0769230769230769
 40
0.0769230769230769
 40
0.0769230769230769
 40
0.0769230769230769
 40
0.1538461538461539
 40
0.1538461538461539
 40
0.1538461538461539
 40
0.1538461538461539
 40
0.2307692307692308
 40
0.2307692307692308
 40
0.2307692307692308
 40
0.2307692307692308
 40
0.3076923076923077
 40
0.3076923076923077
 40
0.3076923076923077
 40
0.3076923076923077
 40
0.3846153846153846
 40
0.3846153846153846
 40
0.3846153846153846
 40
0.3846153846153846
 40
0.4615384615384616
 40
0.4615384615384616
 40
0.4615384615384616
 40
0.4615384615384616
 40
0.5384615384615384
 40
0.5384615384615384
 40
0.5384615384615384
 40
0.5384615384615384
 40
0.6153846153846154
 40
0.6153846153846154
 40
0.6153846153846154
 40
0.6153846153846154
 40
0.6923076923076923
 40
0.6923076923076923
 40
0.6923076923076923
 40
0.6923076923076923
 40
0.7692307692307693
 40
0.7692307692307693
 40
0.7692307692307693
 40
0.7692307692307693
 40
0.8461538461538461
 40
0.8461538461538461
 40
0.8461538461538461
 40
0.8461538461538461
 40
1.0
 40
1.0
 40
1.0
 40
1.0
 10
110.8692
 20
32.3559
 30
0.0
 10
107.1975
 20
28.1866
 30
0.0
 10
101.8891
 20
25.9523
 30
0.0
 10
96.4868
 20
26.0347
 30
0.0
 10
96.4868
 20
26.0347
 30
0.0
 10
91.0845
 20
26.1171
 30
0.0
 10
85.5883
 20
28.5162
 30
0.0
 10
78.7552
 20
33.6562
 30
0.0
 10
78.7552
 20
33.6562
 30
0.0
 10
78.6959
 20
33.5756
 30
0.0
 10
78.6367
 20
33.4951
 30
0.0
 10
78.5774
 20
33.4145
 30
0.0
 10
78.5774
 20
33.4145
 30
0.0
 10
77.4916
 20
34.1937
 30
0.0
 10
76.4059
 20
34.9728
 30
0.0
 10
75.3202
 20
35.752
 30
0.0
 10
75.3202
 20
35.752
 30
0.0
 10
74.7648
 20
34.9978
 30
0.0
 10
74.2093
 20
34.2436
 30
0.0
 10
73.6538
 20
33.4895
 30
0.0
 10
73.6538
 20
33.4895
 30
0.0
 10
74.7181
 20
32.6816
 30
0.0
 10
75.7824
 20
31.8739
 30
0.0
 10
76.8466
 20
31.066
 30
0.0
 10
76.8466
 20
31.066
 30
0.0
 10
81.1348
 20
25.7103
 30
0.0
 10
87.8778
 20
21.6598
 30
0.0
 10
94.8269
 20
21.2774
 30
0.0
 10
94.8269
 20
21.2774
 30
0.0
 10
101.7759
 20
20.8951
 30
0.0
 10
108.9312
 20
24.1808
 30
0.0
 10
113.4054
 20
29.5723
 30
0.0
 10
113.4054
 20
29.5723
 30
0.0
 10
113.5899
 20
29.7867
 30
0.0
 10
113.7461
 20
30.0163
 30
0.0
 10
113.8493
 20
30.2713
 30
0.0
 10
113.8493
 20
30.2713
 30
0.0
 10
114.0956
 20
30.8793
 30
0.0
 10
114.0411
 20
31.6317
 30
0.0
 10
113.632
 20
32.1641
 30
0.0
 10
113.632
 20
32.1641
 30
0.0
 10
113.2231
 20
32.6965
 30
0.0
 10
112.4595
 20
33.009
 30
0.0
 10
111.8358
 20
32.894
 30
0.0
 10
111.8358
 20
32.894
 30
0.0
 10
111.4753
 20
32.8276
 30
0.0
 10
111.1616
 20
32.6183
 30
0.0
 10
110.8692
 20
32.3559
 30
0.0
  0
SPLINE
  5
57
330
1F
100
AcDbEntity
  8
Vrstva 1
 62
   242
370
     9
100
AcDbSpline
210
0.0
220
0.0
230
1.0
 70
    11
 71
     3
 72
    52
 73
    48
 74
     0
 42
0.0000000001
 43
0.0000000001
 40
0.0
 40
0.0
 40
0.0
 40
0.0
 40
0.0769230769230769
 40
0.0769230769230769
 40
0.0769230769230769
 40
0.0769230769230769
 40
0.1538461538461539
 40
0.1538461538461539
 40
0.1538461538461539
 40
0.1538461538461539
 40
0.2307692307692308
 40
0.2307692307692308
 40
0.2307692307692308
 40
0.2307692307692308
 40
0.3076923076923077
 40
0.3076923076923077
 40
0.3076923076923077
 40
0.3076923076923077
 40
0.3846153846153846
 40
0.3846153846153846
 40
0.3846153846153846
 40
0.3846153846153846
 40
0.4615384615384616
 40
0.4615384615384616
 40
0.4615384615384616
 40
0.4615384615384616
 40
0.5384615384615384
 40
0.5384615384615384
 40
0.5384615384615384
 40
0.5384615384615384
 40
0.6153846153846154
 40
0.6153846153846154
 40
0.6153846153846154
 40
0.6153846153846154
 40
0.6923076923076923
 40
0.6923076923076923
 40
0.6923076923076923
 40
0.6923076923076923
 40
0.7692307692307693
 40
0.7692307692307693
 40
0.7692307692307693
 40
0.7692307692307693
 40
0.8461538461538461
 40
0.8461538461538461
 40
0.8461538461538461
 40
0.8461538461538461
 40
1.0
 40
1.0
 40
1.0
 40
1.0
 10
110.8748
 20
24.3988
 30
0.0
 10
107.203
 20
20.2294
 30
0.0
 10
101.8946
 20
17.9951
 30
0.0
 10
96.4923
 20
18.0775
 30
0.0
 10
96.4923
 20
18.0775
 30
0.0
 10
91.0901
 20
18.16
 30
0.0
 10
85.5939
 20
20.5591
 30
0.0
 10
78.7607
 20
25.699
 30
0.0
 10
78.7607
 20
25.699
 30
0.0
 10
78.7015
 20
25.6185
 30
0.0
 10
78.6422
 20
25.5379
 30
0.0
 10
78.5829
 20
25.4574
 30
0.0
 10
78.5829
 20
25.4574
 30
0.0
 10
77.4972
 20
26.2365
 30
0.0
 10
76.4115
 20
27.0156
 30
0.0
 10
75.3258
 20
27.7948
 30
0.0
 10
75.3258
 20
27.7948
 30
0.0
 10
74.7703
 20
27.0406
 30
0.0
 10
74.2148
 20
26.2864
 30
0.0
 10
73.6594
 20
25.5323
 30
0.0
 10
73.6594
 20
25.5323
 30
0.0
 10
74.7237
 20
24.7245
 30
0.0
 10
75.7879
 20
23.9167
 30
0.0
 10
76.8521
 20
23.1088
 30
0.0
 10
76.8521
 20
23.1088
 30
0.0
 10
81.1403
 20
17.7532
 30
0.0
 10
87.8833
 20
13.7026
 30
0.0
 10
94.8324
 20
13.3203
 30
0.0
 10
94.8324
 20
13.3203
 30
0.0
 10
101.7814
 20
12.9379
 30
0.0
 10
108.9367
 20
16.2237
 30
0.0
 10
113.4109
 20
21.6151
 30
0.0
 10
113.4109
 20
21.6151
 30
0.0
 10
113.5955
 20
21.8296
 30
0.0
 10
113.7516
 20
22.0591
 30
0.0
 10
113.8549
 20
22.3141
 30
0.0
 10
113.8549
 20
22.3141
 30
0.0
 10
114.1011
 20
22.9221
 30
0.0
 10
114.0466
 20
23.6745
 30
0.0
 10
113.6376
 20
24.2069
 30
0.0
 10
113.6376
 20
24.2069
 30
0.0
 10
113.2286
 20
24.7394
 30
0.0
 10
112.465
 20
25.0518
 30
0.0
 10
111.8413
 20
24.9368
 30
0.0
 10
111.8413
 20
24.9368
 30
0.0
 10
111.4808
 20
24.8704
 30
0.0
 10
111.1671
 20
24.6611
 30
0.0
 10
110.8748
 20
24.3988
 30
0.0
  0
SPLINE
  5
58
330
1F
100
AcDbEntity
  8
Vrstva 1
 62
   242
370
     9
100
AcDbSpline
210
0.0
220
0.0
230
1.0
 70
    11
 71
     3
 72
    52
 73
    48
 74
     0
 42
0.0000000001
 43
0.0000000001
 40
0.0
 40
0.0
 40
0.0
 40
0.0
 40
0.0769230769230769
 40
0.0769230769230769
 40
0.0769230769230769
 40
0.0769230769230769
 40
0.1538461538461539
 40
0.1538461538461539
 40
0.1538461538461539
 40
0.1538461538461539
 40
0.2307692307692308
 40
0.2307692307692308
 40
0.2307692307692308
 40
0.2307692307692308
 40
0.3076923076923077
 40
0.3076923076923077
 40
0.3076923076923077
 40
0.3076923076923077
 40
0.3846153846153846
 40
0.3846153846153846
 40
0.3846153846153846
 40
0.3846153846153846
 40
0.4615384615384616
 40
0.4615384615384616
 40
0.4615384615384616
 40
0.4615384615384616
 40
0.5384615384615384
 40
0.5384615384615384
 40
0.5384615384615384
 40
0.5384615384615384
 40
0.6153846153846154
 40
0.6153846153846154
 40
0.6153846153846154
 40
0.6153846153846154
 40
0.6923076923076923
 40
0.6923076923076923
 40
0.6923076923076923
 40
0.6923076923076923
 40
0.7692307692307693
 40
0.7692307692307693
 40
0.7692307692307693
 40
0.7692307692307693
 40
0.8461538461538461
 40
0.8461538461538461
 40
0.8461538461538461
 40
0.8461538461538461
 40
1.0
 40
1.0
 40
1.0
 40
1.0
 10
111.3213
 20
16.7358
 30
0.0
 10
107.6495
 20
12.5664
 30
0.0
 10
102.3411
 20
10.3321
 30
0.0
 10
96.9389
 20
10.4146
 30
0.0
 10
96.9389
 20
10.4146
 30
0.0
 10
91.5366
 20
10.497
 30
0.0
 10
86.0404
 20
12.8961
 30
0.0
 10
79.2073
 20
18.036
 30
0.0
 10
79.2073
 20
18.036
 30
0.0
 10
79.148
 20
17.9555
 30
0.0
 10
79.0887
 20
17.8749
 30
0.0
 10
79.0295
 20
17.7944
 30
0.0
 10
79.0295
 20
17.7944
 30
0.0
 10
77.9437
 20
18.5736
 30
0.0
 10
76.858
 20
19.3526
 30
0.0
 10
75.7723
 20
20.1319
 30
0.0
 10
75.7723
 20
20.1319
 30
0.0
 10
75.2168
 20
19.3777
 30
0.0
 10
74.6613
 20
18.6234
 30
0.0
 10
74.1059
 20
17.8693
 30
0.0
 10
74.1059
 20
17.8693
 30
0.0
 10
75.1702
 20
17.0615
 30
0.0
 10
76.2344
 20
16.2538
 30
0.0
 10
77.2987
 20
15.4459
 30
0.0
 10
77.2987
 20
15.4459
 30
0.0
 10
81.5869
 20
10.0902
 30
0.0
 10
88.3298
 20
6.0397
 30
0.0
 10
95.279
 20
5.6573
 30
0.0
 10
95.279
 20
5.6573
 30
0.0
 10
102.228
 20
5.2749
 30
0.0
 10
109.3833
 20
8.5607
 30
0.0
 10
113.8575
 20
13.9522
 30
0.0
 10
113.8575
 20
13.9522
 30
0.0
 10
114.042
 20
14.1666
 30
0.0
 10
114.1981
 20
14.3961
 30
0.0
 10
114.3014
 20
14.6511
 30
0.0
 10
114.3014
 20
14.6511
 30
0.0
 10
114.5476
 20
15.2591
 30
0.0
 10
114.4931
 20
16.0116
 30
0.0
 10
114.0841
 20
16.5439
 30
0.0
 10
114.0841
 20
16.5439
 30
0.0
 10
113.6751
 20
17.0764
 30
0.0
 10
112.9115
 20
17.3889
 30
0.0
 10
112.2879
 20
17.2738
 30
0.0
 10
112.2879
 20
17.2738
 30
0.0
 10
111.9273
 20
17.2074
 30
0.0
 10
111.6136
 20
16.9982
 30
0.0
 10
111.3213
 20
16.7358
 30
0.0
  0
SPLINE
  5
59
330
1F
100
AcDbEntity
  8
Vrstva 1
 62
   242
370
     9
100
AcDbSpline
210
0.0
220
0.0
230
1.0
 70
    11
 71
     3
 72
    52
 73
    48
 74
     0
 42
0.0000000001
 43
0.0000000001
 40
0.0
 40
0.0
 40
0.0
 40
0.0
 40
0.0769230769230769
 40
0.0769230769230769
 40
0.0769230769230769
 40
0.0769230769230769
 40
0.1538461538461539
 40
0.1538461538461539
 40
0.1538461538461539
 40
0.1538461538461539
 40
0.2307692307692308
 40
0.2307692307692308
 40
0.2307692307692308
 40
0.2307692307692308
 40
0.3076923076923077
 40
0.3076923076923077
 40
0.3076923076923077
 40
0.3076923076923077
 40
0.3846153846153846
 40
0.3846153846153846
 40
0.3846153846153846
 40
0.3846153846153846
 40
0.4615384615384616
 40
0.4615384615384616
 40
0.4615384615384616
 40
0.4615384615384616
 40
0.5384615384615384
 40
0.5384615384615384
 40
0.5384615384615384
 40
0.5384615384615384
 40
0.6153846153846154
 40
0.6153846153846154
 40
0.6153846153846154
 40
0.6153846153846154
 40
0.6923076923076923
 40
0.6923076923076923
 40
0.6923076923076923
 40
0.6923076923076923
 40
0.7692307692307693
 40
0.7692307692307693
 40
0.7692307692307693
 40
0.7692307692307693
 40
0.8461538461538461
 40
0.8461538461538461
 40
0.8461538461538461
 40
0.8461538461538461
 40
1.0
 40
1.0
 40
1.0
 40
1.0
 10
111.5482
 20
9.1801
 30
0.0
 10
107.8764
 20
5.0107
 30
0.0
 10
102.5681
 20
2.7764
 30
0.0
 10
97.1658
 20
2.8589
 30
0.0
 10
97.1658
 20
2.8589
 30
0.0
 10
91.7635
 20
2.9413
 30
0.0
 10
86.2673
 20
5.3404
 30
0.0
 10
79.4342
 20
10.4803
 30
0.0
 10
79.4342
 20
10.4803
 30
0.0
 10
79.3749
 20
10.3998
 30
0.0
 10
79.3157
 20
10.3193
 30
0.0
 10
79.2564
 20
10.2387
 30
0.0
 10
79.2564
 20
10.2387
 30
0.0
 10
78.1706
 20
11.0179
 30
0.0
 10
77.0849
 20
11.797
 30
0.0
 10
75.9992
 20
12.5762
 30
0.0
 10
75.9992
 20
12.5762
 30
0.0
 10
75.4437
 20
11.822
 30
0.0
 10
74.8883
 20
11.0678
 30
0.0
 10
74.3328
 20
10.3136
 30
0.0
 10
74.3328
 20
10.3136
 30
0.0
 10
75.3971
 20
9.5058
 30
0.0
 10
76.4613
 20
8.6981
 30
0.0
 10
77.5256
 20
7.8902
 30
0.0
 10
77.5256
 20
7.8902
 30
0.0
 10
81.8138
 20
2.5345
 30
0.0
 10
88.5567
 20
-1.516
 30
0.0
 10
95.5059
 20
-1.8984
 30
0.0
 10
95.5059
 20
-1.8984
 30
0.0
 10
102.4549
 20
-2.2808
 30
0.0
 10
109.6102
 20
1.005
 30
0.0
 10
114.0844
 20
6.3965
 30
0.0
 10
114.0844
 20
6.3965
 30
0.0
 10
114.2689
 20
6.6109
 30
0.0
 10
114.4251
 20
6.8404
 30
0.0
 10
114.5283
 20
7.0955
 30
0.0
 10
114.5283
 20
7.0955
 30
0.0
 10
114.7745
 20
7.7034
 30
0.0
 10
114.7201
 20
8.4559
 30
0.0
 10
114.311
 20
8.9882
 30
0.0
 10
114.311
 20
8.9882
 30
0.0
 10
113.9021
 20
9.5207
 30
0.0
 10
113.1384
 20
9.8332
 30
0.0
 10
112.5148
 20
9.7182
 30
0.0
 10
112.5148
 20
9.7182
 30
0.0
 10
112.1543
 20
9.6517
 30
0.0
 10
111.8406
 20
9.4425
 30
0.0
 10
111.5482
 20
9.1801
 30
0.0
  0
SPLINE
  5
5A
330
1F
100
AcDbEntity
  8
Vrstva 1
 62
   242
370
     9
100
AcDbSpline
210
0.0
220
0.0
230
1.0
 70
    11
 71
     3
 72
    52
 73
    48
 74
     0
 42
0.0000000001
 43
0.0000000001
 40
0.0
 40
0.0
 40
0.0
 40
0.0
 40
0.0769230769230769
 40
0.0769230769230769
 40
0.0769230769230769
 40
0.0769230769230769
 40
0.1538461538461539
 40
0.1538461538461539
 40
0.1538461538461539
 40
0.1538461538461539
 40
0.2307692307692308
 40
0.2307692307692308
 40
0.2307692307692308
 40
0.2307692307692308
 40
0.3076923076923077
 40
0.3076923076923077
 40
0.3076923076923077
 40
0.3076923076923077
 40
0.3846153846153846
 40
0.3846153846153846
 40
0.3846153846153846
 40
0.3846153846153846
 40
0.4615384615384616
 40
0.4615384615384616
 40
0.4615384615384616
 40
0.4615384615384616
 40
0.5384615384615384
 40
0.5384615384615384
 40
0.5384615384615384
 40
0.5384615384615384
 40
0.6153846153846154
 40
0.6153846153846154
 40
0.6153846153846154
 40
0.6153846153846154
 40
0.6923076923076923
 40
0.6923076923076923
 40
0.6923076923076923
 40
0.6923076923076923
 40
0.7692307692307693
 40
0.7692307692307693
 40
0.7692307692307693
 40
0.7692307692307693
 40
0.8461538461538461
 40
0.8461538461538461
 40
0.8461538461538461
 40
0.8461538461538461
 40
1.0
 40
1.0
 40
1.0
 40
1.0
 10
112.0572
 20
1.6517
 30
0.0
 10
108.3854
 20
-2.5177
 30
0.0
 10
103.077
 20
-4.752
 30
0.0
 10
97.6747
 20
-4.6695
 30
0.0
 10
97.6747
 20
-4.6695
 30
0.0
 10
92.2725
 20
-4.5871
 30
0.0
 10
86.7763
 20
-2.188
 30
0.0
 10
79.9432
 20
2.9519
 30
0.0
 10
79.9432
 20
2.9519
 30
0.0
 10
79.8839
 20
2.8714
 30
0.0
 10
79.8246
 20
2.7908
 30
0.0
 10
79.7653
 20
2.7103
 30
0.0
 10
79.7653
 20
2.7103
 30
0.0
 10
78.6796
 20
3.4895
 30
0.0
 10
77.5939
 20
4.2685
 30
0.0
 10
76.5082
 20
5.0478
 30
0.0
 10
76.5082
 20
5.0478
 30
0.0
 10
75.9527
 20
4.2936
 30
0.0
 10
75.3972
 20
3.5394
 30
0.0
 10
74.8418
 20
2.7852
 30
0.0
 10
74.8418
 20
2.7852
 30
0.0
 10
75.9061
 20
1.9774
 30
0.0
 10
76.9703
 20
1.1697
 30
0.0
 10
78.0345
 20
0.3618
 30
0.0
 10
78.0345
 20
0.3618
 30
0.0
 10
82.3228
 20
-4.9939
 30
0.0
 10
89.0657
 20
-9.0444
 30
0.0
 10
96.0148
 20
-9.4268
 30
0.0
 10
96.0148
 20
-9.4268
 30
0.0
 10
102.9638
 20
-9.8092
 30
0.0
 10
110.1192
 20
-6.5234
 30
0.0
 10
114.5933
 20
-1.1319
 30
0.0
 10
114.5933
 20
-1.1319
 30
0.0
 10
114.7779
 20
-0.9175
 30
0.0
 10
114.934
 20
-0.688
 30
0.0
 10
115.0373
 20
-0.433
 30
0.0
 10
115.0373
 20
-0.433
 30
0.0
 10
115.2835
 20
0.175
 30
0.0
 10
115.229
 20
0.9275
 30
0.0
 10
114.82
 20
1.4598
 30
0.0
 10
114.82
 20
1.4598
 30
0.0
 10
114.411
 20
1.9923
 30
0.0
 10
113.6474
 20
2.3048
 30
0.0
 10
113.0238
 20
2.1898
 30
0.0
 10
113.0238
 20
2.1898
 30
0.0
 10
112.6632
 20
2.1233
 30
0.0
 10
112.3495
 20
1.9141
 30
0.0
 10
112.0572
 20
1.6517
 30
0.0
  0
SPLINE
  5
5B
330
1F
100
AcDbEntity
  8
Vrstva 1
 62
   242
370
     9
100
AcDbSpline
210
0.0
220
0.0
230
1.0
 70
    11
 71
     3
 72
    56
 73
    52
 74
     0
 42
0.0000000001
 43
0.0000000001
 40
0.0
 40
0.0
 40
0.0
 40
0.0
 40
0.0714285714285714
 40
0.0714285714285714
 40
0.0714285714285714
 40
0.0714285714285714
 40
0.1428571428571428
 40
0.1428571428571428
 40
0.1428571428571428
 40
0.1428571428571428
 40
0.2142857142857143
 40
0.2142857142857143
 40
0.2142857142857143
 40
0.2142857142857143
 40
0.2857142857142857
 40
0.2857142857142857
 40
0.2857142857142857
 40
0.2857142857142857
 40
0.3571428571428572
 40
0.3571428571428572
 40
0.3571428571428572
 40
0.3571428571428572
 40
0.4285714285714285
 40
0.4285714285714285
 40
0.4285714285714285
 40
0.4285714285714285
 40
0.5
 40
0.5
 40
0.5
 40
0.5
 40
0.5714285714285714
 40
0.5714285714285714
 40
0.5714285714285714
 40
0.5714285714285714
 40
0.6428571428571429
 40
0.6428571428571429
 40
0.6428571428571429
 40
0.6428571428571429
 40
0.7142857142857143
 40
0.7142857142857143
 40
0.7142857142857143
 40
0.7142857142857143
 40
0.7857142857142857
 40
0.7857142857142857
 40
0.7857142857142857
 40
0.7857142857142857
 40
0.8571428571428571
 40
0.8571428571428571
 40
0.8571428571428571
 40
0.8571428571428571
 40
1.0
 40
1.0
 40
1.0
 40
1.0
 10
36.8453
 20
38.1453
 30
0.0
 10
36.2505
 20
39.3254
 30
0.0
 10
35.6557
 20
40.5057
 30
0.0
 10
35.061
 20
41.6858
 30
0.0
 10
35.061
 20
41.6858
 30
0.0
 10
34.2181
 20
41.2765
 30
0.0
 10
33.3751
 20
40.8672
 30
0.0
 10
32.5323
 20
40.4578
 30
0.0
 10
32.5323
 20
40.4578
 30
0.0
 10
33.0954
 20
39.2617
 30
0.0
 10
33.6587
 20
38.0655
 30
0.0
 10
34.2219
 20
36.8693
 30
0.0
 10
34.2219
 20
36.8693
 30
0.0
 10
34.6707
 20
35.9754
 30
0.0
 10
35.1197
 20
35.0815
 30
0.0
 10
35.5686
 20
34.1878
 30
0.0
 10
35.5686
 20
34.1878
 30
0.0
 10
35.9083
 20
33.4895
 30
0.0
 10
36.3284
 20
32.8266
 30
0.0
 10
36.8341
 20
32.2318
 30
0.0
 10
36.8341
 20
32.2318
 30
0.0
 10
37.5474
 20
31.393
 30
0.0
 10
38.4312
 20
30.6897
 30
0.0
 10
39.3952
 20
30.1469
 30
0.0
 10
39.3952
 20
30.1469
 30
0.0
 10
45.5004
 20
27.6897
 30
0.0
 10
51.9102
 20
28.53
 30
0.0
 10
57.5619
 20
32.0634
 30
0.0
 10
57.5619
 20
32.0634
 30
0.0
 10
60.6378
 20
33.9864
 30
0.0
 10
63.0036
 20
36.3179
 30
0.0
 10
65.002
 20
39.3398
 30
0.0
 10
65.002
 20
39.3398
 30
0.0
 10
65.5559
 20
40.1774
 30
0.0
 10
67.1913
 20
42.9243
 30
0.0
 10
67.3649
 20
43.9932
 30
0.0
 10
67.3649
 20
43.9932
 30
0.0
 10
67.7083
 20
46.107
 30
0.0
 10
64.7334
 20
46.9456
 30
0.0
 10
63.9224
 20
44.9636
 30
0.0
 10
63.9224
 20
44.9636
 30
0.0
 10
62.0506
 20
39.9376
 30
0.0
 10
57.707
 20
35.7311
 30
0.0
 10
52.5564
 20
34.2009
 30
0.0
 10
52.5564
 20
34.2009
 30
0.0
 10
47.4058
 20
32.6709
 30
0.0
 10
41.4483
 20
33.8174
 30
0.0
 10
37.1152
 20
38.2764
 30
0.0
 10
37.1152
 20
38.2764
 30
0.0
 10
37.0252
 20
38.2327
 30
0.0
 10
36.9353
 20
38.189
 30
0.0
 10
36.8453
 20
38.1453
 30
0.0
  0
SPLINE
  5
5C
330
1F
100
AcDbEntity
  8
Vrstva 1
 62
   242
370
     9
100
AcDbSpline
210
0.0
220
0.0
230
1.0
 70
    11
 71
     3
 72
    56
 73
    52
 74
     0
 42
0.0000000001
 43
0.0000000001
 40
0.0
 40
0.0
 40
0.0
 40
0.0
 40
0.0714285714285714
 40
0.0714285714285714
 40
0.0714285714285714
 40
0.0714285714285714
 40
0.1428571428571428
 40
0.1428571428571428
 40
0.1428571428571428
 40
0.1428571428571428
 40
0.2142857142857143
 40
0.2142857142857143
 40
0.2142857142857143
 40
0.2142857142857143
 40
0.2857142857142857
 40
0.2857142857142857
 40
0.2857142857142857
 40
0.2857142857142857
 40
0.3571428571428572
 40
0.3571428571428572
 40
0.3571428571428572
 40
0.3571428571428572
 40
0.4285714285714285
 40
0.4285714285714285
 40
0.4285714285714285
 40
0.4285714285714285
 40
0.5
 40
0.5
 40
0.5
 40
0.5
 40
0.5714285714285714
 40
0.5714285714285714
 40
0.5714285714285714
 40
0.5714285714285714
 40
0.6428571428571429
 40
0.6428571428571429
 40
0.6428571428571429
 40
0.6428571428571429
 40
0.7142857142857143
 40
0.7142857142857143
 40
0.7142857142857143
 40
0.7142857142857143
 40
0.7857142857142857
 40
0.7857142857142857
 40
0.7857142857142857
 40
0.7857142857142857
 40
0.8571428571428571
 40
0.8571428571428571
 40
0.8571428571428571
 40
0.8571428571428571
 40
1.0
 40
1.0
 40
1.0
 40
1.0
 10
37.065
 20
28.4221
 30
0.0
 10
36.4702
 20
29.6022
 30
0.0
 10
35.8754
 20
30.7825
 30
0.0
 10
35.2806
 20
31.9626
 30
0.0
 10
35.2806
 20
31.9626
 30
0.0
 10
34.4377
 20
31.5533
 30
0.0
 10
33.5948
 20
31.1439
 30
0.0
 10
32.7519
 20
30.7346
 30
0.0
 10
32.7519
 20
30.7346
 30
0.0
 10
33.3151
 20
29.5385
 30
0.0
 10
33.8783
 20
28.3422
 30
0.0
 10
34.4415
 20
27.1461
 30
0.0
 10
34.4415
 20
27.1461
 30
0.0
 10
34.8904
 20
26.2522
 30
0.0
 10
35.3394
 20
25.3583
 30
0.0
 10
35.7883
 20
24.4645
 30
0.0
 10
35.7883
 20
24.4645
 30
0.0
 10
36.1279
 20
23.7663
 30
0.0
 10
36.548
 20
23.1034
 30
0.0
 10
37.0537
 20
22.5086
 30
0.0
 10
37.0537
 20
22.5086
 30
0.0
 10
37.7671
 20
21.6698
 30
0.0
 10
38.6509
 20
20.9665
 30
0.0
 10
39.6149
 20
20.4237
 30
0.0
 10
39.6149
 20
20.4237
 30
0.0
 10
45.72
 20
17.9665
 30
0.0
 10
52.1299
 20
18.8068
 30
0.0
 10
57.7815
 20
22.3401
 30
0.0
 10
57.7815
 20
22.3401
 30
0.0
 10
60.8574
 20
24.2631
 30
0.0
 10
63.2233
 20
26.5946
 30
0.0
 10
65.2217
 20
29.6166
 30
0.0
 10
65.2217
 20
29.6166
 30
0.0
 10
65.7755
 20
30.4541
 30
0.0
 10
67.411
 20
33.2011
 30
0.0
 10
67.5846
 20
34.27
 30
0.0
 10
67.5846
 20
34.27
 30
0.0
 10
67.9279
 20
36.3837
 30
0.0
 10
64.9531
 20
37.2224
 30
0.0
 10
64.1421
 20
35.2404
 30
0.0
 10
64.1421
 20
35.2404
 30
0.0
 10
62.2703
 20
30.2143
 30
0.0
 10
57.9266
 20
26.0079
 30
0.0
 10
52.776
 20
24.4777
 30
0.0
 10
52.776
 20
24.4777
 30
0.0
 10
47.6255
 20
22.9477
 30
0.0
 10
41.6679
 20
24.0941
 30
0.0
 10
37.3348
 20
28.5531
 30
0.0
 10
37.3348
 20
28.5531
 30
0.0
 10
37.2449
 20
28.5094
 30
0.0
 10
37.1549
 20
28.4658
 30
0.0
 10
37.065
 20
28.4221
 30
0.0
  0
SPLINE
  5
5D
330
1F
100
AcDbEntity
  8
Vrstva 1
 62
   242
370
     9
100
AcDbSpline
210
0.0
220
0.0
230
1.0
 70
    11
 71
     3
 72
    56
 73
    52
 74
     0
 42
0.0000000001
 43
0.0000000001
 40
0.0
 40
0.0
 40
0.0
 40
0.0
 40
0.0714285714285714
 40
0.0714285714285714
 40
0.0714285714285714
 40
0.0714285714285714
 40
0.1428571428571428
 40
0.1428571428571428
 40
0.1428571428571428
 40
0.1428571428571428
 40
0.2142857142857143
 40
0.2142857142857143
 40
0.2142857142857143
 40
0.2142857142857143
 40
0.2857142857142857
 40
0.2857142857142857
 40
0.2857142857142857
 40
0.2857142857142857
 40
0.3571428571428572
 40
0.3571428571428572
 40
0.3571428571428572
 40
0.3571428571428572
 40
0.4285714285714285
 40
0.4285714285714285
 40
0.4285714285714285
 40
0.4285714285714285
 40
0.5
 40
0.5
 40
0.5
 40
0.5
 40
0.5714285714285714
 40
0.5714285714285714
 40
0.5714285714285714
 40
0.5714285714285714
 40
0.6428571428571429
 40
0.6428571428571429
 40
0.6428571428571429
 40
0.6428571428571429
 40
0.7142857142857143
 40
0.7142857142857143
 40
0.7142857142857143
 40
0.7142857142857143
 40
0.7857142857142857
 40
0.7857142857142857
 40
0.7857142857142857
 40
0.7857142857142857
 40
0.8571428571428571
 40
0.8571428571428571
 40
0.8571428571428571
 40
0.8571428571428571
 40
1.0
 40
1.0
 40
1.0
 40
1.0
 10
37.2245
 20
19.1603
 30
0.0
 10
36.6297
 20
20.3404
 30
0.0
 10
36.0349
 20
21.5207
 30
0.0
 10
35.4401
 20
22.7008
 30
0.0
 10
35.4401
 20
22.7008
 30
0.0
 10
34.5973
 20
22.2915
 30
0.0
 10
33.7543
 20
21.8821
 30
0.0
 10
32.9114
 20
21.4728
 30
0.0
 10
32.9114
 20
21.4728
 30
0.0
 10
33.4746
 20
20.2767
 30
0.0
 10
34.0379
 20
19.0804
 30
0.0
 10
34.601
 20
17.8843
 30
0.0
 10
34.601
 20
17.8843
 30
0.0
 10
35.0499
 20
16.9904
 30
0.0
 10
35.4989
 20
16.0965
 30
0.0
 10
35.9478
 20
15.2027
 30
0.0
 10
35.9478
 20
15.2027
 30
0.0
 10
36.2875
 20
14.5045
 30
0.0
 10
36.7075
 20
13.8416
 30
0.0
 10
37.2132
 20
13.2468
 30
0.0
 10
37.2132
 20
13.2468
 30
0.0
 10
37.9266
 20
12.408
 30
0.0
 10
38.8104
 20
11.7047
 30
0.0
 10
39.7744
 20
11.1619
 30
0.0
 10
39.7744
 20
11.1619
 30
0.0
 10
45.8796
 20
8.7047
 30
0.0
 10
52.2894
 20
9.545
 30
0.0
 10
57.9411
 20
13.0783
 30
0.0
 10
57.9411
 20
13.0783
 30
0.0
 10
61.0169
 20
15.0013
 30
0.0
 10
63.3828
 20
17.3328
 30
0.0
 10
65.3812
 20
20.3548
 30
0.0
 10
65.3812
 20
20.3548
 30
0.0
 10
65.9351
 20
21.1923
 30
0.0
 10
67.5705
 20
23.9393
 30
0.0
 10
67.7441
 20
25.0082
 30
0.0
 10
67.7441
 20
25.0082
 30
0.0
 10
68.0875
 20
27.1219
 30
0.0
 10
65.1126
 20
27.9606
 30
0.0
 10
64.3016
 20
25.9786
 30
0.0
 10
64.3016
 20
25.9786
 30
0.0
 10
62.4298
 20
20.9526
 30
0.0
 10
58.0862
 20
16.7461
 30
0.0
 10
52.9356
 20
15.2159
 30
0.0
 10
52.9356
 20
15.2159
 30
0.0
 10
47.785
 20
13.6859
 30
0.0
 10
41.8275
 20
14.8323
 30
0.0
 10
37.4944
 20
19.2913
 30
0.0
 10
37.4944
 20
19.2913
 30
0.0
 10
37.4044
 20
19.2477
 30
0.0
 10
37.3144
 20
19.204
 30
0.0
 10
37.2245
 20
19.1603
 30
0.0
  0
SPLINE
  5
5E
330
1F
100
AcDbEntity
  8
Vrstva 1
 62
   242
370
     9
100
AcDbSpline
210
0.0
220
0.0
230
1.0
 70
    11
 71
     3
 72
    56
 73
    52
 74
     0
 42
0.0000000001
 43
0.0000000001
 40
0.0
 40
0.0
 40
0.0
 40
0.0
 40
0.0714285714285714
 40
0.0714285714285714
 40
0.0714285714285714
 40
0.0714285714285714
 40
0.1428571428571428
 40
0.1428571428571428
 40
0.1428571428571428
 40
0.1428571428571428
 40
0.2142857142857143
 40
0.2142857142857143
 40
0.2142857142857143
 40
0.2142857142857143
 40
0.2857142857142857
 40
0.2857142857142857
 40
0.2857142857142857
 40
0.2857142857142857
 40
0.3571428571428572
 40
0.3571428571428572
 40
0.3571428571428572
 40
0.3571428571428572
 40
0.4285714285714285
 40
0.4285714285714285
 40
0.4285714285714285
 40
0.4285714285714285
 40
0.5
 40
0.5
 40
0.5
 40
0.5
 40
0.5714285714285714
 40
0.5714285714285714
 40
0.5714285714285714
 40
0.5714285714285714
 40
0.6428571428571429
 40
0.6428571428571429
 40
0.6428571428571429
 40
0.6428571428571429
 40
0.7142857142857143
 40
0.7142857142857143
 40
0.7142857142857143
 40
0.7142857142857143
 40
0.7857142857142857
 40
0.7857142857142857
 40
0.7857142857142857
 40
0.7857142857142857
 40
0.8571428571428571
 40
0.8571428571428571
 40
0.8571428571428571
 40
0.8571428571428571
 40
1.0
 40
1.0
 40
1.0
 40
1.0
 10
37.2691
 20
9.5566
 30
0.0
 10
36.6744
 20
10.7367
 30
0.0
 10
36.0796
 20
11.917
 30
0.0
 10
35.4848
 20
13.0971
 30
0.0
 10
35.4848
 20
13.0971
 30
0.0
 10
34.6419
 20
12.6878
 30
0.0
 10
33.7989
 20
12.2784
 30
0.0
 10
32.9561
 20
11.8691
 30
0.0
 10
32.9561
 20
11.8691
 30
0.0
 10
33.5193
 20
10.673
 30
0.0
 10
34.0825
 20
9.4768
 30
0.0
 10
34.6457
 20
8.2806
 30
0.0
 10
34.6457
 20
8.2806
 30
0.0
 10
35.0946
 20
7.3867
 30
0.0
 10
35.5435
 20
6.4928
 30
0.0
 10
35.9925
 20
5.5991
 30
0.0
 10
35.9925
 20
5.5991
 30
0.0
 10
36.3321
 20
4.9008
 30
0.0
 10
36.7522
 20
4.2379
 30
0.0
 10
37.2579
 20
3.6431
 30
0.0
 10
37.2579
 20
3.6431
 30
0.0
 10
37.9713
 20
2.8043
 30
0.0
 10
38.8551
 20
2.101
 30
0.0
 10
39.819
 20
1.5582
 30
0.0
 10
39.819
 20
1.5582
 30
0.0
 10
45.9242
 20
-0.899
 30
0.0
 10
52.334
 20
-0.0587
 30
0.0
 10
57.9857
 20
3.4746
 30
0.0
 10
57.9857
 20
3.4746
 30
0.0
 10
61.0616
 20
5.3977
 30
0.0
 10
63.4275
 20
7.7292
 30
0.0
 10
65.4258
 20
10.7511
 30
0.0
 10
65.4258
 20
10.7511
 30
0.0
 10
65.9797
 20
11.5887
 30
0.0
 10
67.6151
 20
14.3356
 30
0.0
 10
67.7888
 20
15.4045
 30
0.0
 10
67.7888
 20
15.4045
 30
0.0
 10
68.1321
 20
17.5183
 30
0.0
 10
65.1572
 20
18.3569
 30
0.0
 10
64.3462
 20
16.3749
 30
0.0
 10
64.3462
 20
16.3749
 30
0.0
 10
62.4744
 20
11.3489
 30
0.0
 10
58.1308
 20
7.1424
 30
0.0
 10
52.9802
 20
5.6122
 30
0.0
 10
52.9802
 20
5.6122
 30
0.0
 10
47.8297
 20
4.0822
 30
0.0
 10
41.8721
 20
5.2287
 30
0.0
 10
37.539
 20
9.6877
 30
0.0
 10
37.539
 20
9.6877
 30
0.0
 10
37.449
 20
9.644
 30
0.0
 10
37.3591
 20
9.6003
 30
0.0
 10
37.2691
 20
9.5566
 30
0.0
  0
SPLINE
  5
5F
330
1F
100
AcDbEntity
  8
Vrstva 1
 62
   242
370
     9
100
AcDbSpline
210
0.0
220
0.0
230
1.0
 70
    11
 71
     3
 72
    56
 73
    52
 74
     0
 42
0.0000000001
 43
0.0000000001
 40
0.0
 40
0.0
 40
0.0
 40
0.0
 40
0.0714285714285714
 40
0.0714285714285714
 40
0.0714285714285714
 40
0.0714285714285714
 40
0.1428571428571428
 40
0.1428571428571428
 40
0.1428571428571428
 40
0.1428571428571428
 40
0.2142857142857143
 40
0.2142857142857143
 40
0.2142857142857143
 40
0.2142857142857143
 40
0.2857142857142857
 40
0.2857142857142857
 40
0.2857142857142857
 40
0.2857142857142857
 40
0.3571428571428572
 40
0.3571428571428572
 40
0.3571428571428572
 40
0.3571428571428572
 40
0.4285714285714285
 40
0.4285714285714285
 40
0.4285714285714285
 40
0.4285714285714285
 40
0.5
 40
0.5
 40
0.5
 40
0.5
 40
0.5714285714285714
 40
0.5714285714285714
 40
0.5714285714285714
 40
0.5714285714285714
 40
0.6428571428571429
 40
0.6428571428571429
 40
0.6428571428571429
 40
0.6428571428571429
 40
0.7142857142857143
 40
0.7142857142857143
 40
0.7142857142857143
 40
0.7142857142857143
 40
0.7857142857142857
 40
0.7857142857142857
 40
0.7857142857142857
 40
0.7857142857142857
 40
0.8571428571428571
 40
0.8571428571428571
 40
0.8571428571428571
 40
0.8571428571428571
 40
1.0
 40
1.0
 40
1.0
 40
1.0
 10
37.0615
 20
-0.5711
 30
0.0
 10
36.4668
 20
0.609
 30
0.0
 10
35.872
 20
1.7893
 30
0.0
 10
35.2772
 20
2.9694
 30
0.0
 10
35.2772
 20
2.9694
 30
0.0
 10
34.4343
 20
2.5601
 30
0.0
 10
33.5914
 20
2.1507
 30
0.0
 10
32.7485
 20
1.7414
 30
0.0
 10
32.7485
 20
1.7414
 30
0.0
 10
33.3117
 20
0.5453
 30
0.0
 10
33.8749
 20
-0.651
 30
0.0
 10
34.4381
 20
-1.8471
 30
0.0
 10
34.4381
 20
-1.8471
 30
0.0
 10
34.887
 20
-2.741
 30
0.0
 10
35.3359
 20
-3.6349
 30
0.0
 10
35.7849
 20
-4.5287
 30
0.0
 10
35.7849
 20
-4.5287
 30
0.0
 10
36.1245
 20
-5.2269
 30
0.0
 10
36.5446
 20
-5.8898
 30
0.0
 10
37.0503
 20
-6.4846
 30
0.0
 10
37.0503
 20
-6.4846
 30
0.0
 10
37.7637
 20
-7.3234
 30
0.0
 10
38.6475
 20
-8.0267
 30
0.0
 10
39.6114
 20
-8.5695
 30
0.0
 10
39.6114
 20
-8.5695
 30
0.0
 10
45.7166
 20
-11.0267
 30
0.0
 10
52.1265
 20
-10.1864
 30
0.0
 10
57.7781
 20
-6.6531
 30
0.0
 10
57.7781
 20
-6.6531
 30
0.0
 10
60.854
 20
-4.7301
 30
0.0
 10
63.2199
 20
-2.3986
 30
0.0
 10
65.2183
 20
0.6234
 30
0.0
 10
65.2183
 20
0.6234
 30
0.0
 10
65.7721
 20
1.4609
 30
0.0
 10
67.4076
 20
4.2079
 30
0.0
 10
67.5812
 20
5.2768
 30
0.0
 10
67.5812
 20
5.2768
 30
0.0
 10
67.9245
 20
7.3905
 30
0.0
 10
64.9496
 20
8.2292
 30
0.0
 10
64.1386
 20
6.2472
 30
0.0
 10
64.1386
 20
6.2472
 30
0.0
 10
62.2668
 20
1.2211
 30
0.0
 10
57.9232
 20
-2.9853
 30
0.0
 10
52.7726
 20
-4.5155
 30
0.0
 10
52.7726
 20
-4.5155
 30
0.0
 10
47.6221
 20
-6.0455
 30
0.0
 10
41.6645
 20
-4.8991
 30
0.0
 10
37.3314
 20
-0.4401
 30
0.0
 10
37.3314
 20
-0.4401
 30
0.0
 10
37.2414
 20
-0.4837
 30
0.0
 10
37.1515
 20
-0.5274
 30
0.0
 10
37.0615
 20
-0.5711
 30
0.0
  0
SPLINE
  5
60
330
1F
100
AcDbEntity
  8
Vrstva 1
 62
   242
370
     9
100
AcDbSpline
210
0.0
220
0.0
230
1.0
 70
    11
 71
     3
 72
    56
 73
    52
 74
     0
 42
0.0000000001
 43
0.0000000001
 40
0.0
 40
0.0
 40
0.0
 40
0.0
 40
0.0714285714285714
 40
0.0714285714285714
 40
0.0714285714285714
 40
0.0714285714285714
 40
0.1428571428571428
 40
0.1428571428571428
 40
0.1428571428571428
 40
0.1428571428571428
 40
0.2142857142857143
 40
0.2142857142857143
 40
0.2142857142857143
 40
0.2142857142857143
 40
0.2857142857142857
 40
0.2857142857142857
 40
0.2857142857142857
 40
0.2857142857142857
 40
0.3571428571428572
 40
0.3571428571428572
 40
0.3571428571428572
 40
0.3571428571428572
 40
0.4285714285714285
 40
0.4285714285714285
 40
0.4285714285714285
 40
0.4285714285714285
 40
0.5
 40
0.5
 40
0.5
 40
0.5
 40
0.5714285714285714
 40
0.5714285714285714
 40
0.5714285714285714
 40
0.5714285714285714
 40
0.6428571428571429
 40
0.6428571428571429
 40
0.6428571428571429
 40
0.6428571428571429
 40
0.7142857142857143
 40
0.7142857142857143
 40
0.7142857142857143
 40
0.7142857142857143
 40
0.7857142857142857
 40
0.7857142857142857
 40
0.7857142857142857
 40
0.7857142857142857
 40
0.8571428571428571
 40
0.8571428571428571
 40
0.8571428571428571
 40
0.8571428571428571
 40
1.0
 40
1.0
 40
1.0
 40
1.0
 10
36.916
 20
-11.1325
 30
0.0
 10
36.3213
 20
-9.9524
 30
0.0
 10
35.7264
 20
-8.7721
 30
0.0
 10
35.1317
 20
-7.592
 30
0.0
 10
35.1317
 20
-7.592
 30
0.0
 10
34.2888
 20
-8.0013
 30
0.0
 10
33.4458
 20
-8.4107
 30
0.0
 10
32.603
 20
-8.82
 30
0.0
 10
32.603
 20
-8.82
 30
0.0
 10
33.1662
 20
-10.0161
 30
0.0
 10
33.7294
 20
-11.2124
 30
0.0
 10
34.2926
 20
-12.4085
 30
0.0
 10
34.2926
 20
-12.4085
 30
0.0
 10
34.7414
 20
-13.3024
 30
0.0
 10
35.1904
 20
-14.1963
 30
0.0
 10
35.6393
 20
-15.0901
 30
0.0
 10
35.6393
 20
-15.0901
 30
0.0
 10
35.979
 20
-15.7883
 30
0.0
 10
36.3991
 20
-16.4512
 30
0.0
 10
36.9048
 20
-17.046
 30
0.0
 10
36.9048
 20
-17.046
 30
0.0
 10
37.6182
 20
-17.8848
 30
0.0
 10
38.502
 20
-18.5881
 30
0.0
 10
39.4659
 20
-19.1309
 30
0.0
 10
39.4659
 20
-19.1309
 30
0.0
 10
45.5711
 20
-21.5881
 30
0.0
 10
51.9809
 20
-20.7478
 30
0.0
 10
57.6326
 20
-17.2145
 30
0.0
 10
57.6326
 20
-17.2145
 30
0.0
 10
60.7085
 20
-15.2915
 30
0.0
 10
63.0744
 20
-12.96
 30
0.0
 10
65.0727
 20
-9.938
 30
0.0
 10
65.0727
 20
-9.938
 30
0.0
 10
65.6266
 20
-9.1005
 30
0.0
 10
67.262
 20
-6.3535
 30
0.0
 10
67.4356
 20
-5.2846
 30
0.0
 10
67.4356
 20
-5.2846
 30
0.0
 10
67.779
 20
-3.1709
 30
0.0
 10
64.8041
 20
-2.3322
 30
0.0
 10
63.9931
 20
-4.3142
 30
0.0
 10
63.9931
 20
-4.3142
 30
0.0
 10
62.1213
 20
-9.3403
 30
0.0
 10
57.7777
 20
-13.5467
 30
0.0
 10
52.6271
 20
-15.0769
 30
0.0
 10
52.6271
 20
-15.0769
 30
0.0
 10
47.4766
 20
-16.6069
 30
0.0
 10
41.519
 20
-15.4605
 30
0.0
 10
37.1859
 20
-11.0015
 30
0.0
 10
37.1859
 20
-11.0015
 30
0.0
 10
37.0959
 20
-11.0451
 30
0.0
 10
37.006
 20
-11.0888
 30
0.0
 10
36.916
 20
-11.1325
 30
0.0
  0
SPLINE
  5
61
330
1F
100
AcDbEntity
  8
Vrstva 1
 62
   242
370
     9
100
AcDbSpline
210
0.0
220
0.0
230
1.0
 70
    11
 71
     3
 72
    56
 73
    52
 74
     0
 42
0.0000000001
 43
0.0000000001
 40
0.0
 40
0.0
 40
0.0
 40
0.0
 40
0.0714285714285714
 40
0.0714285714285714
 40
0.0714285714285714
 40
0.0714285714285714
 40
0.1428571428571428
 40
0.1428571428571428
 40
0.1428571428571428
 40
0.1428571428571428
 40
0.2142857142857143
 40
0.2142857142857143
 40
0.2142857142857143
 40
0.2142857142857143
 40
0.2857142857142857
 40
0.2857142857142857
 40
0.2857142857142857
 40
0.2857142857142857
 40
0.3571428571428572
 40
0.3571428571428572
 40
0.3571428571428572
 40
0.3571428571428572
 40
0.4285714285714285
 40
0.4285714285714285
 40
0.4285714285714285
 40
0.4285714285714285
 40
0.5
 40
0.5
 40
0.5
 40
0.5
 40
0.5714285714285714
 40
0.5714285714285714
 40
0.5714285714285714
 40
0.5714285714285714
 40
0.6428571428571429
 40
0.6428571428571429
 40
0.6428571428571429
 40
0.6428571428571429
 40
0.7142857142857143
 40
0.7142857142857143
 40
0.7142857142857143
 40
0.7142857142857143
 40
0.7857142857142857
 40
0.7857142857142857
 40
0.7857142857142857
 40
0.7857142857142857
 40
0.8571428571428571
 40
0.8571428571428571
 40
0.8571428571428571
 40
0.8571428571428571
 40
1.0
 40
1.0
 40
1.0
 40
1.0
 10
29.7466
 20
-12.5381
 30
0.0
 10
30.3416
 20
-13.7182
 30
0.0
 10
30.9366
 20
-14.8983
 30
0.0
 10
31.5316
 20
-16.0783
 30
0.0
 10
31.5316
 20
-16.0783
 30
0.0
 10
32.3744
 20
-15.6688
 30
0.0
 10
33.2173
 20
-15.2593
 30
0.0
 10
34.0601
 20
-14.8498
 30
0.0
 10
34.0601
 20
-14.8498
 30
0.0
 10
33.4967
 20
-13.6538
 30
0.0
 10
32.9332
 20
-12.4576
 30
0.0
 10
32.3697
 20
-11.2616
 30
0.0
 10
32.3697
 20
-11.2616
 30
0.0
 10
31.9207
 20
-10.3678
 30
0.0
 10
31.4715
 20
-9.474
 30
0.0
 10
31.0224
 20
-8.5803
 30
0.0
 10
31.0224
 20
-8.5803
 30
0.0
 10
30.6826
 20
-7.8821
 30
0.0
 10
30.2624
 20
-7.2193
 30
0.0
 10
29.7566
 20
-6.6247
 30
0.0
 10
29.7566
 20
-6.6247
 30
0.0
 10
29.043
 20
-5.786
 30
0.0
 10
28.1591
 20
-5.0829
 30
0.0
 10
27.195
 20
-4.5403
 30
0.0
 10
27.195
 20
-4.5403
 30
0.0
 10
21.0893
 20
-2.0843
 30
0.0
 10
14.6796
 20
-2.9259
 30
0.0
 10
9.0287
 20
-6.4605
 30
0.0
 10
9.0287
 20
-6.4605
 30
0.0
 10
5.9533
 20
-8.3841
 30
0.0
 10
3.5878
 20
-10.7161
 30
0.0
 10
1.5901
 20
-13.7385
 30
0.0
 10
1.5901
 20
-13.7385
 30
0.0
 10
1.0364
 20
-14.5762
 30
0.0
 10
-0.5985
 20
-17.3235
 30
0.0
 10
-0.7719
 20
-18.3924
 30
0.0
 10
-0.7719
 20
-18.3924
 30
0.0
 10
-1.1148
 20
-20.5062
 30
0.0
 10
1.8603
 20
-21.3442
 30
0.0
 10
2.6709
 20
-19.3621
 30
0.0
 10
2.6709
 20
-19.3621
 30
0.0
 10
4.5416
 20
-14.3356
 30
0.0
 10
8.8844
 20
-10.1282
 30
0.0
 10
14.0346
 20
-8.597
 30
0.0
 10
14.0346
 20
-8.597
 30
0.0
 10
19.1849
 20
-7.066
 30
0.0
 10
25.1427
 20
-8.2111
 30
0.0
 10
29.4767
 20
-12.6692
 30
0.0
 10
29.4767
 20
-12.6692
 30
0.0
 10
29.5667
 20
-12.6255
 30
0.0
 10
29.6566
 20
-12.5818
 30
0.0
 10
29.7466
 20
-12.5381
 30
0.0
  0
SPLINE
  5
62
330
1F
100
AcDbEntity
  8
Vrstva 1
 62
   242
370
     9
100
AcDbSpline
210
0.0
220
0.0
230
1.0
 70
    11
 71
     3
 72
    56
 73
    52
 74
     0
 42
0.0000000001
 43
0.0000000001
 40
0.0
 40
0.0
 40
0.0
 40
0.0
 40
0.0714285714285714
 40
0.0714285714285714
 40
0.0714285714285714
 40
0.0714285714285714
 40
0.1428571428571428
 40
0.1428571428571428
 40
0.1428571428571428
 40
0.1428571428571428
 40
0.2142857142857143
 40
0.2142857142857143
 40
0.2142857142857143
 40
0.2142857142857143
 40
0.2857142857142857
 40
0.2857142857142857
 40
0.2857142857142857
 40
0.2857142857142857
 40
0.3571428571428572
 40
0.3571428571428572
 40
0.3571428571428572
 40
0.3571428571428572
 40
0.4285714285714285
 40
0.4285714285714285
 40
0.4285714285714285
 40
0.4285714285714285
 40
0.5
 40
0.5
 40
0.5
 40
0.5
 40
0.5714285714285714
 40
0.5714285714285714
 40
0.5714285714285714
 40
0.5714285714285714
 40
0.6428571428571429
 40
0.6428571428571429
 40
0.6428571428571429
 40
0.6428571428571429
 40
0.7142857142857143
 40
0.7142857142857143
 40
0.7142857142857143
 40
0.7142857142857143
 40
0.7857142857142857
 40
0.7857142857142857
 40
0.7857142857142857
 40
0.7857142857142857
 40
0.8571428571428571
 40
0.8571428571428571
 40
0.8571428571428571
 40
0.8571428571428571
 40
1.0
 40
1.0
 40
1.0
 40
1.0
 10
29.5249
 20
-2.815
 30
0.0
 10
30.1199
 20
-3.995
 30
0.0
 10
30.715
 20
-5.1751
 30
0.0
 10
31.31
 20
-6.3551
 30
0.0
 10
31.31
 20
-6.3551
 30
0.0
 10
32.1528
 20
-5.9456
 30
0.0
 10
32.9956
 20
-5.5361
 30
0.0
 10
33.8384
 20
-5.1266
 30
0.0
 10
33.8384
 20
-5.1266
 30
0.0
 10
33.275
 20
-3.9306
 30
0.0
 10
32.7115
 20
-2.7345
 30
0.0
 10
32.1481
 20
-1.5384
 30
0.0
 10
32.1481
 20
-1.5384
 30
0.0
 10
31.699
 20
-0.6446
 30
0.0
 10
31.2499
 20
0.2492
 30
0.0
 10
30.8007
 20
1.1428
 30
0.0
 10
30.8007
 20
1.1428
 30
0.0
 10
30.461
 20
1.8411
 30
0.0
 10
30.0407
 20
2.5039
 30
0.0
 10
29.5349
 20
3.0985
 30
0.0
 10
29.5349
 20
3.0985
 30
0.0
 10
28.8214
 20
3.9372
 30
0.0
 10
27.9374
 20
4.6403
 30
0.0
 10
26.9733
 20
5.1829
 30
0.0
 10
26.9733
 20
5.1829
 30
0.0
 10
20.8676
 20
7.6389
 30
0.0
 10
14.458
 20
6.7972
 30
0.0
 10
8.8071
 20
3.2627
 30
0.0
 10
8.8071
 20
3.2627
 30
0.0
 10
5.7316
 20
1.3391
 30
0.0
 10
3.3662
 20
-0.9929
 30
0.0
 10
1.3684
 20
-4.0153
 30
0.0
 10
1.3684
 20
-4.0153
 30
0.0
 10
0.8147
 20
-4.853
 30
0.0
 10
-0.8201
 20
-7.6003
 30
0.0
 10
-0.9935
 20
-8.6692
 30
0.0
 10
-0.9935
 20
-8.6692
 30
0.0
 10
-1.3364
 20
-10.783
 30
0.0
 10
1.6386
 20
-11.621
 30
0.0
 10
2.4492
 20
-9.6389
 30
0.0
 10
2.4492
 20
-9.6389
 30
0.0
 10
4.32
 20
-4.6125
 30
0.0
 10
8.6627
 20
-0.4051
 30
0.0
 10
13.813
 20
1.1261
 30
0.0
 10
13.813
 20
1.1261
 30
0.0
 10
18.9632
 20
2.6572
 30
0.0
 10
24.921
 20
1.512
 30
0.0
 10
29.2551
 20
-2.9461
 30
0.0
 10
29.2551
 20
-2.9461
 30
0.0
 10
29.345
 20
-2.9024
 30
0.0
 10
29.4349
 20
-2.8587
 30
0.0
 10
29.5249
 20
-2.815
 30
0.0
  0
SPLINE
  5
63
330
1F
100
AcDbEntity
  8
Vrstva 1
 62
   242
370
     9
100
AcDbSpline
210
0.0
220
0.0
230
1.0
 70
    11
 71
     3
 72
    56
 73
    52
 74
     0
 42
0.0000000001
 43
0.0000000001
 40
0.0
 40
0.0
 40
0.0
 40
0.0
 40
0.0714285714285714
 40
0.0714285714285714
 40
0.0714285714285714
 40
0.0714285714285714
 40
0.1428571428571428
 40
0.1428571428571428
 40
0.1428571428571428
 40
0.1428571428571428
 40
0.2142857142857143
 40
0.2142857142857143
 40
0.2142857142857143
 40
0.2142857142857143
 40
0.2857142857142857
 40
0.2857142857142857
 40
0.2857142857142857
 40
0.2857142857142857
 40
0.3571428571428572
 40
0.3571428571428572
 40
0.3571428571428572
 40
0.3571428571428572
 40
0.4285714285714285
 40
0.4285714285714285
 40
0.4285714285714285
 40
0.4285714285714285
 40
0.5
 40
0.5
 40
0.5
 40
0.5
 40
0.5714285714285714
 40
0.5714285714285714
 40
0.5714285714285714
 40
0.5714285714285714
 40
0.6428571428571429
 40
0.6428571428571429
 40
0.6428571428571429
 40
0.6428571428571429
 40
0.7142857142857143
 40
0.7142857142857143
 40
0.7142857142857143
 40
0.7142857142857143
 40
0.7857142857142857
 40
0.7857142857142857
 40
0.7857142857142857
 40
0.7857142857142857
 40
0.8571428571428571
 40
0.8571428571428571
 40
0.8571428571428571
 40
0.8571428571428571
 40
1.0
 40
1.0
 40
1.0
 40
1.0
 10
29.3634
 20
6.4468
 30
0.0
 10
29.9584
 20
5.2668
 30
0.0
 10
30.5535
 20
4.0867
 30
0.0
 10
31.1485
 20
2.9067
 30
0.0
 10
31.1485
 20
2.9067
 30
0.0
 10
31.9913
 20
3.3161
 30
0.0
 10
32.8342
 20
3.7257
 30
0.0
 10
33.677
 20
4.1352
 30
0.0
 10
33.677
 20
4.1352
 30
0.0
 10
33.1135
 20
5.3312
 30
0.0
 10
32.5501
 20
6.5273
 30
0.0
 10
31.9866
 20
7.7233
 30
0.0
 10
31.9866
 20
7.7233
 30
0.0
 10
31.5376
 20
8.6171
 30
0.0
 10
31.0884
 20
9.5109
 30
0.0
 10
30.6393
 20
10.4046
 30
0.0
 10
30.6393
 20
10.4046
 30
0.0
 10
30.2995
 20
11.1028
 30
0.0
 10
29.8793
 20
11.7656
 30
0.0
 10
29.3735
 20
12.3603
 30
0.0
 10
29.3735
 20
12.3603
 30
0.0
 10
28.6599
 20
13.1989
 30
0.0
 10
27.776
 20
13.902
 30
0.0
 10
26.8119
 20
14.4447
 30
0.0
 10
26.8119
 20
14.4447
 30
0.0
 10
20.7062
 20
16.9006
 30
0.0
 10
14.2965
 20
16.059
 30
0.0
 10
8.6456
 20
12.5245
 30
0.0
 10
8.6456
 20
12.5245
 30
0.0
 10
5.5701
 20
10.6008
 30
0.0
 10
3.2047
 20
8.2688
 30
0.0
 10
1.207
 20
5.2465
 30
0.0
 10
1.207
 20
5.2465
 30
0.0
 10
0.6533
 20
4.4088
 30
0.0
 10
-0.9816
 20
1.6615
 30
0.0
 10
-1.155
 20
0.5925
 30
0.0
 10
-1.155
 20
0.5925
 30
0.0
 10
-1.4979
 20
-1.5213
 30
0.0
 10
1.4772
 20
-2.3593
 30
0.0
 10
2.2877
 20
-0.3771
 30
0.0
 10
2.2877
 20
-0.3771
 30
0.0
 10
4.1585
 20
4.6493
 30
0.0
 10
8.5012
 20
8.8567
 30
0.0
 10
13.6515
 20
10.3879
 30
0.0
 10
13.6515
 20
10.3879
 30
0.0
 10
18.8018
 20
11.919
 30
0.0
 10
24.7596
 20
10.7738
 30
0.0
 10
29.0936
 20
6.3157
 30
0.0
 10
29.0936
 20
6.3157
 30
0.0
 10
29.1835
 20
6.3594
 30
0.0
 10
29.2735
 20
6.4031
 30
0.0
 10
29.3634
 20
6.4468
 30
0.0
  0
SPLINE
  5
64
330
1F
100
AcDbEntity
  8
Vrstva 1
 62
   242
370
     9
100
AcDbSpline
210
0.0
220
0.0
230
1.0
 70
    11
 71
     3
 72
    56
 73
    52
 74
     0
 42
0.0000000001
 43
0.0000000001
 40
0.0
 40
0.0
 40
0.0
 40
0.0
 40
0.0714285714285714
 40
0.0714285714285714
 40
0.0714285714285714
 40
0.0714285714285714
 40
0.1428571428571428
 40
0.1428571428571428
 40
0.1428571428571428
 40
0.1428571428571428
 40
0.2142857142857143
 40
0.2142857142857143
 40
0.2142857142857143
 40
0.2142857142857143
 40
0.2857142857142857
 40
0.2857142857142857
 40
0.2857142857142857
 40
0.2857142857142857
 40
0.3571428571428572
 40
0.3571428571428572
 40
0.3571428571428572
 40
0.3571428571428572
 40
0.4285714285714285
 40
0.4285714285714285
 40
0.4285714285714285
 40
0.4285714285714285
 40
0.5
 40
0.5
 40
0.5
 40
0.5
 40
0.5714285714285714
 40
0.5714285714285714
 40
0.5714285714285714
 40
0.5714285714285714
 40
0.6428571428571429
 40
0.6428571428571429
 40
0.6428571428571429
 40
0.6428571428571429
 40
0.7142857142857143
 40
0.7142857142857143
 40
0.7142857142857143
 40
0.7142857142857143
 40
0.7857142857142857
 40
0.7857142857142857
 40
0.7857142857142857
 40
0.7857142857142857
 40
0.8571428571428571
 40
0.8571428571428571
 40
0.8571428571428571
 40
0.8571428571428571
 40
1.0
 40
1.0
 40
1.0
 40
1.0
 10
29.3168
 20
16.0505
 30
0.0
 10
29.9118
 20
14.8705
 30
0.0
 10
30.5069
 20
13.6904
 30
0.0
 10
31.1019
 20
12.5103
 30
0.0
 10
31.1019
 20
12.5103
 30
0.0
 10
31.9447
 20
12.9198
 30
0.0
 10
32.7876
 20
13.3293
 30
0.0
 10
33.6303
 20
13.7388
 30
0.0
 10
33.6303
 20
13.7388
 30
0.0
 10
33.0669
 20
14.9349
 30
0.0
 10
32.5034
 20
16.131
 30
0.0
 10
31.94
 20
17.327
 30
0.0
 10
31.94
 20
17.327
 30
0.0
 10
31.4909
 20
18.2208
 30
0.0
 10
31.0418
 20
19.1146
 30
0.0
 10
30.5927
 20
20.0083
 30
0.0
 10
30.5927
 20
20.0083
 30
0.0
 10
30.2529
 20
20.7065
 30
0.0
 10
29.8327
 20
21.3693
 30
0.0
 10
29.3268
 20
21.9639
 30
0.0
 10
29.3268
 20
21.9639
 30
0.0
 10
28.6133
 20
22.8026
 30
0.0
 10
27.7293
 20
23.5057
 30
0.0
 10
26.7652
 20
24.0484
 30
0.0
 10
26.7652
 20
24.0484
 30
0.0
 10
20.6596
 20
26.5043
 30
0.0
 10
14.2499
 20
25.6627
 30
0.0
 10
8.599
 20
22.1281
 30
0.0
 10
8.599
 20
22.1281
 30
0.0
 10
5.5235
 20
20.2045
 30
0.0
 10
3.1581
 20
17.8725
 30
0.0
 10
1.1603
 20
14.8502
 30
0.0
 10
1.1603
 20
14.8502
 30
0.0
 10
0.6066
 20
14.0125
 30
0.0
 10
-1.0282
 20
11.2652
 30
0.0
 10
-1.2016
 20
10.1962
 30
0.0
 10
-1.2016
 20
10.1962
 30
0.0
 10
-1.5445
 20
8.0824
 30
0.0
 10
1.4305
 20
7.2444
 30
0.0
 10
2.2411
 20
9.2265
 30
0.0
 10
2.2411
 20
9.2265
 30
0.0
 10
4.1119
 20
14.253
 30
0.0
 10
8.4546
 20
18.4604
 30
0.0
 10
13.6049
 20
19.9916
 30
0.0
 10
13.6049
 20
19.9916
 30
0.0
 10
18.7551
 20
21.5227
 30
0.0
 10
24.7129
 20
20.3775
 30
0.0
 10
29.047
 20
15.9194
 30
0.0
 10
29.047
 20
15.9194
 30
0.0
 10
29.1369
 20
15.9631
 30
0.0
 10
29.2269
 20
16.0068
 30
0.0
 10
29.3168
 20
16.0505
 30
0.0
  0
SPLINE
  5
65
330
1F
100
AcDbEntity
  8
Vrstva 1
 62
   242
370
     9
100
AcDbSpline
210
0.0
220
0.0
230
1.0
 70
    11
 71
     3
 72
    56
 73
    52
 74
     0
 42
0.0000000001
 43
0.0000000001
 40
0.0
 40
0.0
 40
0.0
 40
0.0
 40
0.0714285714285714
 40
0.0714285714285714
 40
0.0714285714285714
 40
0.0714285714285714
 40
0.1428571428571428
 40
0.1428571428571428
 40
0.1428571428571428
 40
0.1428571428571428
 40
0.2142857142857143
 40
0.2142857142857143
 40
0.2142857142857143
 40
0.2142857142857143
 40
0.2857142857142857
 40
0.2857142857142857
 40
0.2857142857142857
 40
0.2857142857142857
 40
0.3571428571428572
 40
0.3571428571428572
 40
0.3571428571428572
 40
0.3571428571428572
 40
0.4285714285714285
 40
0.4285714285714285
 40
0.4285714285714285
 40
0.4285714285714285
 40
0.5
 40
0.5
 40
0.5
 40
0.5
 40
0.5714285714285714
 40
0.5714285714285714
 40
0.5714285714285714
 40
0.5714285714285714
 40
0.6428571428571429
 40
0.6428571428571429
 40
0.6428571428571429
 40
0.6428571428571429
 40
0.7142857142857143
 40
0.7142857142857143
 40
0.7142857142857143
 40
0.7142857142857143
 40
0.7857142857142857
 40
0.7857142857142857
 40
0.7857142857142857
 40
0.7857142857142857
 40
0.8571428571428571
 40
0.8571428571428571
 40
0.8571428571428571
 40
0.8571428571428571
 40
1.0
 40
1.0
 40
1.0
 40
1.0
 10
29.5223
 20
26.1782
 30
0.0
 10
30.1173
 20
24.9982
 30
0.0
 10
30.7124
 20
23.8181
 30
0.0
 10
31.3074
 20
22.6381
 30
0.0
 10
31.3074
 20
22.6381
 30
0.0
 10
32.1502
 20
23.0476
 30
0.0
 10
32.993
 20
23.4571
 30
0.0
 10
33.8358
 20
23.8666
 30
0.0
 10
33.8358
 20
23.8666
 30
0.0
 10
33.2724
 20
25.0626
 30
0.0
 10
32.7089
 20
26.2587
 30
0.0
 10
32.1455
 20
27.4548
 30
0.0
 10
32.1455
 20
27.4548
 30
0.0
 10
31.6964
 20
28.3486
 30
0.0
 10
31.2473
 20
29.2424
 30
0.0
 10
30.7981
 20
30.136
 30
0.0
 10
30.7981
 20
30.136
 30
0.0
 10
30.4584
 20
30.8343
 30
0.0
 10
30.0381
 20
31.4971
 30
0.0
 10
29.5323
 20
32.0917
 30
0.0
 10
29.5323
 20
32.0917
 30
0.0
 10
28.8188
 20
32.9304
 30
0.0
 10
27.9348
 20
33.6335
 30
0.0
 10
26.9707
 20
34.1761
 30
0.0
 10
26.9707
 20
34.1761
 30
0.0
 10
20.865
 20
36.6321
 30
0.0
 10
14.4554
 20
35.7904
 30
0.0
 10
8.8045
 20
32.2559
 30
0.0
 10
8.8045
 20
32.2559
 30
0.0
 10
5.729
 20
30.3322
 30
0.0
 10
3.3636
 20
28.0003
 30
0.0
 10
1.3658
 20
24.9779
 30
0.0
 10
1.3658
 20
24.9779
 30
0.0
 10
0.8121
 20
24.1402
 30
0.0
 10
-0.8227
 20
21.3929
 30
0.0
 10
-0.9961
 20
20.324
 30
0.0
 10
-0.9961
 20
20.324
 30
0.0
 10
-1.339
 20
18.2102
 30
0.0
 10
1.636
 20
17.3722
 30
0.0
 10
2.4466
 20
19.3543
 30
0.0
 10
2.4466
 20
19.3543
 30
0.0
 10
4.3174
 20
24.3807
 30
0.0
 10
8.6601
 20
28.5881
 30
0.0
 10
13.8104
 20
30.1193
 30
0.0
 10
13.8104
 20
30.1193
 30
0.0
 10
18.9606
 20
31.6504
 30
0.0
 10
24.9184
 20
30.5052
 30
0.0
 10
29.2525
 20
26.0471
 30
0.0
 10
29.2525
 20
26.0471
 30
0.0
 10
29.3424
 20
26.0908
 30
0.0
 10
29.4323
 20
26.1345
 30
0.0
 10
29.5223
 20
26.1782
 30
0.0
  0
SPLINE
  5
66
330
1F
100
AcDbEntity
  8
Vrstva 1
 62
   242
370
     9
100
AcDbSpline
210
0.0
220
0.0
230
1.0
 70
    11
 71
     3
 72
    56
 73
    52
 74
     0
 42
0.0000000001
 43
0.0000000001
 40
0.0
 40
0.0
 40
0.0
 40
0.0
 40
0.0714285714285714
 40
0.0714285714285714
 40
0.0714285714285714
 40
0.0714285714285714
 40
0.1428571428571428
 40
0.1428571428571428
 40
0.1428571428571428
 40
0.1428571428571428
 40
0.2142857142857143
 40
0.2142857142857143
 40
0.2142857142857143
 40
0.2142857142857143
 40
0.2857142857142857
 40
0.2857142857142857
 40
0.2857142857142857
 40
0.2857142857142857
 40
0.3571428571428572
 40
0.3571428571428572
 40
0.3571428571428572
 40
0.3571428571428572
 40
0.4285714285714285
 40
0.4285714285714285
 40
0.4285714285714285
 40
0.4285714285714285
 40
0.5
 40
0.5
 40
0.5
 40
0.5
 40
0.5714285714285714
 40
0.5714285714285714
 40
0.5714285714285714
 40
0.5714285714285714
 40
0.6428571428571429
 40
0.6428571428571429
 40
0.6428571428571429
 40
0.6428571428571429
 40
0.7142857142857143
 40
0.7142857142857143
 40
0.7142857142857143
 40
0.7142857142857143
 40
0.7857142857142857
 40
0.7857142857142857
 40
0.7857142857142857
 40
0.7857142857142857
 40
0.8571428571428571
 40
0.8571428571428571
 40
0.8571428571428571
 40
0.8571428571428571
 40
1.0
 40
1.0
 40
1.0
 40
1.0
 10
29.6656
 20
36.7397
 30
0.0
 10
30.2606
 20
35.5596
 30
0.0
 10
30.8557
 20
34.3795
 30
0.0
 10
31.4507
 20
33.1995
 30
0.0
 10
31.4507
 20
33.1995
 30
0.0
 10
32.2935
 20
33.609
 30
0.0
 10
33.1364
 20
34.0185
 30
0.0
 10
33.9792
 20
34.428
 30
0.0
 10
33.9792
 20
34.428
 30
0.0
 10
33.4157
 20
35.624
 30
0.0
 10
32.8522
 20
36.8202
 30
0.0
 10
32.2888
 20
38.0162
 30
0.0
 10
32.2888
 20
38.0162
 30
0.0
 10
31.8397
 20
38.91
 30
0.0
 10
31.3906
 20
39.8038
 30
0.0
 10
30.9415
 20
40.6975
 30
0.0
 10
30.9415
 20
40.6975
 30
0.0
 10
30.6017
 20
41.3957
 30
0.0
 10
30.1815
 20
42.0585
 30
0.0
 10
29.6756
 20
42.6531
 30
0.0
 10
29.6756
 20
42.6531
 30
0.0
 10
28.9621
 20
43.4918
 30
0.0
 10
28.0781
 20
44.1949
 30
0.0
 10
27.1141
 20
44.7376
 30
0.0
 10
27.1141
 20
44.7376
 30
0.0
 10
21.0084
 20
47.1935
 30
0.0
 10
14.5987
 20
46.3519
 30
0.0
 10
8.9478
 20
42.8173
 30
0.0
 10
8.9478
 20
42.8173
 30
0.0
 10
5.8723
 20
40.8937
 30
0.0
 10
3.5069
 20
38.5617
 30
0.0
 10
1.5091
 20
35.5393
 30
0.0
 10
1.5091
 20
35.5393
 30
0.0
 10
0.9555
 20
34.7016
 30
0.0
 10
-0.6794
 20
31.9544
 30
0.0
 10
-0.8528
 20
30.8854
 30
0.0
 10
-0.8528
 20
30.8854
 30
0.0
 10
-1.1957
 20
28.7716
 30
0.0
 10
1.7794
 20
27.9336
 30
0.0
 10
2.5899
 20
29.9157
 30
0.0
 10
2.5899
 20
29.9157
 30
0.0
 10
4.4607
 20
34.9422
 30
0.0
 10
8.8034
 20
39.1496
 30
0.0
 10
13.9537
 20
40.6808
 30
0.0
 10
13.9537
 20
40.6808
 30
0.0
 10
19.1039
 20
42.2119
 30
0.0
 10
25.0617
 20
41.0667
 30
0.0
 10
29.3958
 20
36.6086
 30
0.0
 10
29.3958
 20
36.6086
 30
0.0
 10
29.4857
 20
36.6523
 30
0.0
 10
29.5757
 20
36.696
 30
0.0
 10
29.6656
 20
36.7397
 30
0.0
  0
SPLINE
  5
67
330
1F
100
AcDbEntity
  8
Vrstva 1
 62
   242
370
     9
100
AcDbSpline
210
0.0
220
0.0
230
1.0
 70
     8
 71
     3
 72
    12
 73
     8
 74
     0
 42
0.0000000001
 43
0.0000000001
 40
0.0
 40
0.0
 40
0.0
 40
0.0
 40
0.3333333333333333
 40
0.3333333333333333
 40
0.3333333333333333
 40
0.3333333333333333
 40
1.0
 40
1.0
 40
1.0
 40
1.0
 10
-58.8155
 20
30.3967
 30
0.0
 10
-59.5894
 20
29.7582
 30
0.0
 10
-60.4461
 20
29.2143
 30
0.0
 10
-61.366
 20
28.8114
 30
0.0
 10
-61.366
 20
28.8114
 30
0.0
 10
-62.9599
 20
28.1135
 30
0.0
 10
-64.7438
 20
27.8389
 30
0.0
 10
-66.4695
 20
27.913
 30
0.0
  0
SPLINE
  5
68
330
1F
100
AcDbEntity
  8
Vrstva 1
 62
   242
370
     9
100
AcDbSpline
210
0.0
220
0.0
230
1.0
 70
     8
 71
     3
 72
    12
 73
     8
 74
     0
 42
0.0000000001
 43
0.0000000001
 40
0.0
 40
0.0
 40
0.0
 40
0.0
 40
0.3333333333333333
 40
0.3333333333333333
 40
0.3333333333333333
 40
0.3333333333333333
 40
1.0
 40
1.0
 40
1.0
 40
1.0
 10
-70.0817
 20
18.3066
 30
0.0
 10
-71.3763
 20
18.1024
 30
0.0
 10
-72.6816
 20
17.6035
 30
0.0
 10
-73.6186
 20
16.7158
 30
0.0
 10
-73.6186
 20
16.7158
 30
0.0
 10
-74.6812
 20
15.7093
 30
0.0
 10
-75.2703
 20
14.2027
 30
0.0
 10
-75.4948
 20
12.761
 30
0.0
  0
SPLINE
  5
69
330
1F
100
AcDbEntity
  8
Vrstva 1
 62
   242
370
     9
100
AcDbSpline
210
0.0
220
0.0
230
1.0
 70
     8
 71
     3
 72
    20
 73
    16
 74
     0
 42
0.0000000001
 43
0.0000000001
 40
0.0
 40
0.0
 40
0.0
 40
0.0
 40
0.2
 40
0.2
 40
0.2
 40
0.2
 40
0.4
 40
0.4
 40
0.4
 40
0.4
 40
0.6
 40
0.6
 40
0.6
 40
0.6
 40
1.0
 40
1.0
 40
1.0
 40
1.0
 10
-55.9015
 20
34.1722
 30
0.0
 10
-56.1246
 20
32.2005
 30
0.0
 10
-56.5966
 20
30.3141
 30
0.0
 10
-57.3704
 20
28.6938
 30
0.0
 10
-57.3704
 20
28.6938
 30
0.0
 10
-59.273
 20
24.7092
 30
0.0
 10
-63.0
 20
22.3342
 30
0.0
 10
-66.2178
 20
19.3779
 30
0.0
 10
-66.2178
 20
19.3779
 30
0.0
 10
-69.2661
 20
16.5775
 30
0.0
 10
-71.8575
 20
13.2556
 30
0.0
 10
-73.1416
 20
9.4449
 30
0.0
 10
-73.1416
 20
9.4449
 30
0.0
 10
-74.1051
 20
6.5856
 30
0.0
 10
-74.3326
 20
3.4511
 30
0.0
 10
-74.7754
 20
0.3688
 30
0.0
  0
SPLINE
  5
6A
330
1F
100
AcDbEntity
  8
Vrstva 1
 62
   242
370
     9
100
AcDbSpline
210
0.0
220
0.0
230
1.0
 70
    11
 71
     3
 72
   268
 73
   264
 74
     0
 42
0.0000000001
 43
0.0000000001
 40
0.0
 40
0.0
 40
0.0
 40
0.0
 40
0.0149253731343284
 40
0.0149253731343284
 40
0.0149253731343284
 40
0.0149253731343284
 40
0.0298507462686567
 40
0.0298507462686567
 40
0.0298507462686567
 40
0.0298507462686567
 40
0.0447761194029851
 40
0.0447761194029851
 40
0.0447761194029851
 40
0.0447761194029851
 40
0.0597014925373134
 40
0.0597014925373134
 40
0.0597014925373134
 40
0.0597014925373134
 40
0.0746268656716418
 40
0.0746268656716418
 40
0.0746268656716418
 40
0.0746268656716418
 40
0.0895522388059701
 40
0.0895522388059701
 40
0.0895522388059701
 40
0.0895522388059701
 40
0.1044776119402985
 40
0.1044776119402985
 40
0.1044776119402985
 40
0.1044776119402985
 40
0.1194029850746269
 40
0.1194029850746269
 40
0.1194029850746269
 40
0.1194029850746269
 40
0.1343283582089552
 40
0.1343283582089552
 40
0.1343283582089552
 40
0.1343283582089552
 40
0.1492537313432836
 40
0.1492537313432836
 40
0.1492537313432836
 40
0.1492537313432836
 40
0.1641791044776119
 40
0.1641791044776119
 40
0.1641791044776119
 40
0.1641791044776119
 40
0.1791044776119403
 40
0.1791044776119403
 40
0.1791044776119403
 40
0.1791044776119403
 40
0.1940298507462687
 40
0.1940298507462687
 40
0.1940298507462687
 40
0.1940298507462687
 40
0.208955223880597
 40
0.208955223880597
 40
0.208955223880597
 40
0.208955223880597
 40
0.2238805970149254
 40
0.2238805970149254
 40
0.2238805970149254
 40
0.2238805970149254
 40
0.2388059701492537
 40
0.2388059701492537
 40
0.2388059701492537
 40
0.2388059701492537
 40
0.2537313432835821
 40
0.2537313432835821
 40
0.2537313432835821
 40
0.2537313432835821
 40
0.2686567164179104
 40
0.2686567164179104
 40
0.2686567164179104
 40
0.2686567164179104
 40
0.2835820895522388
 40
0.2835820895522388
 40
0.2835820895522388
 40
0.2835820895522388
 40
0.2985074626865671
 40
0.2985074626865671
 40
0.2985074626865671
 40
0.2985074626865671
 40
0.3134328358208955
 40
0.3134328358208955
 40
0.3134328358208955
 40
0.3134328358208955
 40
0.3283582089552239
 40
0.3283582089552239
 40
0.3283582089552239
 40
0.3283582089552239
 40
0.3432835820895522
 40
0.3432835820895522
 40
0.3432835820895522
 40
0.3432835820895522
 40
0.3582089552238806
 40
0.3582089552238806
 40
0.3582089552238806
 40
0.3582089552238806
 40
0.373134328358209
 40
0.373134328358209
 40
0.373134328358209
 40
0.373134328358209
 40
0.3880597014925373
 40
0.3880597014925373
 40
0.3880597014925373
 40
0.3880597014925373
 40
0.4029850746268657
 40
0.4029850746268657
 40
0.4029850746268657
 40
0.4029850746268657
 40
0.417910447761194
 40
0.417910447761194
 40
0.417910447761194
 40
0.417910447761194
 40
0.4328358208955224
 40
0.4328358208955224
 40
0.4328358208955224
 40
0.4328358208955224
 40
0.4477611940298508
 40
0.4477611940298508
 40
0.4477611940298508
 40
0.4477611940298508
 40
0.4626865671641791
 40
0.4626865671641791
 40
0.4626865671641791
 40
0.4626865671641791
 40
0.4776119402985075
 40
0.4776119402985075
 40
0.4776119402985075
 40
0.4776119402985075
 40
0.4925373134328358
 40
0.4925373134328358
 40
0.4925373134328358
 40
0.4925373134328358
 40
0.5074626865671642
 40
0.5074626865671642
 40
0.5074626865671642
 40
0.5074626865671642
 40
0.5223880597014925
 40
0.5223880597014925
 40
0.5223880597014925
 40
0.5223880597014925
 40
0.5373134328358209
 40
0.5373134328358209
 40
0.5373134328358209
 40
0.5373134328358209
 40
0.5522388059701493
 40
0.5522388059701493
 40
0.5522388059701493
 40
0.5522388059701493
 40
0.5671641791044776
 40
0.5671641791044776
 40
0.5671641791044776
 40
0.5671641791044776
 40
0.582089552238806
 40
0.582089552238806
 40
0.582089552238806
 40
0.582089552238806
 40
0.5970149253731343
 40
0.5970149253731343
 40
0.5970149253731343
 40
0.5970149253731343
 40
0.6119402985074627
 40
0.6119402985074627
 40
0.6119402985074627
 40
0.6119402985074627
 40
0.6268656716417911
 40
0.6268656716417911
 40
0.6268656716417911
 40
0.6268656716417911
 40
0.6417910447761194
 40
0.6417910447761194
 40
0.6417910447761194
 40
0.6417910447761194
 40
0.6567164179104478
 40
0.6567164179104478
 40
0.6567164179104478
 40
0.6567164179104478
 40
0.6716417910447762
 40
0.6716417910447762
 40
0.6716417910447762
 40
0.6716417910447762
 40
0.6865671641791045
 40
0.6865671641791045
 40
0.6865671641791045
 40
0.6865671641791045
 40
0.7014925373134329
 40
0.7014925373134329
 40
0.7014925373134329
 40
0.7014925373134329
 40
0.7164179104477612
 40
0.7164179104477612
 40
0.7164179104477612
 40
0.7164179104477612
 40
0.7313432835820896
 40
0.7313432835820896
 40
0.7313432835820896
 40
0.7313432835820896
 40
0.746268656716418
 40
0.746268656716418
 40
0.746268656716418
 40
0.746268656716418
 40
0.7611940298507462
 40
0.7611940298507462
 40
0.7611940298507462
 40
0.7611940298507462
 40
0.7761194029850746
 40
0.7761194029850746
 40
0.7761194029850746
 40
0.7761194029850746
 40
0.7910447761194029
 40
0.7910447761194029
 40
0.7910447761194029
 40
0.7910447761194029
 40
0.8059701492537313
 40
0.8059701492537313
 40
0.8059701492537313
 40
0.8059701492537313
 40
0.8208955223880597
 40
0.8208955223880597
 40
0.8208955223880597
 40
0.8208955223880597
 40
0.835820895522388
 40
0.835820895522388
 40
0.835820895522388
 40
0.835820895522388
 40
0.8507462686567164
 40
0.8507462686567164
 40
0.8507462686567164
 40
0.8507462686567164
 40
0.8656716417910447
 40
0.8656716417910447
 40
0.8656716417910447
 40
0.8656716417910447
 40
0.8805970149253731
 40
0.8805970149253731
 40
0.8805970149253731
 40
0.8805970149253731
 40
0.8955223880597015
 40
0.8955223880597015
 40
0.8955223880597015
 40
0.8955223880597015
 40
0.9104477611940298
 40
0.9104477611940298
 40
0.9104477611940298
 40
0.9104477611940298
 40
0.9253731343283582
 40
0.9253731343283582
 40
0.9253731343283582
 40
0.9253731343283582
 40
0.9402985074626866
 40
0.9402985074626866
 40
0.9402985074626866
 40
0.9402985074626866
 40
0.9552238805970149
 40
0.9552238805970149
 40
0.9552238805970149
 40
0.9552238805970149
 40
0.9701492537313433
 40
0.9701492537313433
 40
0.9701492537313433
 40
0.9701492537313433
 40
1.0
 40
1.0
 40
1.0
 40
1.0
 10
-53.5235
 20
38.956
 30
0.0
 10
-54.9462
 20
38.1498
 30
0.0
 10
-56.3133
 20
37.2463
 30
0.0
 10
-57.6203
 20
36.2635
 30
0.0
 10
-57.6203
 20
36.2635
 30
0.0
 10
-59.0632
 20
35.1784
 30
0.0
 10
-60.433
 20
33.9966
 30
0.0
 10
-61.7169
 20
32.7275
 30
0.0
 10
-61.7169
 20
32.7275
 30
0.0
 10
-60.5183
 20
34.5843
 30
0.0
 10
-59.1676
 20
36.3433
 30
0.0
 10
-57.6759
 20
37.9739
 30
0.0
 10
-57.6759
 20
37.9739
 30
0.0
 10
-57.2032
 20
38.4907
 30
0.0
 10
-56.7162
 20
38.9947
 30
0.0
 10
-56.2145
 20
39.4837
 30
0.0
 10
-56.2145
 20
39.4837
 30
0.0
 10
-55.5675
 20
40.114
 30
0.0
 10
-54.8962
 20
40.7192
 30
0.0
 10
-54.1982
 20
41.2923
 30
0.0
 10
-54.1982
 20
41.2923
 30
0.0
 10
-54.1436
 20
41.3373
 30
0.0
 10
-54.0888
 20
41.3822
 30
0.0
 10
-54.0341
 20
41.427
 30
0.0
 10
-54.0341
 20
41.427
 30
0.0
 10
-54.1036
 20
41.4406
 30
0.0
 10
-54.1731
 20
41.4541
 30
0.0
 10
-54.2425
 20
41.4677
 30
0.0
 10
-54.2425
 20
41.4677
 30
0.0
 10
-54.4173
 20
41.5019
 30
0.0
 10
-54.5942
 20
41.5257
 30
0.0
 10
-54.7719
 20
41.5381
 30
0.0
 10
-54.7719
 20
41.5381
 30
0.0
 10
-54.9578
 20
41.551
 30
0.0
 10
-55.1447
 20
41.5512
 30
0.0
 10
-55.3306
 20
41.5379
 30
0.0
 10
-55.3306
 20
41.5379
 30
0.0
 10
-55.5388
 20
41.523
 30
0.0
 10
-55.7457
 20
41.4912
 30
0.0
 10
-55.949
 20
41.444
 30
0.0
 10
-55.949
 20
41.444
 30
0.0
 10
-56.0705
 20
41.4158
 30
0.0
 10
-56.1906
 20
41.3822
 30
0.0
 10
-56.3094
 20
41.3439
 30
0.0
 10
-56.3094
 20
41.3439
 30
0.0
 10
-56.343
 20
41.3331
 30
0.0
 10
-56.3765
 20
41.3219
 30
0.0
 10
-56.4098
 20
41.31
 30
0.0
 10
-56.4098
 20
41.31
 30
0.0
 10
-56.435
 20
41.3011
 30
0.0
 10
-56.4599
 20
41.2917
 30
0.0
 10
-56.4849
 20
41.2823
 30
0.0
 10
-56.4849
 20
41.2823
 30
0.0
 10
-56.7348
 20
41.1882
 30
0.0
 10
-56.9829
 20
41.0893
 30
0.0
 10
-57.2299
 20
40.988
 30
0.0
 10
-57.2299
 20
40.988
 30
0.0
 10
-57.546
 20
40.8585
 30
0.0
 10
-57.8603
 20
40.7251
 30
0.0
 10
-58.1727
 20
40.5872
 30
0.0
 10
-58.1727
 20
40.5872
 30
0.0
 10
-58.618
 20
40.3905
 30
0.0
 10
-59.0593
 20
40.1848
 30
0.0
 10
-59.4967
 20
39.971
 30
0.0
 10
-59.4967
 20
39.971
 30
0.0
 10
-59.81
 20
39.8179
 30
0.0
 10
-60.1213
 20
39.6607
 30
0.0
 10
-60.4305
 20
39.4993
 30
0.0
 10
-60.4305
 20
39.4993
 30
0.0
 10
-61.0489
 20
39.1767
 30
0.0
 10
-61.6589
 20
38.8377
 30
0.0
 10
-62.2598
 20
38.4835
 30
0.0
 10
-62.2598
 20
38.4835
 30
0.0
 10
-62.9493
 20
38.0771
 30
0.0
 10
-63.6269
 20
37.6506
 30
0.0
 10
-64.2915
 20
37.2048
 30
0.0
 10
-64.2915
 20
37.2048
 30
0.0
 10
-65.1164
 20
36.6514
 30
0.0
 10
-65.9215
 20
36.0683
 30
0.0
 10
-66.7041
 20
35.4566
 30
0.0
 10
-66.7041
 20
35.4566
 30
0.0
 10
-67.954
 20
34.4798
 30
0.0
 10
-69.1469
 20
33.4299
 30
0.0
 10
-70.2705
 20
32.3102
 30
0.0
 10
-70.2705
 20
32.3102
 30
0.0
 10
-71.2193
 20
31.3648
 30
0.0
 10
-72.1188
 20
30.3697
 30
0.0
 10
-72.9603
 20
29.3275
 30
0.0
 10
-72.9603
 20
29.3275
 30
0.0
 10
-73.9817
 20
28.0626
 30
0.0
 10
-74.9175
 20
26.7284
 30
0.0
 10
-75.7529
 20
25.3336
 30
0.0
 10
-75.7529
 20
25.3336
 30
0.0
 10
-76.1988
 20
24.5888
 30
0.0
 10
-76.6162
 20
23.8267
 30
0.0
 10
-77.0029
 20
23.0494
 30
0.0
 10
-77.0029
 20
23.0494
 30
0.0
 10
-77.4005
 20
22.2504
 30
0.0
 10
-77.7656
 20
21.4353
 30
0.0
 10
-78.0967
 20
20.6067
 30
0.0
 10
-78.0967
 20
20.6067
 30
0.0
 10
-78.614
 20
19.3117
 30
0.0
 10
-79.0478
 20
17.9832
 30
0.0
 10
-79.3953
 20
16.6327
 30
0.0
 10
-79.3953
 20
16.6327
 30
0.0
 10
-79.6712
 20
15.5602
 30
0.0
 10
-79.8927
 20
14.4737
 30
0.0
 10
-80.0603
 20
13.379
 30
0.0
 10
-80.0603
 20
13.379
 30
0.0
 10
-80.1654
 20
12.6928
 30
0.0
 10
-80.2493
 20
12.0033
 30
0.0
 10
-80.3145
 20
11.3121
 30
0.0
 10
-80.3145
 20
11.3121
 30
0.0
 10
-80.4228
 20
10.1619
 30
0.0
 10
-80.479
 20
9.0069
 30
0.0
 10
-80.4899
 20
7.8516
 30
0.0
 10
-80.4899
 20
7.8516
 30
0.0
 10
-80.5013
 20
6.6401
 30
0.0
 10
-80.4629
 20
5.4282
 30
0.0
 10
-80.3776
 20
4.2196
 30
0.0
 10
-80.3776
 20
4.2196
 30
0.0
 10
-80.2812
 20
2.8558
 30
0.0
 10
-80.1251
 20
1.4962
 30
0.0
 10
-79.909
 20
0.1461
 30
0.0
 10
-79.909
 20
0.1461
 30
0.0
 10
-79.682
 20
-1.2713
 30
0.0
 10
-79.3891
 20
-2.6782
 30
0.0
 10
-79.0194
 20
-4.0651
 30
0.0
 10
-79.0194
 20
-4.0651
 30
0.0
 10
-78.7369
 20
-5.1243
 30
0.0
 10
-78.4099
 20
-6.1718
 30
0.0
 10
-78.0276
 20
-7.1992
 30
0.0
 10
-78.0276
 20
-7.1992
 30
0.0
 10
-77.6738
 20
-8.1502
 30
0.0
 10
-77.2726
 20
-9.0839
 30
0.0
 10
-76.8086
 20
-9.9865
 30
0.0
 10
-76.8086
 20
-9.9865
 30
0.0
 10
-76.3889
 20
-10.8029
 30
0.0
 10
-75.9178
 20
-11.594
 30
0.0
 10
-75.3744
 20
-12.3337
 30
0.0
 10
-75.3744
 20
-12.3337
 30
0.0
 10
-75.327
 20
-12.3983
 30
0.0
 10
-75.2795
 20
-12.463
 30
0.0
 10
-75.2321
 20
-12.5276
 30
0.0
 10
-75.2321
 20
-12.5276
 30
0.0
 10
-75.2197
 20
-12.4484
 30
0.0
 10
-75.2074
 20
-12.3692
 30
0.0
 10
-75.195
 20
-12.2899
 30
0.0
 10
-75.195
 20
-12.2899
 30
0.0
 10
-75.0915
 20
-11.6235
 30
0.0
 10
-74.9798
 20
-10.9582
 30
0.0
 10
-74.857
 20
-10.2951
 30
0.0
 10
-74.857
 20
-10.2951
 30
0.0
 10
-74.7335
 20
-9.6277
 30
0.0
 10
-74.5988
 20
-8.9624
 30
0.0
 10
-74.4497
 20
-8.3002
 30
0.0
 10
-74.4497
 20
-8.3002
 30
0.0
 10
-74.3
 20
-7.6348
 30
0.0
 10
-74.1357
 20
-6.9726
 30
0.0
 10
-73.9536
 20
-6.3152
 30
0.0
 10
-73.9536
 20
-6.3152
 30
0.0
 10
-73.7721
 20
-5.6601
 30
0.0
 10
-73.5728
 20
-5.0099
 30
0.0
 10
-73.3519
 20
-4.3669
 30
0.0
 10
-73.3519
 20
-4.3669
 30
0.0
 10
-73.133
 20
-3.7295
 30
0.0
 10
-72.8928
 20
-3.0992
 30
0.0
 10
-72.6275
 20
-2.4796
 30
0.0
 10
-72.6275
 20
-2.4796
 30
0.0
 10
-72.3644
 20
-1.8646
 30
0.0
 10
-72.0765
 20
-1.26
 30
0.0
 10
-71.7604
 20
-0.6705
 30
0.0
 10
-71.7604
 20
-0.6705
 30
0.0
 10
-71.4481
 20
-0.0879
 30
0.0
 10
-71.1083
 20
0.4802
 30
0.0
 10
-70.7375
 20
1.0275
 30
0.0
 10
-70.7375
 20
1.0275
 30
0.0
 10
-70.4908
 20
1.3919
 30
0.0
 10
-70.2304
 20
1.7472
 30
0.0
 10
-69.9564
 20
2.0916
 30
0.0
 10
-69.9564
 20
2.0916
 30
0.0
 10
-69.7238
 20
2.3838
 30
0.0
 10
-69.4814
 20
2.6683
 30
0.0
 10
-69.2302
 20
2.9447
 30
0.0
 10
-69.2302
 20
2.9447
 30
0.0
 10
-68.95
 20
3.2531
 30
0.0
 10
-68.6588
 20
3.5516
 30
0.0
 10
-68.3596
 20
3.8417
 30
0.0
 10
-68.3596
 20
3.8417
 30
0.0
 10
-67.8068
 20
4.3774
 30
0.0
 10
-67.2266
 20
4.8845
 30
0.0
 10
-66.6303
 20
5.3714
 30
0.0
 10
-66.6303
 20
5.3714
 30
0.0
 10
-65.9691
 20
5.9112
 30
0.0
 10
-65.288
 20
6.4263
 30
0.0
 10
-64.5986
 20
6.9298
 30
0.0
 10
-64.5986
 20
6.9298
 30
0.0
 10
-63.9024
 20
7.4384
 30
0.0
 10
-63.1976
 20
7.9353
 30
0.0
 10
-62.4939
 20
8.4338
 30
0.0
 10
-62.4939
 20
8.4338
 30
0.0
 10
-61.7943
 20
8.9292
 30
0.0
 10
-61.0956
 20
9.4261
 30
0.0
 10
-60.4081
 20
9.9384
 30
0.0
 10
-60.4081
 20
9.9384
 30
0.0
 10
-59.729
 20
10.4443
 30
0.0
 10
-59.0609
 20
10.9652
 30
0.0
 10
-58.4161
 20
11.5143
 30
0.0
 10
-58.4161
 20
11.5143
 30
0.0
 10
-57.7808
 20
12.0554
 30
0.0
 10
-57.1683
 20
12.6238
 30
0.0
 10
-56.5966
 20
13.2317
 30
0.0
 10
-56.5966
 20
13.2317
 30
0.0
 10
-56.3161
 20
13.5301
 30
0.0
 10
-56.0453
 20
13.8379
 30
0.0
 10
-55.7871
 20
14.1557
 30
0.0
 10
-55.7871
 20
14.1557
 30
0.0
 10
-55.5976
 20
14.3889
 30
0.0
 10
-55.4148
 20
14.6276
 30
0.0
 10
-55.2399
 20
14.872
 30
0.0
 10
-55.2399
 20
14.872
 30
0.0
 10
-54.9957
 20
15.2133
 30
0.0
 10
-54.7668
 20
15.5657
 30
0.0
 10
-54.5537
 20
15.9272
 30
0.0
 10
-54.5537
 20
15.9272
 30
0.0
 10
-54.2357
 20
16.467
 30
0.0
 10
-53.9526
 20
17.0272
 30
0.0
 10
-53.7017
 20
17.6013
 30
0.0
 10
-53.7017
 20
17.6013
 30
0.0
 10
-53.3858
 20
18.3243
 30
0.0
 10
-53.1209
 20
19.0694
 30
0.0
 10
-52.9002
 20
19.827
 30
0.0
 10
-52.9002
 20
19.827
 30
0.0
 10
-52.6496
 20
20.687
 30
0.0
 10
-52.456
 20
21.5631
 30
0.0
 10
-52.3087
 20
22.4467
 30
0.0
 10
-52.3087
 20
22.4467
 30
0.0
 10
-52.1587
 20
23.3462
 30
0.0
 10
-52.0567
 20
24.2533
 30
0.0
 10
-51.994
 20
25.163
 30
0.0
 10
-51.994
 20
25.163
 30
0.0
 10
-51.9306
 20
26.0826
 30
0.0
 10
-51.9073
 20
27.0048
 30
0.0
 10
-51.9171
 20
27.9265
 30
0.0
 10
-51.9171
 20
27.9265
 30
0.0
 10
-51.9272
 20
28.8517
 30
0.0
 10
-51.9707
 20
29.7764
 30
0.0
 10
-52.0425
 20
30.6989
 30
0.0
 10
-52.0425
 20
30.6989
 30
0.0
 10
-52.1636
 20
32.2552
 30
0.0
 10
-52.3653
 20
33.8049
 30
0.0
 10
-52.6333
 20
35.3428
 30
0.0
 10
-52.6333
 20
35.3428
 30
0.0
 10
-52.8411
 20
36.5353
 30
0.0
 10
-53.0888
 20
37.7172
 30
0.0
 10
-53.3772
 20
38.8928
 30
0.0
 10
-53.3772
 20
38.8928
 30
0.0
 10
-53.3876
 20
38.9356
 30
0.0
 10
-53.3981
 20
38.9783
 30
0.0
 10
-53.4086
 20
39.0211
 30
0.0
 10
-53.4086
 20
39.0211
 30
0.0
 10
-53.4469
 20
38.9995
 30
0.0
 10
-53.4852
 20
38.9777
 30
0.0
 10
-53.5235
 20
38.956
 30
0.0
  0
SPLINE
  5
6B
330
1F
100
AcDbEntity
  8
Vrstva 1
 62
   242
370
     9
100
AcDbSpline
210
0.0
220
0.0
230
1.0
 70
     8
 71
     3
 72
    12
 73
     8
 74
     0
 42
0.0000000001
 43
0.0000000001
 40
0.0
 40
0.0
 40
0.0
 40
0.0
 40
0.3333333333333333
 40
0.3333333333333333
 40
0.3333333333333333
 40
0.3333333333333333
 40
1.0
 40
1.0
 40
1.0
 40
1.0
 10
-64.1859
 20
18.5144
 30
0.0
 10
-64.8941
 20
16.8582
 30
0.0
 10
-65.3986
 20
15.1049
 30
0.0
 10
-65.6552
 20
13.3237
 30
0.0
 10
-65.6552
 20
13.3237
 30
0.0
 10
-65.8244
 20
12.1497
 30
0.0
 10
-65.8858
 20
10.9636
 30
0.0
 10
-65.8501
 20
9.7817
 30
0.0
  0
SPLINE
  5
6C
330
1F
100
AcDbEntity
  8
Vrstva 1
 62
   242
370
     9
100
AcDbSpline
210
0.0
220
0.0
230
1.0
 70
     8
 71
     3
 72
    12
 73
     8
 74
     0
 42
0.0000000001
 43
0.0000000001
 40
0.0
 40
0.0
 40
0.0
 40
0.0
 40
0.3333333333333333
 40
0.3333333333333333
 40
0.3333333333333333
 40
0.3333333333333333
 40
1.0
 40
1.0
 40
1.0
 40
1.0
 10
-64.6064
 20
23.411
 30
0.0
 10
-65.7291
 20
22.8569
 30
0.0
 10
-66.9626
 20
22.5044
 30
0.0
 10
-68.1995
 20
22.4637
 30
0.0
 10
-68.1995
 20
22.4637
 30
0.0
 10
-69.2626
 20
22.4288
 30
0.0
 10
-70.3284
 20
22.6242
 30
0.0
 10
-71.3279
 20
22.9654
 30
0.0
  0
SPLINE
  5
6D
330
1F
100
AcDbEntity
  8
Vrstva 1
 62
   242
370
     9
100
AcDbSpline
210
0.0
220
0.0
230
1.0
 70
     8
 71
     3
 72
    12
 73
     8
 74
     0
 42
0.0000000001
 43
0.0000000001
 40
0.0
 40
0.0
 40
0.0
 40
0.0
 40
0.3333333333333333
 40
0.3333333333333333
 40
0.3333333333333333
 40
0.3333333333333333
 40
1.0
 40
1.0
 40
1.0
 40
1.0
 10
-57.6967
 20
24.5327
 30
0.0
 10
-57.4887
 20
23.633
 30
0.0
 10
-57.3911
 20
22.7062
 30
0.0
 10
-57.4399
 20
21.7854
 30
0.0
 10
-57.4399
 20
21.7854
 30
0.0
 10
-57.5494
 20
19.725
 30
0.0
 10
-58.3923
 20
17.6946
 30
0.0
 10
-59.5837
 20
16.0295
 30
0.0
  0
SPLINE
  5
6E
330
1F
100
AcDbEntity
  8
Vrstva 1
 62
   242
370
     9
100
AcDbSpline
210
0.0
220
0.0
230
1.0
 70
    11
 71
     3
 72
   120
 73
   116
 74
     0
 42
0.0000000001
 43
0.0000000001
 40
0.0
 40
0.0
 40
0.0
 40
0.0
 40
0.0333333333333333
 40
0.0333333333333333
 40
0.0333333333333333
 40
0.0333333333333333
 40
0.0666666666666667
 40
0.0666666666666667
 40
0.0666666666666667
 40
0.0666666666666667
 40
0.1
 40
0.1
 40
0.1
 40
0.1
 40
0.1333333333333333
 40
0.1333333333333333
 40
0.1333333333333333
 40
0.1333333333333333
 40
0.1666666666666667
 40
0.1666666666666667
 40
0.1666666666666667
 40
0.1666666666666667
 40
0.2
 40
0.2
 40
0.2
 40
0.2
 40
0.2333333333333333
 40
0.2333333333333333
 40
0.2333333333333333
 40
0.2333333333333333
 40
0.2666666666666667
 40
0.2666666666666667
 40
0.2666666666666667
 40
0.2666666666666667
 40
0.3
 40
0.3
 40
0.3
 40
0.3
 40
0.3333333333333333
 40
0.3333333333333333
 40
0.3333333333333333
 40
0.3333333333333333
 40
0.3666666666666666
 40
0.3666666666666666
 40
0.3666666666666666
 40
0.3666666666666666
 40
0.4
 40
0.4
 40
0.4
 40
0.4
 40
0.4333333333333333
 40
0.4333333333333333
 40
0.4333333333333333
 40
0.4333333333333333
 40
0.4666666666666667
 40
0.4666666666666667
 40
0.4666666666666667
 40
0.4666666666666667
 40
0.5
 40
0.5
 40
0.5
 40
0.5
 40
0.5333333333333333
 40
0.5333333333333333
 40
0.5333333333333333
 40
0.5333333333333333
 40
0.5666666666666667
 40
0.5666666666666667
 40
0.5666666666666667
 40
0.5666666666666667
 40
0.6
 40
0.6
 40
0.6
 40
0.6
 40
0.6333333333333333
 40
0.6333333333333333
 40
0.6333333333333333
 40
0.6333333333333333
 40
0.6666666666666666
 40
0.6666666666666666
 40
0.6666666666666666
 40
0.6666666666666666
 40
0.7
 40
0.7
 40
0.7
 40
0.7
 40
0.7333333333333333
 40
0.7333333333333333
 40
0.7333333333333333
 40
0.7333333333333333
 40
0.7666666666666667
 40
0.7666666666666667
 40
0.7666666666666667
 40
0.7666666666666667
 40
0.8
 40
0.8
 40
0.8
 40
0.8
 40
0.8333333333333334
 40
0.8333333333333334
 40
0.8333333333333334
 40
0.8333333333333334
 40
0.8666666666666667
 40
0.8666666666666667
 40
0.8666666666666667
 40
0.8666666666666667
 40
0.9
 40
0.9
 40
0.9
 40
0.9
 40
0.9333333333333333
 40
0.9333333333333333
 40
0.9333333333333333
 40
0.9333333333333333
 40
1.0
 40
1.0
 40
1.0
 40
1.0
 10
82.1765
 20
-18.3355
 30
0.0
 10
94.8905
 20
-15.7636
 30
0.0
 10
107.6045
 20
-13.1915
 30
0.0
 10
120.3186
 20
-10.6195
 30
0.0
 10
120.3186
 20
-10.6195
 30
0.0
 10
121.4552
 20
-10.3886
 30
0.0
 10
122.5637
 20
-11.1227
 30
0.0
 10
122.7946
 20
-12.2593
 30
0.0
 10
122.7946
 20
-12.2593
 30
0.0
 10
123.0256
 20
-13.396
 30
0.0
 10
122.2914
 20
-14.5045
 30
0.0
 10
121.1548
 20
-14.7354
 30
0.0
 10
121.1548
 20
-14.7354
 30
0.0
 10
108.4451
 20
-17.329
 30
0.0
 10
95.7355
 20
-19.9225
 30
0.0
 10
83.0259
 20
-22.5161
 30
0.0
 10
83.0259
 20
-22.5161
 30
0.0
 10
83.2993
 20
-23.8619
 30
0.0
 10
83.5728
 20
-25.2077
 30
0.0
 10
83.8462
 20
-26.5536
 30
0.0
 10
83.8462
 20
-26.5536
 30
0.0
 10
82.2251
 20
-25.8874
 30
0.0
 10
80.8864
 20
-24.6776
 30
0.0
 10
80.06
 20
-23.1319
 30
0.0
 10
80.06
 20
-23.1319
 30
0.0
 10
47.7905
 20
-29.7315
 30
0.0
 10
14.7751
 20
-33.1673
 30
0.0
 10
-18.3201
 20
-32.901
 30
0.0
 10
-18.3201
 20
-32.901
 30
0.0
 10
-26.7996
 20
-32.8328
 30
0.0
 10
-35.2814
 20
-32.5216
 30
0.0
 10
-43.7519
 20
-31.975
 30
0.0
 10
-43.7519
 20
-31.975
 30
0.0
 10
-43.7215
 20
-32.8409
 30
0.0
 10
-43.6528
 20
-33.7053
 30
0.0
 10
-43.5523
 20
-34.566
 30
0.0
 10
-43.5523
 20
-34.566
 30
0.0
 10
-43.4712
 20
-35.2618
 30
0.0
 10
-43.3692
 20
-35.9552
 30
0.0
 10
-43.2483
 20
-36.6452
 30
0.0
 10
-43.2483
 20
-36.6452
 30
0.0
 10
-43.0373
 20
-37.8482
 30
0.0
 10
-42.768
 20
-39.0409
 30
0.0
 10
-42.4452
 20
-40.2189
 30
0.0
 10
-42.4452
 20
-40.2189
 30
0.0
 10
-41.9709
 20
-41.9496
 30
0.0
 10
-41.3811
 20
-43.6486
 30
0.0
 10
-40.6782
 20
-45.2997
 30
0.0
 10
-40.6782
 20
-45.2997
 30
0.0
 10
-40.5587
 20
-45.5802
 30
0.0
 10
-40.4392
 20
-45.8608
 30
0.0
 10
-40.3199
 20
-46.1413
 30
0.0
 10
-40.3199
 20
-46.1413
 30
0.0
 10
-40.4971
 20
-45.8931
 30
0.0
 10
-40.6743
 20
-45.645
 30
0.0
 10
-40.8515
 20
-45.397
 30
0.0
 10
-40.8515
 20
-45.397
 30
0.0
 10
-41.6068
 20
-44.3397
 30
0.0
 10
-42.3106
 20
-43.2455
 30
0.0
 10
-42.96
 20
-42.1202
 30
0.0
 10
-42.96
 20
-42.1202
 30
0.0
 10
-43.5737
 20
-41.0568
 30
0.0
 10
-44.1389
 20
-39.9654
 30
0.0
 10
-44.6502
 20
-38.8493
 30
0.0
 10
-44.6502
 20
-38.8493
 30
0.0
 10
-44.9435
 20
-38.2089
 30
0.0
 10
-45.2191
 20
-37.5605
 30
0.0
 10
-45.4752
 20
-36.9043
 30
0.0
 10
-45.4752
 20
-36.9043
 30
0.0
 10
-45.8056
 20
-36.0576
 30
0.0
 10
-46.1035
 20
-35.1983
 30
0.0
 10
-46.3609
 20
-34.3267
 30
0.0
 10
-46.3609
 20
-34.3267
 30
0.0
 10
-46.8195
 20
-32.7767
 30
0.0
 10
-48.1868
 20
-31.6703
 30
0.0
 10
-49.7984
 20
-31.5449
 30
0.0
 10
-49.7984
 20
-31.5449
 30
0.0
 10
-73.0963
 20
-29.7335
 30
0.0
 10
-96.2824
 20
-26.153
 30
0.0
 10
-119.0676
 20
-20.9639
 30
0.0
 10
-119.0676
 20
-20.9639
 30
0.0
 10
-119.0248
 20
-20.7778
 30
0.0
 10
-118.982
 20
-20.5916
 30
0.0
 10
-118.9392
 20
-20.4055
 30
0.0
 10
-118.9392
 20
-20.4055
 30
0.0
 10
-120.2386
 20
-20.1067
 30
0.0
 10
-121.538
 20
-19.8079
 30
0.0
 10
-122.8373
 20
-19.5092
 30
0.0
 10
-122.8373
 20
-19.5092
 30
0.0
 10
-122.3742
 20
-17.495
 30
0.0
 10
-121.9111
 20
-15.481
 30
0.0
 10
-121.448
 20
-13.4668
 30
0.0
 10
-121.448
 20
-13.4668
 30
0.0
 10
-120.1486
 20
-13.7656
 30
0.0
 10
-118.8492
 20
-14.0644
 30
0.0
 10
-117.5498
 20
-14.3632
 30
0.0
 10
-117.5498
 20
-14.3632
 30
0.0
 10
-117.507
 20
-14.177
 30
0.0
 10
-117.4642
 20
-13.9909
 30
0.0
 10
-117.4214
 20
-13.8047
 30
0.0
 10
-117.4214
 20
-13.8047
 30
0.0
 10
-84.9835
 20
-21.6841
 30
0.0
 10
-51.6836
 20
-26.2602
 30
0.0
 10
-18.3841
 20
-27.0497
 30
0.0
 10
-18.3841
 20
-27.0497
 30
0.0
 10
14.3687
 20
-27.8261
 30
0.0
 10
47.1209
 20
-24.9394
 30
0.0
 10
79.1986
 20
-18.9052
 30
0.0
 10
79.1986
 20
-18.9052
 30
0.0
 10
79.3543
 20
-17.1562
 30
0.0
 10
80.1152
 20
-15.5163
 30
0.0
 10
81.3501
 20
-14.268
 30
0.0
 10
81.3501
 20
-14.268
 30
0.0
 10
81.6256
 20
-15.6239
 30
0.0
 10
81.9011
 20
-16.9797
 30
0.0
 10
82.1765
 20
-18.3355
 30
0.0
  0
ENDSEC
  0
SECTION
  2
OBJECTS
  0
DICTIONARY
  5
C
330
0
100
AcDbDictionary
281
     1
  3
ACAD_GROUP
350
D
  3
ACAD_LAYOUT
350
1A
  3
ACAD_MATERIAL
350
3B
  3
ACAD_MLEADERSTYLE
350
90
  3
ACAD_MLINESTYLE
350
17
  3
ACAD_PLOTSETTINGS
350
19
  3
ACAD_PLOTSTYLENAME
350
E
  3
ACAD_TABLESTYLE
350
8F
  3
ACAD_VISUALSTYLE
350
2A
  0
DICTIONARY
  5
D
102
{ACAD_REACTORS
330
C
102
}
330
C
100
AcDbDictionary
281
     1
  0
DICTIONARY
  5
1A
102
{ACAD_REACTORS
330
C
102
}
330
C
100
AcDbDictionary
281
     1
  3
Layout1
350
1E
  3
Layout2
350
26
  3
Model
350
22
  0
DICTIONARY
  5
3B
102
{ACAD_REACTORS
330
C
102
}
330
C
100
AcDbDictionary
281
     1
  3
ByBlock
350
3D
  3
ByLayer
350
3C
  3
Global
350
3E
  0
DICTIONARY
  5
90
102
{ACAD_REACTORS
330
C
102
}
330
C
100
AcDbDictionary
281
     1
  0
DICTIONARY
  5
17
102
{ACAD_REACTORS
330
C
102
}
330
C
100
AcDbDictionary
281
     1
  3
Standard
350
18
  0
DICTIONARY
  5
19
102
{ACAD_REACTORS
330
C
102
}
330
C
100
AcDbDictionary
281
     1
  0
ACDBDICTIONARYWDFLT
  5
E
102
{ACAD_REACTORS
330
C
102
}
330
C
100
AcDbDictionary
281
     1
  3
Normal
350
F
100
AcDbDictionaryWithDefault
340
F
  0
DICTIONARY
  5
8F
102
{ACAD_REACTORS
330
C
102
}
330
C
100
AcDbDictionary
281
     1
  0
DICTIONARY
  5
2A
102
{ACAD_REACTORS
330
C
102
}
330
C
100
AcDbDictionary
281
     1
  3
2dWireframe
350
2F
  3
3D Hidden
350
31
  3
3dWireframe
350
30
  3
Basic
350
32
  3
Brighten
350
36
  3
ColorChange
350
3A
  3
Conceptual
350
34
  3
Dim
350
35
  3
Facepattern
350
39
  3
Flat
350
2B
  3
FlatWithEdges
350
2C
  3
Gouraud
350
2D
  3
GouraudWithEdges
350
2E
  3
Linepattern
350
38
  3
Realistic
350
33
  3
Thicken
350
37
  0
LAYOUT
  5
1E
102
{ACAD_REACTORS
330
1A
102
}
330
1A
100
AcDbPlotSettings
  1

  2
none_device
  4

  6

 40
0.0
 41
0.0
 42
0.0
 43
0.0
 44
0.0
 45
0.0
 46
0.0
 47
0.0
 48
0.0
 49
0.0
140
0.0
141
0.0
142
1.0
143
1.0
 70
   688
 72
     0
 73
     0
 74
     5
  7

 75
    16
 76
     0
 77
     2
 78
   300
147
1.0
148
0.0
149
0.0
100
AcDbLayout
  1
Layout1
 70
     1
 71
     1
 10
0.0
 20
0.0
 11
12.0
 21
9.0
 12
0.0
 22
0.0
 32
0.0
 14
1.000000000000000E+20
 24
1.000000000000000E+20
 34
1.000000000000000E+20
 15
-1.000000000000000E+20
 25
-1.000000000000000E+20
 35
-1.000000000000000E+20
146
0.0
 13
0.0
 23
0.0
 33
0.0
 16
1.0
 26
0.0
 36
0.0
 17
0.0
 27
1.0
 37
0.0
 76
     0
330
1B
  0
LAYOUT
  5
26
102
{ACAD_REACTORS
330
1A
102
}
330
1A
100
AcDbPlotSettings
  1

  2
none_device
  4

  6

 40
0.0
 41
0.0
 42
0.0
 43
0.0
 44
0.0
 45
0.0
 46
0.0
 47
0.0
 48
0.0
 49
0.0
140
0.0
141
0.0
142
1.0
143
1.0
 70
   688
 72
     0
 73
     0
 74
     5
  7

 75
    16
 76
     0
 77
     2
 78
   300
147
1.0
148
0.0
149
0.0
100
AcDbLayout
  1
Layout2
 70
     1
 71
     2
 10
0.0
 20
0.0
 11
0.0
 21
0.0
 12
0.0
 22
0.0
 32
0.0
 14
0.0
 24
0.0
 34
0.0
 15
0.0
 25
0.0
 35
0.0
146
0.0
 13
0.0
 23
0.0
 33
0.0
 16
1.0
 26
0.0
 36
0.0
 17
0.0
 27
1.0
 37
0.0
 76
     0
330
23
  0
LAYOUT
  5
22
102
{ACAD_REACTORS
330
1A
102
}
330
1A
100
AcDbPlotSettings
  1

  2
none_device
  4

  6

 40
0.0
 41
0.0
 42
0.0
 43
0.0
 44
0.0
 45
0.0
 46
0.0
 47
0.0
 48
0.0
 49
0.0
140
0.0
141
0.0
142
1.0
143
1.0
 70
  1712
 72
     0
 73
     0
 74
     0
  7

 75
     0
 76
     0
 77
     2
 78
   300
147
1.0
148
0.0
149
0.0
100
AcDbLayout
  1
Model
 70
     1
 71
     0
 10
0.0
 20
0.0
 11
12.0
 21
9.0
 12
0.0
 22
0.0
 32
0.0
 14
-122.8828
 24
-46.1632
 34
0.0
 15
122.8751
 25
46.1792
 35
0.0
146
0.0
 13
0.0
 23
0.0
 33
0.0
 16
1.0
 26
0.0
 36
0.0
 17
0.0
 27
1.0
 37
0.0
 76
     0
330
1F
331
29
  0
MATERIAL
  5
3D
102
{ACAD_REACTORS
330
3B
102
}
330
3B
100
AcDbMaterial
  1
ByBlock
 72
     1
 94
      127
  0
MATERIAL
  5
3C
102
{ACAD_REACTORS
330
3B
102
}
330
3B
100
AcDbMaterial
  1
ByLayer
 72
     1
 94
      127
  0
MATERIAL
  5
3E
102
{ACAD_REACTORS
330
3B
102
}
330
3B
100
AcDbMaterial
  1
Global
 72
     1
 94
      127
  0
MLINESTYLE
  5
18
102
{ACAD_REACTORS
330
17
102
}
330
17
100
AcDbMlineStyle
  2
Standard
 70
     0
  3

 62
   256
 51
90.0
 52
90.0
 71
     2
 49
0.5
 62
   256
  6
BYLAYER
 49
-0.5
 62
   256
  6
BYLAYER
  0
ACDBPLACEHOLDER
  5
F
102
{ACAD_REACTORS
330
E
102
}
330
E
  0
VISUALSTYLE
  5
2F
102
{ACAD_REACTORS
330
2A
102
}
102
{ACAD_XDICTIONARY
360
77
102
}
330
2A
100
AcDbVisualStyle
  2
2dWireframe
 70
     4
 71
     0
 72
     2
 73
     0
 90
        0
 40
-0.6
 41
-30.0
 62
     5
 63
     7
421
 16777215
 74
     1
 91
        4
 64
     7
 65
   257
 75
     1
175
     1
 42
1.0
 92
        0
 66
   257
 43
1.0
 76
     1
 77
     6
 78
     2
 67
     7
 79
     5
170
     0
171
     0
290
     0
174
     0
 93
        1
 44
0.0
173
     0
291
     0
 45
0.0
  0
VISUALSTYLE
  5
31
102
{ACAD_REACTORS
330
2A
102
}
102
{ACAD_XDICTIONARY
360
7B
102
}
330
2A
100
AcDbVisualStyle
  2
3D Hidden
 70
     6
 71
     1
 72
     2
 73
     2
 90
        0
 40
-0.6
 41
-30.0
 62
     5
 63
     7
421
 16777215
 74
     2
 91
        2
 64
     7
 65
   257
 75
     2
175
     1
 42
40.0
 92
        0
 66
   257
 43
1.0
 76
     1
 77
     6
 78
     2
 67
     7
 79
     3
170
     0
171
     0
290
     0
174
     0
 93
        1
 44
0.0
173
     0
291
     0
 45
0.0
  0
VISUALSTYLE
  5
30
102
{ACAD_REACTORS
330
2A
102
}
102
{ACAD_XDICTIONARY
360
79
102
}
330
2A
100
AcDbVisualStyle
  2
3dWireframe
 70
     5
 71
     0
 72
     2
 73
     0
 90
        0
 40
-0.6
 41
-30.0
 62
     5
 63
     7
421
 16777215
 74
     1
 91
        4
 64
     7
 65
   257
 75
     1
175
     1
 42
1.0
 92
        0
 66
   257
 43
1.0
 76
     1
 77
     6
 78
     2
 67
     7
 79
     5
170
     0
171
     0
290
     0
174
     0
 93
        1
 44
0.0
173
     0
291
     0
 45
0.0
  0
VISUALSTYLE
  5
32
102
{ACAD_REACTORS
330
2A
102
}
102
{ACAD_XDICTIONARY
360
7D
102
}
330
2A
100
AcDbVisualStyle
  2
Basic
 70
     7
 71
     1
 72
     0
 73
     1
 90
        0
 40
-0.6
 41
-30.0
 62
     5
 63
     7
421
 16777215
 74
     0
 91
        4
 64
     7
 65
   257
 75
     1
175
     1
 42
1.0
 92
        8
 66
     7
 43
1.0
 76
     1
 77
     6
 78
     2
 67
     7
 79
     5
170
     0
171
     0
290
     0
174
     0
 93
        1
 44
0.0
173
     0
291
     1
 45
0.0
  0
VISUALSTYLE
  5
36
102
{ACAD_REACTORS
330
2A
102
}
102
{ACAD_XDICTIONARY
360
85
102
}
330
2A
100
AcDbVisualStyle
  2
Brighten
 70
    12
 71
     2
 72
     2
 73
     0
 90
        0
 40
-0.6
 41
-30.0
 62
     5
 63
     7
421
 16777215
 74
     1
 91
        4
 64
     7
 65
   257
 75
     1
175
     1
 42
1.0
 92
        8
 66
     7
 43
1.0
 76
     1
 77
     6
 78
     2
 67
     7
 79
     5
170
     0
171
     0
290
     0
174
     0
 93
        1
 44
50.0
173
     0
291
     1
 45
0.0
  0
VISUALSTYLE
  5
3A
102
{ACAD_REACTORS
330
2A
102
}
102
{ACAD_XDICTIONARY
360
8D
102
}
330
2A
100
AcDbVisualStyle
  2
ColorChange
 70
    16
 71
     2
 72
     2
 73
     3
 90
        0
 40
-0.6
 41
-30.0
 62
     5
 63
     8
421
  8421504
 74
     1
 91
        4
 64
     7
 65
   257
 75
     1
175
     1
 42
1.0
 92
        8
 66
     8
424
  8421504
 43
1.0
 76
     1
 77
     6
 78
     2
 67
     7
 79
     5
170
     0
171
     0
290
     0
174
     0
 93
        1
 44
0.0
173
     0
291
     1
 45
0.0
  0
VISUALSTYLE
  5
34
102
{ACAD_REACTORS
330
2A
102
}
102
{ACAD_XDICTIONARY
360
81
102
}
330
2A
100
AcDbVisualStyle
  2
Conceptual
 70
     9
 71
     3
 72
     2
 73
     0
 90
        0
 40
-0.6
 41
-30.0
 62
     5
 63
     7
421
 16777215
 74
     2
 91
        2
 64
     7
 65
   257
 75
     1
175
     1
 42
40.0
 92
        8
 66
     7
 43
1.0
 76
     1
 77
     6
 78
     2
 67
     7
 79
     3
170
     0
171
     0
290
     0
174
     0
 93
        1
 44
0.0
173
     0
291
     0
 45
0.0
  0
VISUALSTYLE
  5
35
102
{ACAD_REACTORS
330
2A
102
}
102
{ACAD_XDICTIONARY
360
83
102
}
330
2A
100
AcDbVisualStyle
  2
Dim
 70
    11
 71
     2
 72
     2
 73
     0
 90
        0
 40
-0.6
 41
-30.0
 62
     5
 63
     7
421
 16777215
 74
     1
 91
        4
 64
     7
 65
   257
 75
     1
175
     1
 42
1.0
 92
        8
 66
     7
 43
1.0
 76
     1
 77
     6
 78
     2
 67
     7
 79
     5
170
     0
171
     0
290
     0
174
     0
 93
        1
 44
-50.0
173
     0
291
     1
 45
0.0
  0
VISUALSTYLE
  5
39
102
{ACAD_REACTORS
330
2A
102
}
102
{ACAD_XDICTIONARY
360
8B
102
}
330
2A
100
AcDbVisualStyle
  2
Facepattern
 70
    15
 71
     2
 72
     2
 73
     0
 90
        0
 40
-0.6
 41
-30.0
 62
     5
 63
     7
421
 16777215
 74
     1
 91
        4
 64
     7
 65
   257
 75
     1
175
     1
 42
1.0
 92
        8
 66
     7
 43
1.0
 76
     1
 77
     6
 78
     2
 67
     7
 79
     5
170
     0
171
     0
290
     0
174
     0
 93
        1
 44
0.0
173
     0
291
     1
 45
0.0
  0
VISUALSTYLE
  5
2B
102
{ACAD_REACTORS
330
2A
102
}
102
{ACAD_XDICTIONARY
360
6F
102
}
330
2A
100
AcDbVisualStyle
  2
Flat
 70
     0
 71
     2
 72
     1
 73
     1
 90
        2
 40
-0.6
 41
30.0
 62
     5
 63
     7
421
 16777215
 74
     0
 91
        4
 64
     7
 65
   257
 75
     1
175
     1
 42
1.0
 92
        8
 66
     7
 43
1.0
 76
     1
 77
     6
 78
     2
 67
     7
 79
     5
170
     0
171
     0
290
     0
174
     0
 93
       13
 44
0.0
173
     0
291
     1
 45
0.0
  0
VISUALSTYLE
  5
2C
102
{ACAD_REACTORS
330
2A
102
}
102
{ACAD_XDICTIONARY
360
71
102
}
330
2A
100
AcDbVisualStyle
  2
FlatWithEdges
 70
     1
 71
     2
 72
     1
 73
     1
 90
        2
 40
-0.6
 41
30.0
 62
     5
 63
     7
421
 16777215
 74
     1
 91
        4
 64
     7
 65
   257
 75
     1
175
     1
 42
1.0
 92
        0
 66
   257
 43
1.0
 76
     1
 77
     6
 78
     2
 67
     7
 79
     5
170
     0
171
     0
290
     0
174
     0
 93
       13
 44
0.0
173
     0
291
     1
 45
0.0
  0
VISUALSTYLE
  5
2D
102
{ACAD_REACTORS
330
2A
102
}
102
{ACAD_XDICTIONARY
360
73
102
}
330
2A
100
AcDbVisualStyle
  2
Gouraud
 70
     2
 71
     2
 72
     2
 73
     1
 90
        2
 40
-0.6
 41
30.0
 62
     5
 63
     7
421
 16777215
 74
     0
 91
        4
 64
     7
 65
   257
 75
     1
175
     1
 42
1.0
 92
        0
 66
     7
 43
1.0
 76
     1
 77
     6
 78
     2
 67
     7
 79
     5
170
     0
171
     0
290
     0
174
     0
 93
       13
 44
0.0
173
     0
291
     1
 45
0.0
  0
VISUALSTYLE
  5
2E
102
{ACAD_REACTORS
330
2A
102
}
102
{ACAD_XDICTIONARY
360
75
102
}
330
2A
100
AcDbVisualStyle
  2
GouraudWithEdges
 70
     3
 71
     2
 72
     2
 73
     1
 90
        2
 40
-0.6
 41
30.0
 62
     5
 63
     7
421
 16777215
 74
     1
 91
        4
 64
     7
 65
   257
 75
     1
175
     1
 42
1.0
 92
        0
 66
   257
 43
1.0
 76
     1
 77
     6
 78
     2
 67
     7
 79
     5
170
     0
171
     0
290
     0
174
     0
 93
       13
 44
0.0
173
     0
291
     1
 45
0.0
  0
VISUALSTYLE
  5
38
102
{ACAD_REACTORS
330
2A
102
}
102
{ACAD_XDICTIONARY
360
89
102
}
330
2A
100
AcDbVisualStyle
  2
Linepattern
 70
    14
 71
     2
 72
     2
 73
     0
 90
        0
 40
-0.6
 41
-30.0
 62
     5
 63
     7
421
 16777215
 74
     1
 91
        4
 64
     7
 65
   257
 75
     7
175
     7
 42
1.0
 92
        8
 66
     7
 43
1.0
 76
     1
 77
     6
 78
     2
 67
     7
 79
     5
170
     0
171
     0
290
     0
174
     0
 93
        1
 44
0.0
173
     0
291
     1
 45
0.0
  0
VISUALSTYLE
  5
33
102
{ACAD_REACTORS
330
2A
102
}
102
{ACAD_XDICTIONARY
360
7F
102
}
330
2A
100
AcDbVisualStyle
  2
Realistic
 70
     8
 71
     2
 72
     2
 73
     0
 90
        0
 40
-0.6
 41
-30.0
 62
     5
 63
     7
421
 16777215
 74
     1
 91
        0
 64
     7
 65
   257
 75
     1
175
     1
 42
1.0
 92
        8
 66
     8
424
  7895160
 43
1.0
 76
     1
 77
     6
 78
     2
 67
     7
 79
     5
170
     0
171
     0
290
     0
174
     0
 93
       13
 44
0.0
173
     0
291
     0
 45
0.0
  0
VISUALSTYLE
  5
37
102
{ACAD_REACTORS
330
2A
102
}
102
{ACAD_XDICTIONARY
360
87
102
}
330
2A
100
AcDbVisualStyle
  2
Thicken
 70
    13
 71
     2
 72
     2
 73
     0
 90
        0
 40
-0.6
 41
-30.0
 62
     5
 63
     7
421
 16777215
 74
     1
 91
        4
 64
     7
 65
   257
 75
     1
175
     1
 42
1.0
 92
       12
 66
     7
 43
1.0
 76
     1
 77
     6
 78
     2
 67
     7
 79
     5
170
     0
171
     0
290
     0
174
     0
 93
        1
 44
0.0
173
     0
291
     1
 45
0.0
  0
DICTIONARY
  5
77
330
2F
100
AcDbDictionary
280
     1
281
     1
  3
ACAD_XREC_ROUNDTRIP
360
78
  0
DICTIONARY
  5
7B
330
31
100
AcDbDictionary
280
     1
281
     1
  3
ACAD_XREC_ROUNDTRIP
360
7C
  0
DICTIONARY
  5
79
330
30
100
AcDbDictionary
280
     1
281
     1
  3
ACAD_XREC_ROUNDTRIP
360
7A
  0
DICTIONARY
  5
7D
330
32
100
AcDbDictionary
280
     1
281
     1
  3
ACAD_XREC_ROUNDTRIP
360
7E
  0
DICTIONARY
  5
85
330
36
100
AcDbDictionary
280
     1
281
     1
  3
ACAD_XREC_ROUNDTRIP
360
86
  0
DICTIONARY
  5
8D
330
3A
100
AcDbDictionary
280
     1
281
     1
  3
ACAD_XREC_ROUNDTRIP
360
8E
  0
DICTIONARY
  5
81
330
34
100
AcDbDictionary
280
     1
281
     1
  3
ACAD_XREC_ROUNDTRIP
360
82
  0
DICTIONARY
  5
83
330
35
100
AcDbDictionary
280
     1
281
     1
  3
ACAD_XREC_ROUNDTRIP
360
84
  0
DICTIONARY
  5
8B
330
39
100
AcDbDictionary
280
     1
281
     1
  3
ACAD_XREC_ROUNDTRIP
360
8C
  0
DICTIONARY
  5
6F
330
2B
100
AcDbDictionary
280
     1
281
     1
  3
ACAD_XREC_ROUNDTRIP
360
70
  0
DICTIONARY
  5
71
330
2C
100
AcDbDictionary
280
     1
281
     1
  3
ACAD_XREC_ROUNDTRIP
360
72
  0
DICTIONARY
  5
73
330
2D
100
AcDbDictionary
280
     1
281
     1
  3
ACAD_XREC_ROUNDTRIP
360
74
  0
DICTIONARY
  5
75
330
2E
100
AcDbDictionary
280
     1
281
     1
  3
ACAD_XREC_ROUNDTRIP
360
76
  0
DICTIONARY
  5
89
330
38
100
AcDbDictionary
280
     1
281
     1
  3
ACAD_XREC_ROUNDTRIP
360
8A
  0
DICTIONARY
  5
7F
330
33
100
AcDbDictionary
280
     1
281
     1
  3
ACAD_XREC_ROUNDTRIP
360
80
  0
DICTIONARY
  5
87
330
37
100
AcDbDictionary
280
     1
281
     1
  3
ACAD_XREC_ROUNDTRIP
360
88
  0
XRECORD
  5
78
102
{ACAD_REACTORS
330
77
102
}
330
77
100
AcDbXrecord
280
     1
102
RTVSPropertyOp0
 70
     1
102
RTVSPropertyOp1
 70
     1
102
RTVSPropertyOp2
 70
     1
102
RTVSPropertyOp3
 70
     1
102
RTVSPropertyOp4
 70
     1
102
RTVSPropertyOp5
 70
     1
102
RTVSPropertyOp6
 70
     1
102
RTVSPropertyOp7
 70
     1
102
RTVSPropertyOp8
 70
     1
102
RTVSPropertyOp9
 70
     1
102
RTVSPropertyOp10
 70
     1
102
RTVSPropertyOp11
 70
     1
102
RTVSPropertyOp12
 70
     1
102
RTVSPropertyOp13
 70
     1
102
RTVSPropertyOp14
 70
     1
102
RTVSPropertyOp15
 70
     1
102
RTVSPropertyOp16
 70
     1
102
RTVSPropertyOp17
 70
     1
102
RTVSPropertyOp18
 70
     1
102
RTVSPropertyOp19
 70
     1
102
RTVSPropertyOp20
 70
     1
102
RTVSPropertyOp21
 70
     1
102
RTVSPropertyOp22
 70
     1
102
RTVSPropertyOp23
 70
     1
102
RTVSPropertyOp24
 70
     1
102
RTVSPropertyOp25
 70
     1
102
RTVSPropertyOp26
 70
     1
102
RTVSPropertyOp27
 70
     1
  0
XRECORD
  5
7C
102
{ACAD_REACTORS
330
7B
102
}
330
7B
100
AcDbXrecord
280
     1
102
RTVSPropertyOp0
 70
     1
102
RTVSPropertyOp1
 70
     1
102
RTVSPropertyOp2
 70
     1
102
RTVSPropertyOp3
 70
     1
102
RTVSPropertyOp4
 70
     1
102
RTVSPropertyOp5
 70
     1
102
RTVSPropertyOp6
 70
     1
102
RTVSPropertyOp7
 70
     1
102
RTVSPropertyOp8
 70
     1
102
RTVSPropertyOp9
 70
     1
102
RTVSPropertyOp10
 70
     1
102
RTVSPropertyOp11
 70
     1
102
RTVSPropertyOp12
 70
     1
102
RTVSPropertyOp13
 70
     1
102
RTVSPropertyOp14
 70
     1
102
RTVSPropertyOp15
 70
     1
102
RTVSPropertyOp16
 70
     1
102
RTVSPropertyOp17
 70
     1
102
RTVSPropertyOp18
 70
     1
102
RTVSPropertyOp19
 70
     1
102
RTVSPropertyOp20
 70
     1
102
RTVSPropertyOp21
 70
     1
102
RTVSPropertyOp22
 70
     1
102
RTVSPropertyOp23
 70
     1
102
RTVSPropertyOp24
 70
     1
102
RTVSPropertyOp25
 70
     1
102
RTVSPropertyOp26
 70
     1
102
RTVSPropertyOp27
 70
     1
  0
XRECORD
  5
7A
102
{ACAD_REACTORS
330
79
102
}
330
79
100
AcDbXrecord
280
     1
102
RTVSPropertyOp0
 70
     1
102
RTVSPropertyOp1
 70
     1
102
RTVSPropertyOp2
 70
     1
102
RTVSPropertyOp3
 70
     1
102
RTVSPropertyOp4
 70
     1
102
RTVSPropertyOp5
 70
     1
102
RTVSPropertyOp6
 70
     1
102
RTVSPropertyOp7
 70
     1
102
RTVSPropertyOp8
 70
     1
102
RTVSPropertyOp9
 70
     1
102
RTVSPropertyOp10
 70
     1
102
RTVSPropertyOp11
 70
     1
102
RTVSPropertyOp12
 70
     1
102
RTVSPropertyOp13
 70
     1
102
RTVSPropertyOp14
 70
     1
102
RTVSPropertyOp15
 70
     1
102
RTVSPropertyOp16
 70
     1
102
RTVSPropertyOp17
 70
     1
102
RTVSPropertyOp18
 70
     1
102
RTVSPropertyOp19
 70
     1
102
RTVSPropertyOp20
 70
     1
102
RTVSPropertyOp21
 70
     1
102
RTVSPropertyOp22
 70
     1
102
RTVSPropertyOp23
 70
     1
102
RTVSPropertyOp24
 70
     1
102
RTVSPropertyOp25
 70
     1
102
RTVSPropertyOp26
 70
     1
102
RTVSPropertyOp27
 70
     1
  0
XRECORD
  5
7E
102
{ACAD_REACTORS
330
7D
102
}
330
7D
100
AcDbXrecord
280
     1
102
RTVSPropertyOp0
 70
     1
102
RTVSPropertyOp1
 70
     1
102
RTVSPropertyOp2
 70
     1
102
RTVSPropertyOp3
 70
     1
102
RTVSPropertyOp4
 70
     1
102
RTVSPropertyOp5
 70
     1
102
RTVSPropertyOp6
 70
     1
102
RTVSPropertyOp7
 70
     1
102
RTVSPropertyOp8
 70
     1
102
RTVSPropertyOp9
 70
     1
102
RTVSPropertyOp10
 70
     1
102
RTVSPropertyOp11
 70
     1
102
RTVSPropertyOp12
 70
     1
102
RTVSPropertyOp13
 70
     1
102
RTVSPropertyOp14
 70
     1
102
RTVSPropertyOp15
 70
     1
102
RTVSPropertyOp16
 70
     1
102
RTVSPropertyOp17
 70
     1
102
RTVSPropertyOp18
 70
     1
102
RTVSPropertyOp19
 70
     1
102
RTVSPropertyOp20
 70
     1
102
RTVSPropertyOp21
 70
     1
102
RTVSPropertyOp22
 70
     1
102
RTVSPropertyOp23
 70
     1
102
RTVSPropertyOp24
 70
     1
102
RTVSPropertyOp25
 70
     1
102
RTVSPropertyOp26
 70
     1
102
RTVSPropertyOp27
 70
     1
  0
XRECORD
  5
86
102
{ACAD_REACTORS
330
85
102
}
330
85
100
AcDbXrecord
280
     1
102
RTVSPropertyOp0
 70
     1
102
RTVSPropertyOp1
 70
     1
102
RTVSPropertyOp2
 70
     1
102
RTVSPropertyOp3
 70
     1
102
RTVSPropertyOp4
 70
     1
102
RTVSPropertyOp5
 70
     1
102
RTVSPropertyOp6
 70
     1
102
RTVSPropertyOp7
 70
     1
102
RTVSPropertyOp8
 70
     1
102
RTVSPropertyOp9
 70
     1
102
RTVSPropertyOp10
 70
     1
102
RTVSPropertyOp11
 70
     1
102
RTVSPropertyOp12
 70
     1
102
RTVSPropertyOp13
 70
     1
102
RTVSPropertyOp14
 70
     1
102
RTVSPropertyOp15
 70
     1
102
RTVSPropertyOp16
 70
     1
102
RTVSPropertyOp17
 70
     1
102
RTVSPropertyOp18
 70
     1
102
RTVSPropertyOp19
 70
     1
102
RTVSPropertyOp20
 70
     1
102
RTVSPropertyOp21
 70
     1
102
RTVSPropertyOp22
 70
     1
102
RTVSPropertyOp23
 70
     1
102
RTVSPropertyOp24
 70
     1
102
RTVSPropertyOp25
 70
     1
102
RTVSPropertyOp26
 70
     1
102
RTVSPropertyOp27
 70
     1
  0
XRECORD
  5
8E
102
{ACAD_REACTORS
330
8D
102
}
330
8D
100
AcDbXrecord
280
     1
102
RTVSPropertyOp0
 70
     1
102
RTVSPropertyOp1
 70
     1
102
RTVSPropertyOp2
 70
     1
102
RTVSPropertyOp3
 70
     1
102
RTVSPropertyOp4
 70
     1
102
RTVSPropertyOp5
 70
     1
102
RTVSPropertyOp6
 70
     1
102
RTVSPropertyOp7
 70
     1
102
RTVSPropertyOp8
 70
     1
102
RTVSPropertyOp9
 70
     1
102
RTVSPropertyOp10
 70
     1
102
RTVSPropertyOp11
 70
     1
102
RTVSPropertyOp12
 70
     1
102
RTVSPropertyOp13
 70
     1
102
RTVSPropertyOp14
 70
     1
102
RTVSPropertyOp15
 70
     1
102
RTVSPropertyOp16
 70
     1
102
RTVSPropertyOp17
 70
     1
102
RTVSPropertyOp18
 70
     1
102
RTVSPropertyOp19
 70
     1
102
RTVSPropertyOp20
 70
     1
102
RTVSPropertyOp21
 70
     1
102
RTVSPropertyOp22
 70
     1
102
RTVSPropertyOp23
 70
     1
102
RTVSPropertyOp24
 70
     1
102
RTVSPropertyOp25
 70
     1
102
RTVSPropertyOp26
 70
     1
102
RTVSPropertyOp27
 70
     1
  0
XRECORD
  5
82
102
{ACAD_REACTORS
330
81
102
}
330
81
100
AcDbXrecord
280
     1
102
RTVSPropertyOp0
 70
     1
102
RTVSPropertyOp1
 70
     1
102
RTVSPropertyOp2
 70
     1
102
RTVSPropertyOp3
 70
     1
102
RTVSPropertyOp4
 70
     1
102
RTVSPropertyOp5
 70
     1
102
RTVSPropertyOp6
 70
     1
102
RTVSPropertyOp7
 70
     1
102
RTVSPropertyOp8
 70
     1
102
RTVSPropertyOp9
 70
     1
102
RTVSPropertyOp10
 70
     1
102
RTVSPropertyOp11
 70
     1
102
RTVSPropertyOp12
 70
     1
102
RTVSPropertyOp13
 70
     1
102
RTVSPropertyOp14
 70
     1
102
RTVSPropertyOp15
 70
     1
102
RTVSPropertyOp16
 70
     1
102
RTVSPropertyOp17
 70
     1
102
RTVSPropertyOp18
 70
     1
102
RTVSPropertyOp19
 70
     1
102
RTVSPropertyOp20
 70
     1
102
RTVSPropertyOp21
 70
     1
102
RTVSPropertyOp22
 70
     1
102
RTVSPropertyOp23
 70
     1
102
RTVSPropertyOp24
 70
     1
102
RTVSPropertyOp25
 70
     1
102
RTVSPropertyOp26
 70
     1
102
RTVSPropertyOp27
 70
     1
  0
XRECORD
  5
84
102
{ACAD_REACTORS
330
83
102
}
330
83
100
AcDbXrecord
280
     1
102
RTVSPropertyOp0
 70
     1
102
RTVSPropertyOp1
 70
     1
102
RTVSPropertyOp2
 70
     1
102
RTVSPropertyOp3
 70
     1
102
RTVSPropertyOp4
 70
     1
102
RTVSPropertyOp5
 70
     1
102
RTVSPropertyOp6
 70
     1
102
RTVSPropertyOp7
 70
     1
102
RTVSPropertyOp8
 70
     1
102
RTVSPropertyOp9
 70
     1
102
RTVSPropertyOp10
 70
     1
102
RTVSPropertyOp11
 70
     1
102
RTVSPropertyOp12
 70
     1
102
RTVSPropertyOp13
 70
     1
102
RTVSPropertyOp14
 70
     1
102
RTVSPropertyOp15
 70
     1
102
RTVSPropertyOp16
 70
     1
102
RTVSPropertyOp17
 70
     1
102
RTVSPropertyOp18
 70
     1
102
RTVSPropertyOp19
 70
     1
102
RTVSPropertyOp20
 70
     1
102
RTVSPropertyOp21
 70
     1
102
RTVSPropertyOp22
 70
     1
102
RTVSPropertyOp23
 70
     1
102
RTVSPropertyOp24
 70
     1
102
RTVSPropertyOp25
 70
     1
102
RTVSPropertyOp26
 70
     1
102
RTVSPropertyOp27
 70
     1
  0
XRECORD
  5
8C
102
{ACAD_REACTORS
330
8B
102
}
330
8B
100
AcDbXrecord
280
     1
102
RTVSPropertyOp0
 70
     1
102
RTVSPropertyOp1
 70
     1
102
RTVSPropertyOp2
 70
     1
102
RTVSPropertyOp3
 70
     1
102
RTVSPropertyOp4
 70
     1
102
RTVSPropertyOp5
 70
     1
102
RTVSPropertyOp6
 70
     1
102
RTVSPropertyOp7
 70
     1
102
RTVSPropertyOp8
 70
     1
102
RTVSPropertyOp9
 70
     1
102
RTVSPropertyOp10
 70
     1
102
RTVSPropertyOp11
 70
     1
102
RTVSPropertyOp12
 70
     1
102
RTVSPropertyOp13
 70
     1
102
RTVSPropertyOp14
 70
     1
102
RTVSPropertyOp15
 70
     1
102
RTVSPropertyOp16
 70
     1
102
RTVSPropertyOp17
 70
     1
102
RTVSPropertyOp18
 70
     1
102
RTVSPropertyOp19
 70
     1
102
RTVSPropertyOp20
 70
     1
102
RTVSPropertyOp21
 70
     1
102
RTVSPropertyOp22
 70
     1
102
RTVSPropertyOp23
 70
     1
102
RTVSPropertyOp24
 70
     1
102
RTVSPropertyOp25
 70
     1
102
RTVSPropertyOp26
 70
     1
102
RTVSPropertyOp27
 70
     1
  0
XRECORD
  5
70
102
{ACAD_REACTORS
330
6F
102
}
330
6F
100
AcDbXrecord
280
     1
102
RTVSPropertyOp0
 70
     1
102
RTVSPropertyOp1
 70
     1
102
RTVSPropertyOp2
 70
     1
102
RTVSPropertyOp3
 70
     1
102
RTVSPropertyOp4
 70
     1
102
RTVSPropertyOp5
 70
     1
102
RTVSPropertyOp6
 70
     1
102
RTVSPropertyOp7
 70
     1
102
RTVSPropertyOp8
 70
     1
102
RTVSPropertyOp9
 70
     1
102
RTVSPropertyOp10
 70
     1
102
RTVSPropertyOp11
 70
     1
102
RTVSPropertyOp12
 70
     1
102
RTVSPropertyOp13
 70
     1
102
RTVSPropertyOp14
 70
     1
102
RTVSPropertyOp15
 70
     1
102
RTVSPropertyOp16
 70
     1
102
RTVSPropertyOp17
 70
     1
102
RTVSPropertyOp18
 70
     1
102
RTVSPropertyOp19
 70
     1
102
RTVSPropertyOp20
 70
     1
102
RTVSPropertyOp21
 70
     1
102
RTVSPropertyOp22
 70
     1
102
RTVSPropertyOp23
 70
     1
102
RTVSPropertyOp24
 70
     1
102
RTVSPropertyOp25
 70
     1
102
RTVSPropertyOp26
 70
     1
102
RTVSPropertyOp27
 70
     1
  0
XRECORD
  5
72
102
{ACAD_REACTORS
330
71
102
}
330
71
100
AcDbXrecord
280
     1
102
RTVSPropertyOp0
 70
     1
102
RTVSPropertyOp1
 70
     1
102
RTVSPropertyOp2
 70
     1
102
RTVSPropertyOp3
 70
     1
102
RTVSPropertyOp4
 70
     1
102
RTVSPropertyOp5
 70
     1
102
RTVSPropertyOp6
 70
     1
102
RTVSPropertyOp7
 70
     1
102
RTVSPropertyOp8
 70
     1
102
RTVSPropertyOp9
 70
     1
102
RTVSPropertyOp10
 70
     1
102
RTVSPropertyOp11
 70
     1
102
RTVSPropertyOp12
 70
     1
102
RTVSPropertyOp13
 70
     1
102
RTVSPropertyOp14
 70
     1
102
RTVSPropertyOp15
 70
     1
102
RTVSPropertyOp16
 70
     1
102
RTVSPropertyOp17
 70
     1
102
RTVSPropertyOp18
 70
     1
102
RTVSPropertyOp19
 70
     1
102
RTVSPropertyOp20
 70
     1
102
RTVSPropertyOp21
 70
     1
102
RTVSPropertyOp22
 70
     1
102
RTVSPropertyOp23
 70
     1
102
RTVSPropertyOp24
 70
     1
102
RTVSPropertyOp25
 70
     1
102
RTVSPropertyOp26
 70
     1
102
RTVSPropertyOp27
 70
     1
  0
XRECORD
  5
74
102
{ACAD_REACTORS
330
73
102
}
330
73
100
AcDbXrecord
280
     1
102
RTVSPropertyOp0
 70
     1
102
RTVSPropertyOp1
 70
     1
102
RTVSPropertyOp2
 70
     1
102
RTVSPropertyOp3
 70
     1
102
RTVSPropertyOp4
 70
     1
102
RTVSPropertyOp5
 70
     1
102
RTVSPropertyOp6
 70
     1
102
RTVSPropertyOp7
 70
     1
102
RTVSPropertyOp8
 70
     1
102
RTVSPropertyOp9
 70
     1
102
RTVSPropertyOp10
 70
     1
102
RTVSPropertyOp11
 70
     1
102
RTVSPropertyOp12
 70
     1
102
RTVSPropertyOp13
 70
     1
102
RTVSPropertyOp14
 70
     1
102
RTVSPropertyOp15
 70
     1
102
RTVSPropertyOp16
 70
     1
102
RTVSPropertyOp17
 70
     1
102
RTVSPropertyOp18
 70
     1
102
RTVSPropertyOp19
 70
     1
102
RTVSPropertyOp20
 70
     1
102
RTVSPropertyOp21
 70
     1
102
RTVSPropertyOp22
 70
     1
102
RTVSPropertyOp23
 70
     1
102
RTVSPropertyOp24
 70
     1
102
RTVSPropertyOp25
 70
     1
102
RTVSPropertyOp26
 70
     1
102
RTVSPropertyOp27
 70
     1
  0
XRECORD
  5
76
102
{ACAD_REACTORS
330
75
102
}
330
75
100
AcDbXrecord
280
     1
102
RTVSPropertyOp0
 70
     1
102
RTVSPropertyOp1
 70
     1
102
RTVSPropertyOp2
 70
     1
102
RTVSPropertyOp3
 70
     1
102
RTVSPropertyOp4
 70
     1
102
RTVSPropertyOp5
 70
     1
102
RTVSPropertyOp6
 70
     1
102
RTVSPropertyOp7
 70
     1
102
RTVSPropertyOp8
 70
     1
102
RTVSPropertyOp9
 70
     1
102
RTVSPropertyOp10
 70
     1
102
RTVSPropertyOp11
 70
     1
102
RTVSPropertyOp12
 70
     1
102
RTVSPropertyOp13
 70
     1
102
RTVSPropertyOp14
 70
     1
102
RTVSPropertyOp15
 70
     1
102
RTVSPropertyOp16
 70
     1
102
RTVSPropertyOp17
 70
     1
102
RTVSPropertyOp18
 70
     1
102
RTVSPropertyOp19
 70
     1
102
RTVSPropertyOp20
 70
     1
102
RTVSPropertyOp21
 70
     1
102
RTVSPropertyOp22
 70
     1
102
RTVSPropertyOp23
 70
     1
102
RTVSPropertyOp24
 70
     1
102
RTVSPropertyOp25
 70
     1
102
RTVSPropertyOp26
 70
     1
102
RTVSPropertyOp27
 70
     1
  0
XRECORD
  5
8A
102
{ACAD_REACTORS
330
89
102
}
330
89
100
AcDbXrecord
280
     1
102
RTVSPropertyOp0
 70
     1
102
RTVSPropertyOp1
 70
     1
102
RTVSPropertyOp2
 70
     1
102
RTVSPropertyOp3
 70
     1
102
RTVSPropertyOp4
 70
     1
102
RTVSPropertyOp5
 70
     1
102
RTVSPropertyOp6
 70
     1
102
RTVSPropertyOp7
 70
     1
102
RTVSPropertyOp8
 70
     1
102
RTVSPropertyOp9
 70
     1
102
RTVSPropertyOp10
 70
     1
102
RTVSPropertyOp11
 70
     1
102
RTVSPropertyOp12
 70
     1
102
RTVSPropertyOp13
 70
     1
102
RTVSPropertyOp14
 70
     1
102
RTVSPropertyOp15
 70
     1
102
RTVSPropertyOp16
 70
     1
102
RTVSPropertyOp17
 70
     1
102
RTVSPropertyOp18
 70
     1
102
RTVSPropertyOp19
 70
     1
102
RTVSPropertyOp20
 70
     1
102
RTVSPropertyOp21
 70
     1
102
RTVSPropertyOp22
 70
     1
102
RTVSPropertyOp23
 70
     1
102
RTVSPropertyOp24
 70
     1
102
RTVSPropertyOp25
 70
     1
102
RTVSPropertyOp26
 70
     1
102
RTVSPropertyOp27
 70
     1
  0
XRECORD
  5
80
102
{ACAD_REACTORS
330
7F
102
}
330
7F
100
AcDbXrecord
280
     1
102
RTVSPropertyOp0
 70
     1
102
RTVSPropertyOp1
 70
     1
102
RTVSPropertyOp2
 70
     1
102
RTVSPropertyOp3
 70
     1
102
RTVSPropertyOp4
 70
     1
102
RTVSPropertyOp5
 70
     1
102
RTVSPropertyOp6
 70
     1
102
RTVSPropertyOp7
 70
     1
102
RTVSPropertyOp8
 70
     1
102
RTVSPropertyOp9
 70
     1
102
RTVSPropertyOp10
 70
     1
102
RTVSPropertyOp11
 70
     1
102
RTVSPropertyOp12
 70
     1
102
RTVSPropertyOp13
 70
     1
102
RTVSPropertyOp14
 70
     1
102
RTVSPropertyOp15
 70
     1
102
RTVSPropertyOp16
 70
     1
102
RTVSPropertyOp17
 70
     1
102
RTVSPropertyOp18
 70
     1
102
RTVSPropertyOp19
 70
     1
102
RTVSPropertyOp20
 70
     1
102
RTVSPropertyOp21
 70
     1
102
RTVSPropertyOp22
 70
     1
102
RTVSPropertyOp23
 70
     1
102
RTVSPropertyOp24
 70
     1
102
RTVSPropertyOp25
 70
     1
102
RTVSPropertyOp26
 70
     1
102
RTVSPropertyOp27
 70
     1
  0
XRECORD
  5
88
102
{ACAD_REACTORS
330
87
102
}
330
87
100
AcDbXrecord
280
     1
102
RTVSPropertyOp0
 70
     1
102
RTVSPropertyOp1
 70
     1
102
RTVSPropertyOp2
 70
     1
102
RTVSPropertyOp3
 70
     1
102
RTVSPropertyOp4
 70
     1
102
RTVSPropertyOp5
 70
     1
102
RTVSPropertyOp6
 70
     1
102
RTVSPropertyOp7
 70
     1
102
RTVSPropertyOp8
 70
     1
102
RTVSPropertyOp9
 70
     1
102
RTVSPropertyOp10
 70
     1
102
RTVSPropertyOp11
 70
     1
102
RTVSPropertyOp12
 70
     1
102
RTVSPropertyOp13
 70
     1
102
RTVSPropertyOp14
 70
     1
102
RTVSPropertyOp15
 70
     1
102
RTVSPropertyOp16
 70
     1
102
RTVSPropertyOp17
 70
     1
102
RTVSPropertyOp18
 70
     1
102
RTVSPropertyOp19
 70
     1
102
RTVSPropertyOp20
 70
     1
102
RTVSPropertyOp21
 70
     1
102
RTVSPropertyOp22
 70
     1
102
RTVSPropertyOp23
 70
     1
102
RTVSPropertyOp24
 70
     1
102
RTVSPropertyOp25
 70
     1
102
RTVSPropertyOp26
 70
     1
102
RTVSPropertyOp27
 70
     1
  0
ENDSEC
  0
EOF
