  0
SECTION
  2
HEADER
  9
$ACADVER
  1
AC1014
  9
$HANDSEED
  5
FFFF
  9
$INSUNITS
 70
     4
  9
$MEASUREMENT
 70
     1
  0
ENDSEC
  0
SECTION
  2
TABLES
  0
TABLE
  2
VPORT
  5
8
330
0
100
AcDbSymbolTable
 70
     4
  0
VPORT
  5
2E
330
8
100
AcDbSymbolTableRecord
100
AcDbViewportTableRecord
  2
*ACTIVE
 70
     0
 10
0.0
 20
0.0
 11
1.0
 21
1.0
 12
210.0
 22
148.5
 13
0.0
 23
0.0
 14
10.0
 24
10.0
 15
10.0
 25
10.0
 16
0.0
 26
0.0
 36
1.0
 17
0.0
 27
0.0
 37
0.0
 40
341.0
 41
1.24
 42
50.0
 43
0.0
 44
0.0
 50
0.0
 51
0.0
 71
     0
 72
   100
 73
     1
 74
     3
 75
     0
 76
     0
 77
     0
 78
     0
  0
ENDTAB
  0
TABLE
  2
LTYPE
  5
5
330
0
100
AcDbSymbolTable
 70
     1
  0
LTYPE
  5
14
330
5
100
AcDbSymbolTableRecord
100
AcDbLinetypeTableRecord
  2
BYBLOCK
 70
     0
  3

 72
    65
 73
     0
 40
0.0
  0
LTYPE
  5
15
330
5
100
AcDbSymbolTableRecord
100
AcDbLinetypeTableRecord
  2
BYLAYER
 70
     0
  3

 72
    65
 73
     0
 40
0.0
  0
LTYPE
  5
16
330
5
100
AcDbSymbolTableRecord
100
AcDbLinetypeTableRecord
  2
CONTINUOUS
 70
     0
  3
Solid line
 72
    65
 73
     0
 40
0.0
  0
ENDTAB
  0
TABLE
  2
LAYER
  5
2
100
AcDbSymbolTable
 70
5
  0
LAYER
  5
50
100
AcDbSymbolTableRecord
100
AcDbLayerTableRecord
  2
0
 70
0
  6
CONTINUOUS
  0
LAYER
  5
51
100
AcDbSymbolTableRecord
100
AcDbLayerTableRecord
  2
beer_A
 70
0
  6
CONTINUOUS
  0
LAYER
  5
52
100
AcDbSymbolTableRecord
100
AcDbLayerTableRecord
  2
beer_A_shape_12er
 70
0
  6
CONTINUOUS
  0
LAYER
  5
53
100
AcDbSymbolTableRecord
100
AcDbLayerTableRecord
  2
beer_A_holes
 70
0
  6
CONTINUOUS
  0
LAYER
  5
54
100
AcDbSymbolTableRecord
100
AcDbLayerTableRecord
  2
tabs
 70
0
  6
CONTINUOUS
  0
ENDTAB
  0
TABLE
  2
STYLE
  5
3
330
0
100
AcDbSymbolTable
 70
     1
  0
STYLE
  5
11
330
3
100
AcDbSymbolTableRecord
100
AcDbTextStyleTableRecord
  2
STANDARD
 70
     0
 40
0.0
 41
1.0
 50
0.0
 71
     0
 42
2.5
  3
txt
  4

  0
ENDTAB
  0
TABLE
  2
VIEW
  5
6
330
0
100
AcDbSymbolTable
 70
     0
  0
ENDTAB
  0
TABLE
  2
UCS
  5
7
330
0
100
AcDbSymbolTable
 70
     0
  0
ENDTAB
  0
TABLE
  2
APPID
  5
9
330
0
100
AcDbSymbolTable
 70
     2
  0
APPID
  5
12
330
9
100
AcDbSymbolTableRecord
100
AcDbRegAppTableRecord
  2
ACAD
 70
     0
  0
ENDTAB
  0
TABLE
  2
DIMSTYLE
  5
A
330
0
100
AcDbSymbolTable
 70
     1
  0
DIMSTYLE
105
27
330
A
100
AcDbSymbolTableRecord
100
AcDbDimStyleTableRecord
  2
ISO-25
 70
     0
  3

  4

  5

  6

  7

 40
1.0
 41
2.5
 42
0.625
 43
3.75
 44
1.25
 45
0.0
 46
0.0
 47
0.0
 48
0.0
140
2.5
141
2.5
142
0.0
143
0.03937007874016
144
1.0
145
0.0
146
1.0
147
0.625
 71
     0
 72
     0
 73
     0
 74
     0
 75
     0
 76
     0
 77
     1
 78
     8
170
     0
171
     3
172
     1
173
     0
174
     0
175
     0
176
     0
177
     0
178
     0
270
     2
271
     2
272
     2
273
     2
274
     3
340
11
275
     0
280
     0
281
     0
282
     0
283
     0
284
     8
285
     0
286
     0
287
     3
288
     0
  0
ENDTAB
  0
TABLE
  2
BLOCK_RECORD
  5
1
330
0
100
AcDbSymbolTable
 70
     1
  0
BLOCK_RECORD
  5
1F
330
1
100
AcDbSymbolTableRecord
100
AcDbBlockTableRecord
  2
*MODEL_SPACE
  0
BLOCK_RECORD
  5
1B
330
1
100
AcDbSymbolTableRecord
100
AcDbBlockTableRecord
  2
*PAPER_SPACE
  0
ENDTAB
  0
ENDSEC
  0
SECTION
  2
BLOCKS
  0
BLOCK
  5
20
330
1F
100
AcDbEntity
  8
0
100
AcDbBlockBegin
  2
*MODEL_SPACE
 70
     0
 10
0.0
 20
0.0
 30
0.0
  3
*MODEL_SPACE
  1

  0
ENDBLK
  5
21
330
1F
100
AcDbEntity
  8
0
100
AcDbBlockEnd
  0
BLOCK
  5
1C
330
1B
100
AcDbEntity
 67
     1
  8
0
100
AcDbBlockBegin
  2
*PAPER_SPACE
  1

  0
ENDBLK
  5
1D
330
1B
100
AcDbEntity
 67
     1
  8
0
100
AcDbBlockEnd
  0
ENDSEC
  0
SECTION
  2
ENTITIES
  0
SPLINE
  5
100
100
AcDbEntity
  8
beer_A_shape_12er
 62
7
100
AcDbSpline
 70
8
 71
3
 72
8
 73
4
 74
0
 40
0
 40
0
 40
0
 40
0
 40
1
 40
1
 40
1
 40
1
 10
168.189450
 20
1133.900000
 30
0.0
 10
75.355828
 20
1133.900000
 30
0.0
 10
0.000000
 20
1058.709053
 30
0.0
 10
0.000000
 20
965.710550
 30
0.0
  0
SPLINE
  5
101
100
AcDbEntity
  8
beer_A_shape_12er
 62
7
100
AcDbSpline
 70
8
 71
3
 72
8
 73
4
 74
0
 40
0
 40
0
 40
0
 40
0
 40
1
 40
1
 40
1
 40
1
 10
0.000000
 20
965.710550
 30
0.0
 10
0.000000
 20
919.370200
 30
0.0
 10
18.780106
 20
877.389600
 30
0.0
 10
49.134764
 20
846.958600
 30
0.0
  0
SPLINE
  5
102
100
AcDbEntity
  8
beer_A_shape_12er
 62
7
100
AcDbSpline
 70
8
 71
3
 72
8
 73
4
 74
0
 40
0
 40
0
 40
0
 40
0
 40
1
 40
1
 40
1
 40
1
 10
49.134764
 20
785.942890
 30
0.0
 10
18.780122
 20
755.532400
 30
0.0
 10
0.000000
 20
713.551070
 30
0.0
 10
0.000000
 20
667.128440
 30
0.0
  0
SPLINE
  5
103
100
AcDbEntity
  8
beer_A_shape_12er
 62
7
100
AcDbSpline
 70
8
 71
3
 72
8
 73
4
 74
0
 40
0
 40
0
 40
0
 40
0
 40
1
 40
1
 40
1
 40
1
 10
0.000000
 20
667.128440
 30
0.0
 10
0.000000
 20
620.788070
 30
0.0
 10
18.780091
 20
578.805530
 30
0.0
 10
49.134764
 20
548.374530
 30
0.0
  0
LWPOLYLINE
  5
104
100
AcDbEntity
  8
beer_A_shape_12er
 62
7
100
AcDbPolyline
 90
2
 70
0
 10
49.134764
 20
846.958600
 30
0.0
 10
49.134764
 20
785.942890
 30
0.0
  0
SPLINE
  5
105
100
AcDbEntity
  8
beer_A_shape_12er
 62
7
100
AcDbSpline
 70
8
 71
3
 72
8
 73
4
 74
0
 40
0
 40
0
 40
0
 40
0
 40
1
 40
1
 40
1
 40
1
 10
49.134764
 20
487.359750
 30
0.0
 10
18.780137
 20
456.949270
 30
0.0
 10
0.000000
 20
414.967920
 30
0.0
 10
0.000000
 20
368.545300
 30
0.0
  0
SPLINE
  5
106
100
AcDbEntity
  8
beer_A_shape_12er
 62
7
100
AcDbSpline
 70
8
 71
3
 72
8
 73
4
 74
0
 40
0
 40
0
 40
0
 40
0
 40
1
 40
1
 40
1
 40
1
 10
0.000000
 20
368.545300
 30
0.0
 10
0.000000
 20
275.711670
 30
0.0
 10
75.355828
 20
200.355890
 30
0.0
 10
168.189450
 20
200.355890
 30
0.0
  0
SPLINE
  5
107
100
AcDbEntity
  8
beer_A_shape_12er
 62
7
100
AcDbSpline
 70
8
 71
3
 72
8
 73
4
 74
0
 40
0
 40
0
 40
0
 40
0
 40
1
 40
1
 40
1
 40
1
 10
168.189450
 20
200.355890
 30
0.0
 10
233.115080
 20
200.355890
 30
0.0
 10
289.451890
 20
237.238810
 30
0.0
 10
317.480460
 20
291.156630
 30
0.0
  0
SPLINE
  5
108
100
AcDbEntity
  8
beer_A_shape_12er
 62
7
100
AcDbSpline
 70
8
 71
3
 72
8
 73
4
 74
0
 40
0
 40
0
 40
0
 40
0
 40
1
 40
1
 40
1
 40
1
 10
317.480460
 20
291.156630
 30
0.0
 10
345.509030
 20
237.238810
 30
0.0
 10
401.845850
 20
200.355890
 30
0.0
 10
466.771470
 20
200.355890
 30
0.0
  0
SPLINE
  5
109
100
AcDbEntity
  8
beer_A_shape_12er
 62
7
100
AcDbSpline
 70
8
 71
3
 72
8
 73
4
 74
0
 40
0
 40
0
 40
0
 40
0
 40
1
 40
1
 40
1
 40
1
 10
466.771470
 20
200.355890
 30
0.0
 10
531.697720
 20
200.355890
 30
0.0
 10
584.945930
 20
200.029880
 30
0.0
 10
634.960610
 20
200.356720
 30
0.0
  0
SPLINE
  5
10a
100
AcDbEntity
  8
beer_A_shape_12er
 62
7
100
AcDbSpline
 70
8
 71
3
 72
8
 73
4
 74
0
 40
0
 40
0
 40
0
 40
0
 40
1
 40
1
 40
1
 40
1
 10
634.960610
 20
200.356720
 30
0.0
 10
684.975220
 20
200.029610
 30
0.0
 10
738.223220
 20
200.355890
 30
0.0
 10
803.149660
 20
200.355890
 30
0.0
  0
SPLINE
  5
10b
100
AcDbEntity
  8
beer_A_shape_12er
 62
7
100
AcDbSpline
 70
8
 71
3
 72
8
 73
4
 74
0
 40
0
 40
0
 40
0
 40
0
 40
1
 40
1
 40
1
 40
1
 10
803.149660
 20
200.355890
 30
0.0
 10
868.075790
 20
200.355890
 30
0.0
 10
924.412320
 20
237.240090
 30
0.0
 10
952.440670
 20
291.158580
 30
0.0
  0
SPLINE
  5
10c
100
AcDbEntity
  8
beer_A_shape_12er
 62
7
100
AcDbSpline
 70
8
 71
3
 72
8
 73
4
 74
0
 40
0
 40
0
 40
0
 40
0
 40
1
 40
1
 40
1
 40
1
 10
952.440670
 20
291.158580
 30
0.0
 10
980.468880
 20
237.239660
 30
0.0
 10
1036.807200
 20
200.355890
 30
0.0
 10
1101.733700
 20
200.355890
 30
0.0
  0
SPLINE
  5
10d
100
AcDbEntity
  8
beer_A_shape_12er
 62
7
100
AcDbSpline
 70
8
 71
3
 72
8
 73
4
 74
0
 40
0
 40
0
 40
0
 40
0
 40
1
 40
1
 40
1
 40
1
 10
1101.733700
 20
200.355890
 30
0.0
 10
1194.567300
 20
200.355890
 30
0.0
 10
1269.921200
 20
275.711670
 30
0.0
 10
1269.921200
 20
368.545300
 30
0.0
  0
SPLINE
  5
10e
100
AcDbEntity
  8
beer_A_shape_12er
 62
7
100
AcDbSpline
 70
8
 71
3
 72
8
 73
4
 74
0
 40
0
 40
0
 40
0
 40
0
 40
1
 40
1
 40
1
 40
1
 10
1269.921200
 20
368.545300
 30
0.0
 10
1269.921200
 20
414.884660
 30
0.0
 10
1251.141900
 20
456.866410
 30
0.0
 10
1220.788400
 20
487.297250
 30
0.0
  0
LWPOLYLINE
  5
10f
100
AcDbEntity
  8
beer_A_shape_12er
 62
7
100
AcDbPolyline
 90
2
 70
0
 10
49.134764
 20
548.374530
 30
0.0
 10
49.134764
 20
487.359750
 30
0.0
  0
SPLINE
  5
110
100
AcDbEntity
  8
beer_A_shape_12er
 62
7
100
AcDbSpline
 70
8
 71
3
 72
8
 73
4
 74
0
 40
0
 40
0
 40
0
 40
0
 40
1
 40
1
 40
1
 40
1
 10
1220.788400
 20
548.376490
 30
0.0
 10
1251.141900
 20
578.807330
 30
0.0
 10
1269.921200
 20
620.789070
 30
0.0
 10
1269.921200
 20
667.128440
 30
0.0
  0
SPLINE
  5
111
100
AcDbEntity
  8
beer_A_shape_12er
 62
7
100
AcDbSpline
 70
8
 71
3
 72
8
 73
4
 74
0
 40
0
 40
0
 40
0
 40
0
 40
1
 40
1
 40
1
 40
1
 10
1269.921200
 20
667.128440
 30
0.0
 10
1269.921200
 20
713.467780
 30
0.0
 10
1251.141900
 20
755.447590
 30
0.0
 10
1220.788400
 20
785.878430
 30
0.0
  0
LWPOLYLINE
  5
112
100
AcDbEntity
  8
beer_A_shape_12er
 62
7
100
AcDbPolyline
 90
2
 70
0
 10
1220.788400
 20
487.297250
 30
0.0
 10
1220.788400
 20
548.376490
 30
0.0
  0
SPLINE
  5
113
100
AcDbEntity
  8
beer_A_shape_12er
 62
7
100
AcDbSpline
 70
8
 71
3
 72
8
 73
4
 74
0
 40
0
 40
0
 40
0
 40
0
 40
1
 40
1
 40
1
 40
1
 10
1220.788400
 20
846.960550
 30
0.0
 10
1251.141900
 20
877.391400
 30
0.0
 10
1269.921200
 20
919.371190
 30
0.0
 10
1269.921200
 20
965.710550
 30
0.0
  0
SPLINE
  5
114
100
AcDbEntity
  8
beer_A_shape_12er
 62
7
100
AcDbSpline
 70
8
 71
3
 72
8
 73
4
 74
0
 40
0
 40
0
 40
0
 40
0
 40
1
 40
1
 40
1
 40
1
 10
1269.921200
 20
965.710550
 30
0.0
 10
1269.921200
 20
1058.544163
 30
0.0
 10
1194.567300
 20
1133.900000
 30
0.0
 10
1101.733700
 20
1133.900000
 30
0.0
  0
SPLINE
  5
115
100
AcDbEntity
  8
beer_A_shape_12er
 62
7
100
AcDbSpline
 70
8
 71
3
 72
8
 73
4
 74
0
 40
0
 40
0
 40
0
 40
0
 40
1
 40
1
 40
1
 40
1
 10
1101.733700
 20
1133.900000
 30
0.0
 10
1036.792800
 20
1133.900000
 30
0.0
 10
980.444950
 20
1097.080750
 30
0.0
 10
952.423090
 20
1043.134377
 30
0.0
  0
SPLINE
  5
116
100
AcDbEntity
  8
beer_A_shape_12er
 62
7
100
AcDbSpline
 70
8
 71
3
 72
8
 73
4
 74
0
 40
0
 40
0
 40
0
 40
0
 40
1
 40
1
 40
1
 40
1
 10
952.423090
 20
1043.134377
 30
0.0
 10
924.388400
 20
1097.033376
 30
0.0
 10
868.061410
 20
1133.900000
 30
0.0
 10
803.149660
 20
1133.900000
 30
0.0
  0
SPLINE
  5
117
100
AcDbEntity
  8
beer_A_shape_12er
 62
7
100
AcDbSpline
 70
8
 71
3
 72
8
 73
4
 74
0
 40
0
 40
0
 40
0
 40
0
 40
1
 40
1
 40
1
 40
1
 10
803.149660
 20
1133.900000
 30
0.0
 10
738.208840
 20
1133.900000
 30
0.0
 10
687.717150
 20
1134.254557
 30
0.0
 10
634.960610
 20
1133.900000
 30
0.0
  0
SPLINE
  5
118
100
AcDbEntity
  8
beer_A_shape_12er
 62
7
100
AcDbSpline
 70
8
 71
3
 72
8
 73
4
 74
0
 40
0
 40
0
 40
0
 40
0
 40
1
 40
1
 40
1
 40
1
 10
634.960610
 20
1133.900000
 30
0.0
 10
579.442980
 20
1134.207344
 30
0.0
 10
531.683340
 20
1133.900000
 30
0.0
 10
466.771470
 20
1133.900000
 30
0.0
  0
SPLINE
  5
119
100
AcDbEntity
  8
beer_A_shape_12er
 62
7
100
AcDbSpline
 70
8
 71
3
 72
8
 73
4
 74
0
 40
0
 40
0
 40
0
 40
0
 40
1
 40
1
 40
1
 40
1
 10
466.771470
 20
1133.900000
 30
0.0
 10
401.831160
 20
1133.900000
 30
0.0
 10
345.483010
 20
1097.082028
 30
0.0
 10
317.460930
 20
1043.136330
 30
0.0
  0
SPLINE
  5
11a
100
AcDbEntity
  8
beer_A_shape_12er
 62
7
100
AcDbSpline
 70
8
 71
3
 72
8
 73
4
 74
0
 40
0
 40
0
 40
0
 40
0
 40
1
 40
1
 40
1
 40
1
 10
317.460930
 20
1043.136330
 30
0.0
 10
289.425870
 20
1097.034221
 30
0.0
 10
233.100380
 20
1133.900000
 30
0.0
 10
168.189450
 20
1133.900000
 30
0.0
  0
LWPOLYLINE
  5
11b
100
AcDbEntity
  8
beer_A_shape_12er
 62
7
100
AcDbPolyline
 90
2
 70
0
 10
1220.788400
 20
785.878430
 30
0.0
 10
1220.788400
 20
846.960550
 30
0.0
  0
SPLINE
  5
11c
100
AcDbEntity
  8
beer_A_holes
 62
7
100
AcDbSpline
 70
8
 71
3
 72
8
 73
4
 74
0
 40
0
 40
0
 40
0
 40
0
 40
1
 40
1
 40
1
 40
1
 10
37.795275
 20
965.711040
 30
0.0
 10
37.795275
 20
1037.811080
 30
0.0
 10
96.216775
 20
1096.104725
 30
0.0
 10
168.188970
 20
1096.104725
 30
0.0
  0
SPLINE
  5
11d
100
AcDbEntity
  8
beer_A_holes
 62
7
100
AcDbSpline
 70
8
 71
3
 72
8
 73
4
 74
0
 40
0
 40
0
 40
0
 40
0
 40
1
 40
1
 40
1
 40
1
 10
168.188970
 20
1096.104725
 30
0.0
 10
240.161170
 20
1096.104725
 30
0.0
 10
298.582670
 20
1037.683240
 30
0.0
 10
298.582670
 20
965.711040
 30
0.0
  0
SPLINE
  5
11e
100
AcDbEntity
  8
beer_A_holes
 62
7
100
AcDbSpline
 70
8
 71
3
 72
8
 73
4
 74
0
 40
0
 40
0
 40
0
 40
0
 40
1
 40
1
 40
1
 40
1
 10
298.582670
 20
965.711040
 30
0.0
 10
298.582670
 20
893.738830
 30
0.0
 10
240.161170
 20
835.317340
 30
0.0
 10
168.188970
 20
835.317340
 30
0.0
  0
SPLINE
  5
11f
100
AcDbEntity
  8
beer_A_holes
 62
7
100
AcDbSpline
 70
8
 71
3
 72
8
 73
4
 74
0
 40
0
 40
0
 40
0
 40
0
 40
1
 40
1
 40
1
 40
1
 10
168.188970
 20
835.317340
 30
0.0
 10
96.216775
 20
835.317340
 30
0.0
 10
37.795275
 20
893.738830
 30
0.0
 10
37.795275
 20
965.711040
 30
0.0
  0
LWPOLYLINE
  5
120
100
AcDbEntity
  8
beer_A_shape_12er
 62
7
100
AcDbPolyline
 90
1
 70
1
 10
168.189450
 20
1133.900000
 30
0.0
  0
SPLINE
  5
121
100
AcDbEntity
  8
beer_A_holes
 62
7
100
AcDbSpline
 70
8
 71
3
 72
8
 73
4
 74
0
 40
0
 40
0
 40
0
 40
0
 40
1
 40
1
 40
1
 40
1
 10
336.377940
 20
965.711030
 30
0.0
 10
336.377940
 20
1037.811075
 30
0.0
 10
394.799430
 20
1096.104725
 30
0.0
 10
466.771640
 20
1096.104725
 30
0.0
  0
SPLINE
  5
122
100
AcDbEntity
  8
beer_A_holes
 62
7
100
AcDbSpline
 70
8
 71
3
 72
8
 73
4
 74
0
 40
0
 40
0
 40
0
 40
0
 40
1
 40
1
 40
1
 40
1
 10
466.771640
 20
1096.104725
 30
0.0
 10
538.743850
 20
1096.104725
 30
0.0
 10
597.165340
 20
1037.683235
 30
0.0
 10
597.165340
 20
965.711030
 30
0.0
  0
SPLINE
  5
123
100
AcDbEntity
  8
beer_A_holes
 62
7
100
AcDbSpline
 70
8
 71
3
 72
8
 73
4
 74
0
 40
0
 40
0
 40
0
 40
0
 40
1
 40
1
 40
1
 40
1
 10
597.165340
 20
965.711030
 30
0.0
 10
597.165340
 20
893.738820
 30
0.0
 10
538.743850
 20
835.317330
 30
0.0
 10
466.771640
 20
835.317330
 30
0.0
  0
SPLINE
  5
124
100
AcDbEntity
  8
beer_A_holes
 62
7
100
AcDbSpline
 70
8
 71
3
 72
8
 73
4
 74
0
 40
0
 40
0
 40
0
 40
0
 40
1
 40
1
 40
1
 40
1
 10
466.771640
 20
835.317330
 30
0.0
 10
394.799430
 20
835.317330
 30
0.0
 10
336.377940
 20
893.738820
 30
0.0
 10
336.377940
 20
965.711030
 30
0.0
  0
LWPOLYLINE
  5
125
100
AcDbEntity
  8
beer_A_holes
 62
7
100
AcDbPolyline
 90
1
 70
1
 10
37.795275
 20
965.711040
 30
0.0
  0
SPLINE
  5
126
100
AcDbEntity
  8
beer_A_holes
 62
7
100
AcDbSpline
 70
8
 71
3
 72
8
 73
4
 74
0
 40
0
 40
0
 40
0
 40
0
 40
1
 40
1
 40
1
 40
1
 10
672.755890
 20
965.711030
 30
0.0
 10
672.755890
 20
1037.811075
 30
0.0
 10
731.177380
 20
1096.104725
 30
0.0
 10
803.149590
 20
1096.104725
 30
0.0
  0
SPLINE
  5
127
100
AcDbEntity
  8
beer_A_holes
 62
7
100
AcDbSpline
 70
8
 71
3
 72
8
 73
4
 74
0
 40
0
 40
0
 40
0
 40
0
 40
1
 40
1
 40
1
 40
1
 10
803.149590
 20
1096.104725
 30
0.0
 10
875.121800
 20
1096.104725
 30
0.0
 10
933.543290
 20
1037.683235
 30
0.0
 10
933.543290
 20
965.711030
 30
0.0
  0
SPLINE
  5
128
100
AcDbEntity
  8
beer_A_holes
 62
7
100
AcDbSpline
 70
8
 71
3
 72
8
 73
4
 74
0
 40
0
 40
0
 40
0
 40
0
 40
1
 40
1
 40
1
 40
1
 10
933.543290
 20
965.711030
 30
0.0
 10
933.543290
 20
893.738820
 30
0.0
 10
875.121800
 20
835.317330
 30
0.0
 10
803.149590
 20
835.317330
 30
0.0
  0
SPLINE
  5
129
100
AcDbEntity
  8
beer_A_holes
 62
7
100
AcDbSpline
 70
8
 71
3
 72
8
 73
4
 74
0
 40
0
 40
0
 40
0
 40
0
 40
1
 40
1
 40
1
 40
1
 10
803.149590
 20
835.317330
 30
0.0
 10
731.177380
 20
835.317330
 30
0.0
 10
672.755890
 20
893.738820
 30
0.0
 10
672.755890
 20
965.711030
 30
0.0
  0
LWPOLYLINE
  5
12a
100
AcDbEntity
  8
beer_A_holes
 62
7
100
AcDbPolyline
 90
1
 70
1
 10
336.377940
 20
965.711030
 30
0.0
  0
SPLINE
  5
12b
100
AcDbEntity
  8
beer_A_holes
 62
7
100
AcDbSpline
 70
8
 71
3
 72
8
 73
4
 74
0
 40
0
 40
0
 40
0
 40
0
 40
1
 40
1
 40
1
 40
1
 10
37.795274
 20
667.128370
 30
0.0
 10
37.795274
 20
739.228410
 30
0.0
 10
96.216764
 20
797.522060
 30
0.0
 10
168.188970
 20
797.522060
 30
0.0
  0
SPLINE
  5
12c
100
AcDbEntity
  8
beer_A_holes
 62
7
100
AcDbSpline
 70
8
 71
3
 72
8
 73
4
 74
0
 40
0
 40
0
 40
0
 40
0
 40
1
 40
1
 40
1
 40
1
 10
168.188970
 20
797.522060
 30
0.0
 10
240.161180
 20
797.522060
 30
0.0
 10
298.582670
 20
739.100570
 30
0.0
 10
298.582670
 20
667.128370
 30
0.0
  0
SPLINE
  5
12d
100
AcDbEntity
  8
beer_A_holes
 62
7
100
AcDbSpline
 70
8
 71
3
 72
8
 73
4
 74
0
 40
0
 40
0
 40
0
 40
0
 40
1
 40
1
 40
1
 40
1
 10
298.582670
 20
667.128370
 30
0.0
 10
298.582670
 20
595.156160
 30
0.0
 10
240.161180
 20
536.734670
 30
0.0
 10
168.188970
 20
536.734670
 30
0.0
  0
SPLINE
  5
12e
100
AcDbEntity
  8
beer_A_holes
 62
7
100
AcDbSpline
 70
8
 71
3
 72
8
 73
4
 74
0
 40
0
 40
0
 40
0
 40
0
 40
1
 40
1
 40
1
 40
1
 10
168.188970
 20
536.734670
 30
0.0
 10
96.216764
 20
536.734670
 30
0.0
 10
37.795274
 20
595.156160
 30
0.0
 10
37.795274
 20
667.128370
 30
0.0
  0
LWPOLYLINE
  5
12f
100
AcDbEntity
  8
beer_A_holes
 62
7
100
AcDbPolyline
 90
1
 70
1
 10
672.755890
 20
965.711030
 30
0.0
  0
SPLINE
  5
130
100
AcDbEntity
  8
beer_A_holes
 62
7
100
AcDbSpline
 70
8
 71
3
 72
8
 73
4
 74
0
 40
0
 40
0
 40
0
 40
0
 40
1
 40
1
 40
1
 40
1
 10
336.377940
 20
667.128370
 30
0.0
 10
336.377940
 20
739.228410
 30
0.0
 10
394.799430
 20
797.522060
 30
0.0
 10
466.771640
 20
797.522060
 30
0.0
  0
SPLINE
  5
131
100
AcDbEntity
  8
beer_A_holes
 62
7
100
AcDbSpline
 70
8
 71
3
 72
8
 73
4
 74
0
 40
0
 40
0
 40
0
 40
0
 40
1
 40
1
 40
1
 40
1
 10
466.771640
 20
797.522060
 30
0.0
 10
538.743850
 20
797.522060
 30
0.0
 10
597.165340
 20
739.100570
 30
0.0
 10
597.165340
 20
667.128370
 30
0.0
  0
SPLINE
  5
132
100
AcDbEntity
  8
beer_A_holes
 62
7
100
AcDbSpline
 70
8
 71
3
 72
8
 73
4
 74
0
 40
0
 40
0
 40
0
 40
0
 40
1
 40
1
 40
1
 40
1
 10
597.165340
 20
667.128370
 30
0.0
 10
597.165340
 20
595.156160
 30
0.0
 10
538.743850
 20
536.734670
 30
0.0
 10
466.771640
 20
536.734670
 30
0.0
  0
SPLINE
  5
133
100
AcDbEntity
  8
beer_A_holes
 62
7
100
AcDbSpline
 70
8
 71
3
 72
8
 73
4
 74
0
 40
0
 40
0
 40
0
 40
0
 40
1
 40
1
 40
1
 40
1
 10
466.771640
 20
536.734670
 30
0.0
 10
394.799430
 20
536.734670
 30
0.0
 10
336.377940
 20
595.156160
 30
0.0
 10
336.377940
 20
667.128370
 30
0.0
  0
LWPOLYLINE
  5
134
100
AcDbEntity
  8
beer_A_holes
 62
7
100
AcDbPolyline
 90
1
 70
1
 10
37.795274
 20
667.128370
 30
0.0
  0
SPLINE
  5
135
100
AcDbEntity
  8
beer_A_holes
 62
7
100
AcDbSpline
 70
8
 71
3
 72
8
 73
4
 74
0
 40
0
 40
0
 40
0
 40
0
 40
1
 40
1
 40
1
 40
1
 10
672.755890
 20
667.128370
 30
0.0
 10
672.755890
 20
739.228410
 30
0.0
 10
731.177380
 20
797.522060
 30
0.0
 10
803.149590
 20
797.522060
 30
0.0
  0
SPLINE
  5
136
100
AcDbEntity
  8
beer_A_holes
 62
7
100
AcDbSpline
 70
8
 71
3
 72
8
 73
4
 74
0
 40
0
 40
0
 40
0
 40
0
 40
1
 40
1
 40
1
 40
1
 10
803.149590
 20
797.522060
 30
0.0
 10
875.121800
 20
797.522060
 30
0.0
 10
933.543290
 20
739.100570
 30
0.0
 10
933.543290
 20
667.128370
 30
0.0
  0
SPLINE
  5
137
100
AcDbEntity
  8
beer_A_holes
 62
7
100
AcDbSpline
 70
8
 71
3
 72
8
 73
4
 74
0
 40
0
 40
0
 40
0
 40
0
 40
1
 40
1
 40
1
 40
1
 10
933.543290
 20
667.128370
 30
0.0
 10
933.543290
 20
595.156160
 30
0.0
 10
875.121800
 20
536.734670
 30
0.0
 10
803.149590
 20
536.734670
 30
0.0
  0
SPLINE
  5
138
100
AcDbEntity
  8
beer_A_holes
 62
7
100
AcDbSpline
 70
8
 71
3
 72
8
 73
4
 74
0
 40
0
 40
0
 40
0
 40
0
 40
1
 40
1
 40
1
 40
1
 10
803.149590
 20
536.734670
 30
0.0
 10
731.177380
 20
536.734670
 30
0.0
 10
672.755890
 20
595.156160
 30
0.0
 10
672.755890
 20
667.128370
 30
0.0
  0
LWPOLYLINE
  5
139
100
AcDbEntity
  8
beer_A_holes
 62
7
100
AcDbPolyline
 90
1
 70
1
 10
336.377940
 20
667.128370
 30
0.0
  0
SPLINE
  5
13a
100
AcDbEntity
  8
beer_A_holes
 62
7
100
AcDbSpline
 70
8
 71
3
 72
8
 73
4
 74
0
 40
0
 40
0
 40
0
 40
0
 40
1
 40
1
 40
1
 40
1
 10
971.338560
 20
965.711030
 30
0.0
 10
971.338560
 20
1037.811075
 30
0.0
 10
1029.760000
 20
1096.104725
 30
0.0
 10
1101.732300
 20
1096.104725
 30
0.0
  0
SPLINE
  5
13b
100
AcDbEntity
  8
beer_A_holes
 62
7
100
AcDbSpline
 70
8
 71
3
 72
8
 73
4
 74
0
 40
0
 40
0
 40
0
 40
0
 40
1
 40
1
 40
1
 40
1
 10
1101.732300
 20
1096.104725
 30
0.0
 10
1173.704500
 20
1096.104725
 30
0.0
 10
1232.126000
 20
1037.683235
 30
0.0
 10
1232.126000
 20
965.711030
 30
0.0
  0
SPLINE
  5
13c
100
AcDbEntity
  8
beer_A_holes
 62
7
100
AcDbSpline
 70
8
 71
3
 72
8
 73
4
 74
0
 40
0
 40
0
 40
0
 40
0
 40
1
 40
1
 40
1
 40
1
 10
1232.126000
 20
965.711030
 30
0.0
 10
1232.126000
 20
893.738820
 30
0.0
 10
1173.704500
 20
835.317330
 30
0.0
 10
1101.732300
 20
835.317330
 30
0.0
  0
SPLINE
  5
13d
100
AcDbEntity
  8
beer_A_holes
 62
7
100
AcDbSpline
 70
8
 71
3
 72
8
 73
4
 74
0
 40
0
 40
0
 40
0
 40
0
 40
1
 40
1
 40
1
 40
1
 10
1101.732300
 20
835.317330
 30
0.0
 10
1029.760000
 20
835.317330
 30
0.0
 10
971.338560
 20
893.738820
 30
0.0
 10
971.338560
 20
965.711030
 30
0.0
  0
LWPOLYLINE
  5
13e
100
AcDbEntity
  8
beer_A_holes
 62
7
100
AcDbPolyline
 90
1
 70
1
 10
672.755890
 20
667.128370
 30
0.0
  0
SPLINE
  5
13f
100
AcDbEntity
  8
beer_A_holes
 62
7
100
AcDbSpline
 70
8
 71
3
 72
8
 73
4
 74
0
 40
0
 40
0
 40
0
 40
0
 40
1
 40
1
 40
1
 40
1
 10
971.338560
 20
667.128370
 30
0.0
 10
971.338560
 20
739.228410
 30
0.0
 10
1029.760000
 20
797.522060
 30
0.0
 10
1101.732300
 20
797.522060
 30
0.0
  0
SPLINE
  5
140
100
AcDbEntity
  8
beer_A_holes
 62
7
100
AcDbSpline
 70
8
 71
3
 72
8
 73
4
 74
0
 40
0
 40
0
 40
0
 40
0
 40
1
 40
1
 40
1
 40
1
 10
1101.732300
 20
797.522060
 30
0.0
 10
1173.704500
 20
797.522060
 30
0.0
 10
1232.126000
 20
739.100570
 30
0.0
 10
1232.126000
 20
667.128370
 30
0.0
  0
SPLINE
  5
141
100
AcDbEntity
  8
beer_A_holes
 62
7
100
AcDbSpline
 70
8
 71
3
 72
8
 73
4
 74
0
 40
0
 40
0
 40
0
 40
0
 40
1
 40
1
 40
1
 40
1
 10
1232.126000
 20
667.128370
 30
0.0
 10
1232.126000
 20
595.156160
 30
0.0
 10
1173.704500
 20
536.734670
 30
0.0
 10
1101.732300
 20
536.734670
 30
0.0
  0
SPLINE
  5
142
100
AcDbEntity
  8
beer_A_holes
 62
7
100
AcDbSpline
 70
8
 71
3
 72
8
 73
4
 74
0
 40
0
 40
0
 40
0
 40
0
 40
1
 40
1
 40
1
 40
1
 10
1101.732300
 20
536.734670
 30
0.0
 10
1029.760000
 20
536.734670
 30
0.0
 10
971.338560
 20
595.156160
 30
0.0
 10
971.338560
 20
667.128370
 30
0.0
  0
LWPOLYLINE
  5
143
100
AcDbEntity
  8
beer_A_holes
 62
7
100
AcDbPolyline
 90
1
 70
1
 10
971.338560
 20
965.711030
 30
0.0
  0
SPLINE
  5
144
100
AcDbEntity
  8
beer_A_holes
 62
7
100
AcDbSpline
 70
8
 71
3
 72
8
 73
4
 74
0
 40
0
 40
0
 40
0
 40
0
 40
1
 40
1
 40
1
 40
1
 10
37.795274
 20
368.545700
 30
0.0
 10
37.795274
 20
440.645740
 30
0.0
 10
96.216764
 20
498.939390
 30
0.0
 10
168.188970
 20
498.939390
 30
0.0
  0
SPLINE
  5
145
100
AcDbEntity
  8
beer_A_holes
 62
7
100
AcDbSpline
 70
8
 71
3
 72
8
 73
4
 74
0
 40
0
 40
0
 40
0
 40
0
 40
1
 40
1
 40
1
 40
1
 10
168.188970
 20
498.939390
 30
0.0
 10
240.161180
 20
498.939390
 30
0.0
 10
298.582670
 20
440.517900
 30
0.0
 10
298.582670
 20
368.545700
 30
0.0
  0
SPLINE
  5
146
100
AcDbEntity
  8
beer_A_holes
 62
7
100
AcDbSpline
 70
8
 71
3
 72
8
 73
4
 74
0
 40
0
 40
0
 40
0
 40
0
 40
1
 40
1
 40
1
 40
1
 10
298.582670
 20
368.545700
 30
0.0
 10
298.582670
 20
296.573490
 30
0.0
 10
240.161180
 20
238.152000
 30
0.0
 10
168.188970
 20
238.152000
 30
0.0
  0
SPLINE
  5
147
100
AcDbEntity
  8
beer_A_holes
 62
7
100
AcDbSpline
 70
8
 71
3
 72
8
 73
4
 74
0
 40
0
 40
0
 40
0
 40
0
 40
1
 40
1
 40
1
 40
1
 10
168.188970
 20
238.152000
 30
0.0
 10
96.216764
 20
238.152000
 30
0.0
 10
37.795274
 20
296.573490
 30
0.0
 10
37.795274
 20
368.545700
 30
0.0
  0
LWPOLYLINE
  5
148
100
AcDbEntity
  8
beer_A_holes
 62
7
100
AcDbPolyline
 90
1
 70
1
 10
971.338560
 20
667.128370
 30
0.0
  0
SPLINE
  5
149
100
AcDbEntity
  8
beer_A_holes
 62
7
100
AcDbSpline
 70
8
 71
3
 72
8
 73
4
 74
0
 40
0
 40
0
 40
0
 40
0
 40
1
 40
1
 40
1
 40
1
 10
336.377940
 20
368.545700
 30
0.0
 10
336.377940
 20
440.645740
 30
0.0
 10
394.799430
 20
498.939390
 30
0.0
 10
466.771640
 20
498.939390
 30
0.0
  0
SPLINE
  5
14a
100
AcDbEntity
  8
beer_A_holes
 62
7
100
AcDbSpline
 70
8
 71
3
 72
8
 73
4
 74
0
 40
0
 40
0
 40
0
 40
0
 40
1
 40
1
 40
1
 40
1
 10
466.771640
 20
498.939390
 30
0.0
 10
538.743850
 20
498.939390
 30
0.0
 10
597.165340
 20
440.517900
 30
0.0
 10
597.165340
 20
368.545700
 30
0.0
  0
SPLINE
  5
14b
100
AcDbEntity
  8
beer_A_holes
 62
7
100
AcDbSpline
 70
8
 71
3
 72
8
 73
4
 74
0
 40
0
 40
0
 40
0
 40
0
 40
1
 40
1
 40
1
 40
1
 10
597.165340
 20
368.545700
 30
0.0
 10
597.165340
 20
296.573490
 30
0.0
 10
538.743850
 20
238.152000
 30
0.0
 10
466.771640
 20
238.152000
 30
0.0
  0
SPLINE
  5
14c
100
AcDbEntity
  8
beer_A_holes
 62
7
100
AcDbSpline
 70
8
 71
3
 72
8
 73
4
 74
0
 40
0
 40
0
 40
0
 40
0
 40
1
 40
1
 40
1
 40
1
 10
466.771640
 20
238.152000
 30
0.0
 10
394.799430
 20
238.152000
 30
0.0
 10
336.377940
 20
296.573490
 30
0.0
 10
336.377940
 20
368.545700
 30
0.0
  0
LWPOLYLINE
  5
14d
100
AcDbEntity
  8
beer_A_holes
 62
7
100
AcDbPolyline
 90
1
 70
1
 10
37.795274
 20
368.545700
 30
0.0
  0
SPLINE
  5
14e
100
AcDbEntity
  8
beer_A_holes
 62
7
100
AcDbSpline
 70
8
 71
3
 72
8
 73
4
 74
0
 40
0
 40
0
 40
0
 40
0
 40
1
 40
1
 40
1
 40
1
 10
672.755890
 20
368.545700
 30
0.0
 10
672.755890
 20
440.645740
 30
0.0
 10
731.177380
 20
498.939390
 30
0.0
 10
803.149590
 20
498.939390
 30
0.0
  0
SPLINE
  5
14f
100
AcDbEntity
  8
beer_A_holes
 62
7
100
AcDbSpline
 70
8
 71
3
 72
8
 73
4
 74
0
 40
0
 40
0
 40
0
 40
0
 40
1
 40
1
 40
1
 40
1
 10
803.149590
 20
498.939390
 30
0.0
 10
875.121800
 20
498.939390
 30
0.0
 10
933.543290
 20
440.517900
 30
0.0
 10
933.543290
 20
368.545700
 30
0.0
  0
SPLINE
  5
150
100
AcDbEntity
  8
beer_A_holes
 62
7
100
AcDbSpline
 70
8
 71
3
 72
8
 73
4
 74
0
 40
0
 40
0
 40
0
 40
0
 40
1
 40
1
 40
1
 40
1
 10
933.543290
 20
368.545700
 30
0.0
 10
933.543290
 20
296.573490
 30
0.0
 10
875.121800
 20
238.152000
 30
0.0
 10
803.149590
 20
238.152000
 30
0.0
  0
SPLINE
  5
151
100
AcDbEntity
  8
beer_A_holes
 62
7
100
AcDbSpline
 70
8
 71
3
 72
8
 73
4
 74
0
 40
0
 40
0
 40
0
 40
0
 40
1
 40
1
 40
1
 40
1
 10
803.149590
 20
238.152000
 30
0.0
 10
731.177380
 20
238.152000
 30
0.0
 10
672.755890
 20
296.573490
 30
0.0
 10
672.755890
 20
368.545700
 30
0.0
  0
LWPOLYLINE
  5
152
100
AcDbEntity
  8
beer_A_holes
 62
7
100
AcDbPolyline
 90
1
 70
1
 10
336.377940
 20
368.545700
 30
0.0
  0
SPLINE
  5
153
100
AcDbEntity
  8
beer_A_holes
 62
7
100
AcDbSpline
 70
8
 71
3
 72
8
 73
4
 74
0
 40
0
 40
0
 40
0
 40
0
 40
1
 40
1
 40
1
 40
1
 10
971.338560
 20
368.545700
 30
0.0
 10
971.338560
 20
440.645740
 30
0.0
 10
1029.760000
 20
498.939390
 30
0.0
 10
1101.732300
 20
498.939390
 30
0.0
  0
SPLINE
  5
154
100
AcDbEntity
  8
beer_A_holes
 62
7
100
AcDbSpline
 70
8
 71
3
 72
8
 73
4
 74
0
 40
0
 40
0
 40
0
 40
0
 40
1
 40
1
 40
1
 40
1
 10
1101.732300
 20
498.939390
 30
0.0
 10
1173.704500
 20
498.939390
 30
0.0
 10
1232.126000
 20
440.517900
 30
0.0
 10
1232.126000
 20
368.545700
 30
0.0
  0
SPLINE
  5
155
100
AcDbEntity
  8
beer_A_holes
 62
7
100
AcDbSpline
 70
8
 71
3
 72
8
 73
4
 74
0
 40
0
 40
0
 40
0
 40
0
 40
1
 40
1
 40
1
 40
1
 10
1232.126000
 20
368.545700
 30
0.0
 10
1232.126000
 20
296.573490
 30
0.0
 10
1173.704500
 20
238.152000
 30
0.0
 10
1101.732300
 20
238.152000
 30
0.0
  0
SPLINE
  5
156
100
AcDbEntity
  8
beer_A_holes
 62
7
100
AcDbSpline
 70
8
 71
3
 72
8
 73
4
 74
0
 40
0
 40
0
 40
0
 40
0
 40
1
 40
1
 40
1
 40
1
 10
1101.732300
 20
238.152000
 30
0.0
 10
1029.760000
 20
238.152000
 30
0.0
 10
971.338560
 20
296.573490
 30
0.0
 10
971.338560
 20
368.545700
 30
0.0
  0
LWPOLYLINE
  5
157
100
AcDbEntity
  8
beer_A_holes
 62
7
100
AcDbPolyline
 90
1
 70
1
 10
672.755890
 20
368.545700
 30
0.0
  0
LWPOLYLINE
  5
158
100
AcDbEntity
  8
beer_A_holes
 62
7
100
AcDbPolyline
 90
1
 70
1
 10
971.338560
 20
368.545700
 30
0.0
  0
LWPOLYLINE
  5
159
100
AcDbEntity
  8
beer_A_holes
 62
7
100
AcDbPolyline
 90
4
 70
1
 10
623.905520
 20
1014.844890
 30
0.0
 10
646.015755
 20
1014.844890
 30
0.0
 10
646.015755
 20
319.411850
 30
0.0
 10
623.905520
 20
319.411850
 30
0.0
  0
LWPOLYLINE
  5
15a
100
AcDbEntity
  8
tabs
 62
7
100
AcDbPolyline
 90
4
 70
1
 10
-26.456669
 20
971.380320
 30
0.0
 10
1313.235831
 20
971.380320
 30
0.0
 10
1313.235831
 20
960.041738
 30
0.0
 10
-26.456669
 20
960.041738
 30
0.0
  0
LWPOLYLINE
  5
15b
100
AcDbEntity
  8
tabs
 62
7
100
AcDbPolyline
 90
4
 70
1
 10
-26.456669
 20
672.797640
 30
0.0
 10
1313.235831
 20
672.797640
 30
0.0
 10
1313.235831
 20
661.459058
 30
0.0
 10
-26.456669
 20
661.459058
 30
0.0
  0
LWPOLYLINE
  5
15c
100
AcDbEntity
  8
tabs
 62
7
100
AcDbPolyline
 90
4
 70
1
 10
-26.456669
 20
374.215000
 30
0.0
 10
1313.235831
 20
374.215000
 30
0.0
 10
1313.235831
 20
362.876418
 30
0.0
 10
-26.456669
 20
362.876418
 30
0.0
  0
LWPOLYLINE
  5
15d
100
AcDbEntity
  8
tabs
 62
7
100
AcDbPolyline
 90
4
 70
1
 10
466.771640
 20
1167.351668
 30
0.0
 10
478.110222
 20
1167.351668
 30
0.0
 10
478.110222
 20
166.905068
 30
0.0
 10
466.771640
 20
166.905068
 30
0.0
  0
LWPOLYLINE
  5
15e
100
AcDbEntity
  8
tabs
 62
7
100
AcDbPolyline
 90
4
 70
1
 10
805.019590
 20
1167.351668
 30
0.0
 10
816.358172
 20
1167.351668
 30
0.0
 10
816.358172
 20
166.905068
 30
0.0
 10
805.019590
 20
166.905068
 30
0.0
  0
ENDSEC
  0
SECTION
  2
OBJECTS
  0
DICTIONARY
  5
C
330
0
100
AcDbDictionary
  3
ACAD_GROUP
350
D
  3
ACAD_MLINESTYLE
350
17
  0
DICTIONARY
  5
D
330
C
100
AcDbDictionary
  0
DICTIONARY
  5
1A
330
C
100
AcDbDictionary
  0
DICTIONARY
  5
17
330
C
100
AcDbDictionary
  3
STANDARD
350
18
  0
DICTIONARY
  5
19
330
C
100
AcDbDictionary
  0
ENDSEC
  0
EOF
